<?xml version="1.0" standalone="no"?>
<!DOCTYPE svg PUBLIC "-//W3C//DTD SVG 1.1//EN" "http://www.w3.org/Graphics/SVG/1.1/DTD/svg11.dtd" >
<svg>
<metadata>
Created by FontForge 20090914 at Thu Feb 23 21:51:30 2012
 By root
Typeface &#194;&#169; Melissa Baxter, 2002. All Rights Reserved
</metadata>
<defs>
<font id="2PeasArizona" horiz-adv-x="550" >
  <font-face 
    font-family="2Peas Arizona"
    font-weight="400"
    font-stretch="normal"
    units-per-em="2048"
    panose-1="2 0 0 0 0 0 0 0 0 0"
    ascent="1638"
    descent="-410"
    x-height="1126"
    cap-height="1204"
    bbox="-42 -112 1561.68 1472"
    underline-thickness="150"
    underline-position="-142"
    unicode-range="U+0020-U+F005"
  />
<missing-glyph horiz-adv-x="1574" 
d="M256 0v1280h1024v-1280h-1024zM288 32h960v1216h-960v-1216z" />
    <glyph glyph-name=".notdef" horiz-adv-x="1574" 
d="M256 0v1280h1024v-1280h-1024zM288 32h960v1216h-960v-1216z" />
    <glyph glyph-name="space" unicode=" " horiz-adv-x="1500" 
 />
    <glyph glyph-name="space" unicode="&#xa0;" horiz-adv-x="1500" 
 />
    <glyph glyph-name="exclam" unicode="!" horiz-adv-x="702" 
d="M80 996v-24q-4 -19 -4 -44q-14 -47 -16 -112l4 -16q-4 -7 -8 -8v-44q-6 -22 -4 -40l-4 -16l-4 -20q-1 -24 4 -44v-28l-4 -24v-76l-4 -12v-16l-8 -100q5 -27 16 -44q-2 -23 4 -40q17 -20 44 -20l8 16l-8 36l4 24l4 12v12q0 20 -4 32l12 100l-4 16l4 48l-4 40v12l-4 72l4 8
v16l8 100v32q-1 41 4 68q-1 44 12 76q-15 14 -28 20zM112 32q40 -57 72 20q-20 15 -44 16z" />
    <glyph glyph-name="quotedbl" unicode="&#x22;" horiz-adv-x="807" 
d="M64 1084v-52q0 -26 -4 -44v-28q-5 -53 -4 -88q40 -31 64 12l-8 28v12l4 12v12v16v12q0 31 4 52q-7 37 -8 64l-12 8h-12zM244 1072q-11 -121 24 -220q28 4 44 24q-2 31 -8 52v16l-4 12v16l-12 100l-24 16z" />
    <glyph glyph-name="numbersign" unicode="#" horiz-adv-x="1755" 
d="M400 864l-8 -64l-12 -32v-12q-1 -26 0 -44q-7 -37 0 -68l-8 -12q-35 -5 -68 0q-11 -4 -20 -4l-108 -4l-12 -4h-12q-20 0 -32 -4h-12l-72 -4q-13 -23 -12 -44l20 -4h16l16 4h16q25 7 44 8h16q23 6 40 4l32 8q22 -3 40 0l12 -4h12h12q45 5 72 4l4 -40q-14 -71 -4 -124
l-4 -8q-4 -88 -4 -116l-52 -4l-16 4l-12 -4h-16l-28 4h-12h-12l-24 -4h-24q-56 -5 -36 -52l52 -4q23 3 40 8l12 -4l12 4h32q47 4 80 0v-16q-1 -37 -16 -60q3 -28 0 -52l28 -12q19 14 40 16v12l4 8q-3 30 4 48q-1 33 8 60l12 4h32q47 9 80 8h20l44 4h12q6 4 12 4l12 4h16h12
l80 4q9 -55 -8 -96q6 -29 0 -48q15 -14 32 -16q17 19 40 16l-4 16q4 33 12 56q-3 43 0 72h20l16 -4l12 8l16 4h12h12q45 -4 72 0h32h12l12 4h12q37 -4 64 0h32q44 0 72 8q3 87 -100 36q-37 8 -64 4h-16q-42 -12 -76 -8q-29 -5 -56 0h-12h-12l-24 -4h-24l-24 8q6 48 -8 88
l12 8l-4 20l8 36q-15 49 -8 92l44 4l12 4q32 -7 60 0q66 -14 120 0q13 11 20 24q-14 17 -32 24q-38 -5 -64 -4q-23 -5 -44 0l-8 -4h-12h-32l-64 -8l-20 12l-4 8v12l-4 32v12q-9 94 4 156l-20 24q-23 -3 -36 -16l-4 -12l-4 -16l4 -12v-40l-4 -12v-24l4 -8l-4 -16
q10 -55 8 -92h-80l-20 4q-54 1 -92 -8l-12 4l-52 12q-23 -7 -48 -4v12q-3 37 0 64l-4 12l4 16l4 12l4 28l8 88q-15 15 -32 16zM560 592h12q15 -5 32 -4l12 4h12l24 -8h12h16q40 2 68 0l8 -28v-12q6 -16 4 -32q13 -80 4 -140q0 -30 -4 -48h-28h-12q-45 -8 -76 -4
q-6 -4 -12 -4h-24l-12 -4h-16h-12l-28 -4q-52 6 -88 -4q-18 3 -32 8l4 16q0 28 -4 48l4 12l8 48l-12 24q24 43 8 120l8 8q32 -2 56 8q39 -9 68 -4z" />
    <glyph glyph-name="dollar" unicode="$" horiz-adv-x="1504" 
d="M726 1184l-8 -40l12 -8q-4 -47 -12 -80q-165 69 -316 36l-36 4q19 78 -24 84q-9 -7 -20 -8q-13 -48 -8 -88q-30 -15 -52 -20l-28 -16l-28 -8q-6 -4 -12 -4l-24 -16l-28 -8l-24 -16l-12 -8l-8 -4l-8 -8l-52 -40q-11 -30 -24 -48q-16 -277 288 -292q6 -27 4 -48l4 -148
q5 -4 4 -8v-32q9 -75 -4 -128q-96 26 -160 84l-24 12v12q-57 27 -88 72q-69 -21 -8 -68l12 -8l4 -8q28 -12 40 -32l24 -12q15 -9 20 -24l20 -8l12 -8q20 -12 32 -24l12 -4l12 -4l8 -8l16 -4l8 -4l12 -4q24 -19 48 -24q-1 -48 20 -80q50 10 44 60l16 -4h12h16l8 -4h44h32
q31 -9 60 -8q41 9 72 4q23 4 40 4v-12l4 -28q-6 -24 -4 -44l-8 -64q14 -16 28 -24q17 5 28 12l4 32q11 29 8 52l8 28q-7 33 -4 60l12 4q36 20 64 28q259 214 44 416l-12 4l-12 4q-55 18 -92 24l4 24v20q9 29 8 52q7 26 4 44l4 16v12l4 24l4 16v12v16l8 72q45 -52 80 -40
q-14 77 -84 116v32v12v12v124l-16 16h-16zM722 992v-32q4 -45 0 -76v-24l-4 -12l-4 -24q-1 -43 -12 -72q2 -64 -12 -112q-26 0 -44 4q-35 -5 -64 0h-16h-20h-44l-12 4h-16h-32l-8 4q-43 -5 -72 0q-3 30 0 52v12v32q-2 37 4 64q-7 37 0 68q-7 29 4 48q-14 56 -8 100
q36 21 72 16l28 8q149 8 260 -60zM314 1012q-6 -38 -4 -64l4 -40l-4 -36q6 -24 4 -44v-20l-4 -12v-56l-4 -12q4 -44 0 -72q-210 -8 -240 176l4 8l8 52l28 32l12 4l4 8l12 4q23 18 44 24q34 28 72 36q26 18 48 24q11 -4 16 -12zM410 588q46 5 80 -4l8 4h28q71 8 128 -8l28 -4
v-40l-4 -12q2 -32 -4 -56v-16q2 -38 0 -64l-4 -12l8 -32l-4 -16q5 -4 4 -8l-4 -24q4 -53 0 -88l-8 -4q-41 -3 -68 -12q-24 -1 -44 4h-12l-8 -4l-8 4l-28 -4l-88 12l-36 8q1 41 -4 68l4 16v12v12l-8 52v20q-4 37 0 64q-2 10 0 16v16l-4 12v12v80q30 0 48 -4zM830 548
q125 -117 36 -212q-17 -49 -60 -68q-31 -33 -72 -44q-1 20 -4 32q9 32 4 60q-2 42 4 68l-4 8v32v28q-7 69 8 120q56 -11 88 -24z" />
    <glyph glyph-name="percent" unicode="%" horiz-adv-x="1697" 
d="M764 1062h-16q-14 -7 -28 -8q-25 -9 -44 -12q-24 -12 -40 -16l-16 -4l-12 -4l-40 -4l-68 -12q-48 1 -84 -12q-12 12 -32 4q-4 6 -8 8q-44 9 -76 36h-28l-12 4h-12q-22 -7 -48 -4l-16 -8q-17 -22 -16 -48l-28 -12l-24 -16q-16 -30 -40 -44q-15 -26 -36 -40
q-54 -226 192 -272h48q22 8 40 8q200 108 88 344h16q23 7 44 8q41 8 68 8q50 19 92 16q91 40 176 28l-4 -8q-11 -60 -36 -100q-9 -53 -36 -88l4 -8l-16 -32q-17 -64 -52 -108q-21 -82 -64 -132l-4 -20q-17 -38 -32 -60q-9 -33 -28 -52l-4 -16l-24 -44l-16 -44l-12 -12
q-14 -45 -36 -72q-15 -40 -32 -64q-16 -56 -48 -88q8 -30 36 -44l20 12l4 16l8 16l4 20l8 8l36 72l12 20q8 24 16 40l16 36l12 20l8 20l8 12l4 8l8 24l8 12l8 8l4 12l32 60l12 24l8 24l8 20l16 16v12q32 57 44 100q18 26 28 48l8 16l8 16q9 32 24 52q7 27 16 44l4 16l4 12
l8 20l8 12l4 12l4 12l4 12l32 72q9 51 -8 92h-12q-38 7 -64 4zM380 882q14 -22 20 -40q16 -177 -148 -188q-175 12 -176 172q75 134 208 108l20 20q79 -1 76 -72zM900 434h-28l-60 -16q-130 -86 -180 -204q5 -16 12 -28q-6 -101 72 -148q354 -113 460 124q23 241 -268 280z
M1096 306q95 -167 -76 -232q-116 -45 -216 0q-85 2 -116 72q25 195 204 244q127 -4 204 -84z" />
    <glyph glyph-name="ampersand" unicode="&#x26;" horiz-adv-x="1706" 
d="M664 1272q-22 -7 -40 -4l-8 -12l-32 -16q-14 -13 -20 -24h-12l-8 -12l-12 -4l-4 -8q-8 -12 -12 -12q-4 -5 -8 -4q-13 -20 -28 -32l-8 -28h-12l8 -16l-4 -8v-28q-25 -119 4 -228l-4 -36l-8 -4l-12 -4l-4 -8l-28 -12q-24 -26 -48 -36l-44 -48l-12 -4q-27 -27 -56 -40
l-4 -12q-35 -26 -44 -56l-20 -8l-8 -12q-8 -16 -20 -24l-36 -52l-8 -16l-20 -24q-12 -42 -36 -68l-4 -12q-6 -47 -20 -76v-12q-15 -31 -16 -60q21 -167 164 -192q15 -14 32 -20l68 -4q95 -15 168 8q4 5 8 4q25 20 48 28l20 8q24 22 48 32q16 17 32 24l8 8q48 45 88 64
q16 20 36 28q29 40 72 52l4 -8l24 -16l8 -8l20 -24l12 -4q7 -4 8 -8l12 -4l24 -16l8 -4l4 -8q23 -9 36 -20q8 -2 8 -8q21 -5 32 -12q36 -18 64 -24l8 -8l56 -32q19 6 32 20q-1 21 -4 32l-32 12l-64 36q-138 47 -224 144l4 12l16 8l20 28l16 12q14 19 24 28l8 8l12 4l4 8
l24 16q12 20 28 28l4 12l12 8q17 31 40 48l8 8l12 12l8 12l12 4l4 8q4 7 8 8l12 4l4 8l8 8q25 14 40 32q-3 24 -16 40q-22 6 -44 0l-12 -16l-20 -8l-12 -16q-6 -9 -16 -12q-14 -26 -28 -40l-16 -8l-4 -12l-8 -4l-8 -8l-8 -4l-4 -8l-16 -24l-16 -20q-11 -9 -16 -16l-12 -8
l-12 -8l-8 -12l-12 -4q-2 -8 -8 -8l-4 -12l-24 -16l-4 -8l-48 -44l-8 4q-7 4 -8 8q-13 10 -20 24l-4 8q-52 39 -76 88l-8 4l-4 8l-4 8l-4 8q-49 56 -64 116l-4 16q-5 4 -4 8q-10 23 -12 40l-8 8l-32 100l12 12l20 12l8 12l16 8q34 39 68 56q5 6 12 8q15 21 36 28
q18 25 40 36q196 245 -56 312h-4h4h-8h4h-8h4h-8h4h-8h4h-8h4h-8h4h-4zM772 1116q-30 -91 -96 -136q-44 -59 -100 -84l-48 -44q-34 78 -16 152q0 23 -4 40l12 8q1 70 56 100q36 45 84 60q118 0 112 -96zM504 696l8 -4l8 -36q7 -7 8 -16l8 -16l4 -12l4 -8l4 -24
q26 -30 28 -64q26 -30 36 -56l12 -8l48 -60l8 -8l8 -8l8 -8l4 -12l8 -4l44 -52q-42 -51 -88 -72q-15 -18 -32 -24l-4 -8l-12 -4l-4 -8l-28 -16q-22 -23 -44 -32q-35 -30 -72 -40q-19 -21 -44 -20q-14 -12 -28 -16q-70 -4 -120 12q-130 -6 -184 96q-13 31 -12 60
q37 188 160 304q57 86 132 124q47 59 108 84q20 -21 24 -44z" />
    <glyph glyph-name="quotesingle" unicode="'" horiz-adv-x="668" 
d="M54 1098q24 -14 36 -28q45 -154 -56 -188l-4 -20l28 -8q104 44 88 140q7 110 -88 120z" />
    <glyph glyph-name="parenleft" unicode="(" horiz-adv-x="941" 
d="M308 1452l-4 -16q-24 -31 -44 -48l-4 -16q-4 -7 -8 -8l-28 -60l-20 -12v-12l-8 -4q-8 -30 -20 -48l-20 -32q-6 -26 -16 -40q-4 -19 -4 -32q-17 -45 -24 -76q5 -4 4 -8l-24 -32q-3 -30 -8 -48q-88 -207 -44 -408q-2 -61 16 -108v-28q6 -21 12 -32q0 -31 4 -48l4 -12
q19 -43 24 -72q12 -24 12 -48l8 -16l8 -8l4 -8l8 -24q5 -4 4 -8q21 -25 32 -52q21 -11 32 -24l8 -24l12 -8v-12l12 -8q22 -20 32 -40q51 -31 80 -60q39 -16 64 8l-4 28q-57 35 -84 80q-43 31 -60 72q-40 27 -56 64l-16 16l-12 40l-24 52l-12 28q-5 41 -20 72l-8 36v12
q-4 6 -4 12l-4 12v12l-4 8l-4 28l-4 24q-4 28 -4 52l-4 16v52l-4 16v16v16v12q0 20 4 32q-5 4 -4 8v8q7 38 4 64l12 32q19 89 48 144q5 43 20 72l4 16l16 48q1 10 4 16q23 54 32 88q6 4 8 8q18 36 36 52l24 68l8 4q14 26 32 40q7 15 16 24q15 35 -16 52z" />
    <glyph glyph-name="parenright" unicode=")" horiz-adv-x="842" 
d="M56 1328q43 -49 52 -100q194 -326 148 -668q15 -160 -48 -292q-34 -161 -128 -264q-6 -28 -16 -44q-21 -8 -32 -16q6 -19 0 -32q28 -17 56 -24l12 12q14 29 28 48l4 8q26 44 48 68q9 23 20 36q13 46 36 76l16 56l8 16l4 16l8 12v12l4 16l8 8v12q10 23 12 44l4 12l4 8
l16 64v68q10 48 0 88q7 40 4 68v44v16v12v16q-4 61 0 100q-12 17 -12 32l-4 8v16l-8 28v16q-10 24 -8 44q-16 22 -20 48v12l-8 4v16q-21 34 -28 64l-8 16q-7 4 -8 8q-11 23 -12 40l-8 4l-4 12l-8 8l-8 28l-8 8q-16 36 -32 56q-10 24 -12 44q-24 26 -32 56q-21 10 -36 8
q-20 -37 -4 -72z" />
    <glyph glyph-name="asterisk" unicode="*" horiz-adv-x="1306" 
d="M378 834l4 -152l-24 -4h-24l-16 8l-8 8l-24 20q-21 12 -36 28q-7 4 -8 8q-7 4 -8 8h-12l-8 16q-65 40 -100 80q-25 14 -48 8q-8 -22 0 -40q72 -40 112 -96q45 -20 72 -56l-16 -4l-64 4l-20 -4l-12 -4q-71 -2 -116 -12l-12 -16q5 -17 12 -28l20 -4l16 4h28q6 2 12 0l32 8
h56l12 4l16 -4q6 4 12 4l80 8l24 -20l-12 -12l-20 -36l-32 -32q-14 -40 -44 -60q-18 -48 -52 -76q0 -28 8 -48l28 8q10 20 12 32l32 36q8 17 20 28v12l12 12l12 12l4 8l16 24l8 8l4 8l36 40h12l8 -8v-16q10 -32 8 -56q8 -30 4 -52q15 -43 4 -80q5 -10 4 -20q15 -15 24 -28
q24 15 36 28l-4 12q-3 45 -12 76l-4 8l4 8v12q-11 37 -8 68q62 -20 100 -52q108 -36 168 -116q29 -8 52 4q8 28 -12 36l8 12l-8 4q-34 30 -68 40q-17 16 -24 28q-27 10 -44 20l-8 8l-12 8l-12 4l-44 28q-95 33 -104 80h12h16q40 2 68 8l32 -4q6 3 12 0l16 4q20 1 32 4
q23 3 40 8q64 2 108 20q-12 22 -4 40l-20 12l-28 -12q-44 -6 -72 -4q-69 -28 -132 -12q-37 -9 -68 -4q12 28 32 40q29 61 64 96q64 131 188 168q8 12 4 20l-24 20l-8 -4l-52 -12q-33 -34 -64 -48l-8 -12l-4 -8l-44 -48l-4 -12l-44 -68q-21 -38 -48 -56q-4 14 -4 28
q1 45 -4 72v12q3 42 12 68q3 38 24 64v24q-15 13 -28 12q-64 -101 -52 -208z" />
    <glyph glyph-name="plus" unicode="+" horiz-adv-x="1151" 
d="M404 1020l-16 -24q9 -33 12 -56l-8 -16q4 -23 0 -44l-4 -28q2 -45 -8 -80q9 -47 -8 -92l-8 -4h-12h-52l-60 -8l-16 4h-16l-16 4l-12 4l-88 20l-12 -24q5 -19 16 -32h12l12 -4q36 -16 64 -20h44h12h12h16h28h72q2 -37 -4 -64l4 -12v-56q6 -63 0 -104l-12 -16
q15 -17 20 -36q24 6 40 4l4 16v16v28q6 22 4 40q-4 6 -4 12q1 32 -4 56v28l-4 8q1 31 8 52l-4 28q34 15 64 12h12l20 -8q16 6 32 4l8 -4h16h12h12l52 -12h24q24 29 4 64l-16 4l-12 -4h-12l-16 4q-23 -1 -40 4q-37 -4 -64 4l-8 -4l-12 4q-37 -2 -64 4q5 61 0 100l4 12l4 32
l8 64l-4 12q14 54 4 100q-21 10 -36 8h-4h4h-4z" />
    <glyph glyph-name="comma" unicode="," horiz-adv-x="647" 
d="M44 92q76 -66 24 -156q127 55 36 176l-40 8q-16 -14 -20 -28z" />
    <glyph glyph-name="hyphen" unicode="-" horiz-adv-x="1213" 
d="M12 612l24 -4h24l24 -4l24 -4h12h52q19 -5 32 -4q20 -1 32 -4q35 1 60 -8q38 4 68 -12q24 -1 44 8q24 -6 44 -4l92 -16l8 4q66 -9 116 4q2 33 0 56l-20 4q-48 -12 -88 -8q-18 5 -32 0h-16l-8 4q-38 2 -64 8q-30 -1 -52 4h-20q-30 1 -52 8h-40l-20 4h-12h-12l-72 4l-8 4
q-4 -5 -8 -4h-12l-12 4q-54 -1 -96 12q-28 -27 -12 -56z" />
    <glyph glyph-name="hyphen" unicode="&#xad;" horiz-adv-x="1213" 
d="M12 612l24 -4h24l24 -4l24 -4h12h52q19 -5 32 -4q20 -1 32 -4q35 1 60 -8q38 4 68 -12q24 -1 44 8q24 -6 44 -4l92 -16l8 4q66 -9 116 4q2 33 0 56l-20 4q-48 -12 -88 -8q-18 5 -32 0h-16l-8 4q-38 2 -64 8q-30 -1 -52 4h-20q-30 1 -52 8h-40l-20 4h-12h-12l-72 4l-8 4
q-4 -5 -8 -4h-12l-12 4q-54 -1 -96 12q-28 -27 -12 -56z" />
    <glyph glyph-name="period" unicode="." horiz-adv-x="641" 
d="M26 12q30 -33 68 -20q41 32 4 92q-30 4 -48 4q-32 -32 -24 -76z" />
    <glyph glyph-name="slash" unicode="/" horiz-adv-x="1614" 
d="M1008 1186l-8 -12q-14 -20 -20 -32h-12v-12q-38 -30 -56 -60q-35 -24 -56 -44l-32 -48l-16 -8q-31 -36 -60 -52l-4 -16l-16 -8l-8 -16l-12 -4l-4 -12l-8 -12l-8 -4l-12 -8q-27 -40 -52 -60v-12l-20 -8q-4 -7 -8 -8l-40 -48q-20 -27 -44 -44q-26 -38 -52 -56
q-14 -13 -20 -24l-12 -28l-24 -16q-15 -24 -32 -36q-26 -44 -52 -68l-20 -20l-8 -4l-4 -8l-32 -44l-16 -24q-30 -25 -44 -44l-12 -12q-7 -9 -16 -12q-8 -22 -24 -32q-8 -16 -20 -24q-14 -34 -40 -52q-27 -57 -68 -88q-20 -48 -8 -68q24 -7 36 8l24 8l-8 12q20 21 28 40l16 8
l4 16l12 8l8 12l4 8l8 8q4 7 8 8l4 12l8 4l4 12l8 4l4 8l32 40l20 -4q-2 14 0 28l8 8l8 12l12 8l4 8l8 8l8 4q22 36 44 56q14 24 32 36l8 16q18 21 32 32l4 12l8 8l8 16l8 4q4 7 8 8l4 8q22 23 32 40l16 20l4 8l12 4l4 8l4 8l8 4q4 5 8 4q14 21 28 32l20 24q30 47 64 72
l16 24q14 18 28 28l8 12l8 8l8 8l8 8q10 13 24 20q18 35 44 52l12 16l8 4q28 37 60 56q17 28 36 44l16 12q14 22 32 36l12 16l12 8l8 16l12 4l8 12q4 7 8 8l8 8l8 8q22 37 48 60q16 43 -32 44z" />
    <glyph glyph-name="zero" unicode="0" horiz-adv-x="1631" 
d="M512 1238q-37 -13 -64 -16l-12 -12q-36 -24 -68 -32q-25 -29 -52 -40q-31 -36 -64 -52q-19 -34 -36 -52l-8 -12l-12 -12l-12 -12l-8 -16l-12 -16l-8 -8l-12 -16q-4 -7 -8 -8l-8 -16l-24 -32l-4 -12l-8 -8q-22 -43 -44 -68l-4 -28q-18 -38 -24 -68v-28q-4 -19 -4 -32
l-12 -32v-44l-4 -8q0 -26 -4 -44q5 -23 0 -40q13 -46 8 -92l8 -16l4 -16q14 -23 16 -48l12 -4v-32q16 -20 12 -40q23 -23 28 -52l16 -8l8 -8l4 -12l8 -4l8 -8l8 -12q41 -22 64 -48h16l8 -8q26 -7 44 -8l8 -8l36 -8l32 -8l12 -4l76 -20q31 -10 64 -8q257 -43 436 156l8 16
l8 20l8 12q9 20 16 32v12l4 12l4 8l8 8l4 12l4 12l8 8l4 16l8 4q9 38 20 64v12q-2 46 16 80v12q1 20 8 32v48l12 20q-6 21 0 36q-21 64 4 120q-17 37 -16 72q-9 12 -12 24q-12 21 -12 40q-31 39 -44 76q-33 40 -44 84q-188 182 -404 196zM788 1090q119 -49 148 -164l8 -4
l4 -12q21 -24 32 -44v-12l32 -80v-32q-1 -38 -8 -64v-64q-1 -29 -8 -52l4 -28l-12 -16q-1 -119 -56 -208l-4 -32q-26 -34 -32 -68q-117 -132 -272 -144q-4 -5 -8 -4h-32h-80l-12 4q-21 0 -32 4q-23 6 -40 8l-8 8q-67 9 -112 32l-48 12l-72 36q-122 167 -124 352v20l4 12
l4 20l4 16q11 43 8 72l12 24v16q12 40 12 68q12 22 24 32q19 45 48 72v16l36 40q126 200 332 264q150 -13 248 -100zM1018 1176l-8 -12q-14 -20 -20 -32h-12v-12q-38 -30 -56 -60q-35 -24 -56 -44l-32 -48l-16 -8q-31 -36 -60 -52l-4 -16l-16 -8l-8 -16l-12 -4l-4 -12
l-8 -12l-8 -4l-12 -8q-27 -40 -52 -60v-12l-20 -8q-4 -7 -8 -8l-40 -48q-20 -27 -44 -44q-26 -38 -52 -56q-14 -13 -20 -24l-12 -28l-24 -16q-15 -24 -32 -36q-26 -44 -52 -68l-20 -20l-8 -4l-4 -8l-32 -44l-16 -24q-30 -25 -44 -44l-12 -12q-7 -9 -16 -12q-8 -22 -24 -32
q-8 -16 -20 -24q-14 -34 -40 -52q-27 -57 -68 -88q-20 -48 -8 -68q24 -7 36 8l24 8l-8 12q20 21 28 40l16 8l4 16l12 8l8 12l4 8l8 8q4 7 8 8l4 12l8 4l4 12l8 4l4 8l32 40l20 -4q-2 14 0 28l8 8l8 12l12 8l4 8l8 8l8 4q22 36 44 56q14 24 32 36l8 16q18 21 32 32l4 12l8 8
l8 16l8 4q4 7 8 8l4 8q22 23 32 40l16 20l4 8l12 4l4 8l4 8l8 4q4 5 8 4q14 21 28 32l20 24q30 47 64 72l16 24q14 18 28 28l8 12l8 8l8 8l8 8q10 13 24 20q18 35 44 52l12 16l8 4q28 37 60 56q17 28 36 44l16 12q14 22 32 36l12 16l12 8l8 16l12 4l8 12q4 7 8 8l8 8l8 8
q22 37 48 60q16 43 -32 44z" />
    <glyph glyph-name="one" unicode="1" horiz-adv-x="634" 
d="M70 1170v-12l4 -32q6 -15 4 -32q2 -40 8 -68q0 -26 -4 -44l4 -28l-4 -8v-32l4 -8l-4 -12q0 -37 -4 -64q-6 -23 0 -40l-4 -20l4 -16q-11 -37 -8 -68q-8 -41 0 -72l-4 -12v-44q12 -33 8 -64l-4 -8v-16l-4 -28l-8 -72v-24l4 -16v-24l-4 -16l4 -16q1 -23 -4 -40q3 -19 8 -32
l-4 -16l4 -12q-2 -32 4 -56l-4 -12q4 -27 0 -48q2 -50 32 -72q26 7 40 28l-4 12l4 48l-4 12l4 12l-8 12v12l-4 32l-4 80q4 45 0 76v28v28v24l4 24q-3 10 0 16q3 20 0 32l4 8v32v80l-4 24l8 68l-4 8q4 43 0 72v16v16v16l4 16v16q0 31 4 52q-1 24 4 44v52v20l-4 8l4 12l-4 12
v12l-4 80q-3 55 -40 64z" />
    <glyph glyph-name="two" unicode="2" horiz-adv-x="1562" 
d="M418 1202h-16q-24 -15 -48 -16l-28 -16l-12 -8q-45 -9 -76 -32l-8 4l-8 -12l-28 -12q-20 -22 -40 -32q-18 -30 -44 -44v-12q-34 -51 -40 -104l20 -20l32 8q5 23 0 40q85 153 244 184q80 41 160 16q97 4 148 -68q23 -81 -16 -144l-4 -32l-12 -8q-8 -21 -8 -36l-8 -8
q-21 -37 -44 -56q-13 -35 -36 -52l-4 -12l-4 -12l-12 -12q-5 -6 -12 -8q-23 -55 -64 -88q-21 -38 -48 -56q-11 -28 -32 -40l-4 -12q-14 -18 -28 -28l-16 -24q-13 -19 -28 -28q-22 -41 -52 -64l-16 -36l-16 -12q-27 -38 -60 -56q-25 -39 -56 -60q-30 -54 -76 -80
q-25 -30 -28 -60q7 -4 8 -8l12 -4l16 -4l28 -12q37 -2 64 -12h20l12 -4l24 -4q62 6 104 -4l24 -4l16 4h44h24l12 4h12q23 1 40 -4q6 4 12 4h12h48h12h44l16 4q31 -2 56 4q53 -1 88 4l16 -4l32 4h12q30 8 48 8l16 -4l8 4h16h12l80 -8q17 12 24 28q-9 32 -32 48l-28 -12l-16 4
h-12h-12h-16h-12h-12l-12 -4q-30 5 -52 4q-56 -16 -108 -8l-16 -4h-32h-12q-55 -13 -88 -16l-8 4h-100h-48h-12h-16q-44 -5 -76 0l-12 4l-20 -4l-16 8l-8 -4h-16h-32l-8 4h-28h-8q-20 4 -36 4l-8 12l68 84l8 8l20 20q20 26 40 40l12 16l20 20q16 28 36 44l4 8l20 20
q18 35 40 56l16 12l8 16q22 21 32 36q10 25 28 40l16 20l8 4q14 27 32 40l8 8l4 8l8 8l52 60l8 12l24 44l8 8l8 12q4 7 8 8q9 23 20 36l4 8q23 45 48 68q11 64 44 112l-4 8l12 76q-31 92 -104 136q-38 12 -64 16q-19 4 -32 4h-12h-12q-15 5 -32 4q-38 5 -64 4z" />
    <glyph glyph-name="three" unicode="3" horiz-adv-x="1318" 
d="M22 1106l12 -4l32 -8q49 -10 80 -12h12l16 -4l12 4l8 4q42 -2 72 4l16 -4l12 4h12h20l8 -4q20 2 32 0h80l12 -4l40 -8l32 -4l8 -4h12l8 -4h12l60 -8l-16 -24l-16 -20l-20 -12l-4 -12q-20 -13 -32 -24q-4 -7 -8 -8l-12 -8l-24 -16q-31 -43 -72 -64l-4 -8l-8 -4
q-21 -26 -44 -40q-11 -22 -24 -36l-16 -12l-12 -12l-12 -8l-24 -20l-12 -4q-26 -30 -44 -44q-18 -12 -32 -16l-12 -12q-6 -4 -8 -8l-12 -4q-16 -15 -28 -24l-8 -8l-8 -4q-28 -18 -44 -32l-8 -32q36 -16 64 -16q644 143 588 -272q-70 -169 -240 -180l-28 -16l-16 4h-16h-12
h-16q-20 -5 -32 0l-8 -4l-88 4l-16 4q-32 12 -56 16l-4 8l-28 12h-12q-39 26 -76 32l-20 24q-28 -10 -32 -40q13 -10 20 -24l32 -8q228 -141 460 -64l28 8l28 8h12q6 4 12 4l8 8q52 17 84 40q86 131 84 264q-20 161 -160 240h-12q-30 11 -56 8l-12 8h-16h-16q-24 1 -44 -4
l-36 8h-52l-56 -4q-23 -1 -40 -4q-46 -8 -80 -8q4 6 8 8l8 8l52 40q36 23 56 44l8 8l8 8q25 18 40 32l12 16l16 20l16 12l16 12l8 12l16 16l20 12l12 16l16 8q18 21 36 28l8 12q20 20 36 28l4 8l12 4l4 8l8 8q11 12 24 20l4 8l8 4q21 26 44 40q21 36 16 68l-28 12l-12 -4
l-16 4q-24 -6 -44 -4h-28l-16 4l-16 8h-16q-23 0 -40 8l-8 -4h-16q-36 14 -64 12q-54 -5 -92 8h-16l-8 -4q-54 1 -92 -8l-28 8l-28 -4l-32 4h-28q-26 12 -52 12q-28 -20 -20 -48z" />
    <glyph glyph-name="four" unicode="4" horiz-adv-x="1474" 
d="M690 1240l4 -20l8 -72q-5 -37 0 -64q-2 -31 -8 -52l8 -20v-16q-1 -23 0 -40v-68q2 -38 8 -64q-13 -94 4 -160q-19 -4 -32 0h-48l-16 -4l-20 4l-12 -4l-52 8q-10 -2 -16 0l-12 -4h-12q-24 -4 -44 0l-8 -4l-12 4h-72h-16l-64 4h-12q-24 7 -44 8l-16 4h-16q-55 11 -88 12
l-36 20v16l8 12l8 8q4 7 8 8q21 56 40 88q27 63 52 100q12 51 28 84q22 98 80 160q1 24 -12 40l-24 4q-4 -7 -8 -8l-8 -8l-4 -8q-15 -17 -24 -32v-12q-21 -26 -28 -52l-4 -12q-13 -39 -28 -64q-8 -46 -32 -80q-11 -30 -24 -48q-10 -37 -28 -60q-19 -59 -56 -96
q-10 -23 -12 -48l12 -20q19 -6 24 -24q10 -1 16 -4q25 -9 44 -12l12 -4l12 -4q20 0 32 -4q37 -2 64 -12q47 0 80 -8l24 4l12 -4h12q37 2 64 -4l16 4q30 -7 52 -4l16 4h16l16 -4l12 4l16 -4q14 4 32 4l12 -4q19 3 32 0q48 5 84 -4l4 -24l4 -16v-40q-6 -20 -4 -36
q0 -31 -4 -52q2 -23 0 -40q-3 -34 -12 -56q2 -20 0 -32l4 -80q-37 -266 56 -236v20l4 124l-4 68v12q4 40 0 68v12l4 8l4 40l4 16v44q0 26 4 44v16v68v12v48h12l28 -4q23 5 40 0q22 -3 40 4l20 -4q4 7 8 8q-2 11 -12 12q7 35 -24 48q-63 -15 -116 0l-8 80v24v24l-4 24
q5 36 0 64l-4 56q6 31 4 52q-4 11 -4 20q1 23 -4 40l4 20l-4 16v16v48v68q-6 21 -4 36l-16 16h-20z" />
    <glyph glyph-name="five" unicode="5" horiz-adv-x="1327" 
d="M626 1268q-20 -6 -32 -12h-12h-16h-12h-28h-16q-43 -10 -72 -8q-30 -12 -52 -12l-16 -4q-31 0 -52 -8l-12 4q-23 -8 -40 -8l-12 -4h-12q-24 -6 -44 -4q-43 -20 -84 -20q-17 -13 -28 -24v-20l-4 -56q-6 -16 -4 -32q4 -37 -4 -64q2 -33 0 -56v-40q0 -55 4 -92q5 -32 4 -56
q-18 -92 0 -164l44 -8q105 38 196 24q67 11 120 -8q96 6 172 -32l12 -20q50 -43 68 -96l8 -8l4 -12q15 -24 16 -48l8 -4q21 -225 -180 -272l-8 -8q-21 -5 -32 -12q-31 -7 -48 -16h-12q-37 -11 -64 -12l-16 4l-12 -4h-16h-16h-16h-16q-32 -2 -56 4q-6 -3 -12 0h-12h-16l-12 4
q-21 0 -32 4q-45 -4 -80 8q-31 -4 -52 -12q-1 -29 20 -44h24l16 -4h24q33 -8 56 -8h16q32 -7 56 -4l12 -4q32 0 56 -8q48 10 88 0l16 4l68 12l20 4l8 8h12l12 4l8 4l12 4q4 5 8 4l32 8q37 15 60 20l24 16l56 48l12 28l8 8l4 16l8 12l4 12q21 36 32 64l4 28v24
q-29 191 -164 304q-37 7 -60 24q-40 0 -68 8q-59 9 -104 0l-12 8h-16h-52l-32 4q-38 -7 -64 -4l-28 -4q-32 -11 -60 -8v20v20l-4 20l4 20v20v52v12q-6 53 0 92l-8 56l4 56v12l4 28v12l4 12q-2 32 4 56l12 4l32 8l32 8q29 9 48 12h20q45 14 80 12l12 4q23 6 40 0q32 12 56 12
l16 4h20h20q6 4 12 4h12l20 4l12 4h12h32l64 8q10 23 0 44q-30 4 -48 4q-13 -4 -24 -4z" />
    <glyph glyph-name="six" unicode="6" horiz-adv-x="1380" 
d="M296 1132q-22 -31 -48 -48q-317 -391 -196 -812q-5 -33 0 -56l32 -12l8 -8l4 -12l12 -8l8 -12q7 -4 8 -8l60 -52q241 -185 432 -92q23 2 40 8l12 4l8 8l12 8l12 12q40 12 64 40l20 12l16 40l8 12l4 12l8 12q4 37 20 64q1 23 8 40q4 234 -196 272l-8 8l-16 4h-12l-12 4
q-29 0 -52 8h-16l-16 -8h-16l-8 -4l-64 -12q-58 -31 -108 -36q-31 -32 -64 -40l-20 -16l-8 -12l-32 -24q-47 -69 -100 -104q-66 263 44 476q37 124 116 204l16 28l8 4q23 32 40 48l8 4l24 8q19 50 -32 48zM760 440q60 -122 4 -224q-39 -116 -148 -140q-162 -79 -296 20
q-127 50 -188 156v4v-4v4q157 227 404 260q141 7 224 -76z" />
    <glyph glyph-name="seven" unicode="7" horiz-adv-x="1493" 
d="M832 1260l-20 4l-12 -4q-32 2 -56 0l-16 4l-28 4h-48l-24 4h-12q-47 -13 -84 -8q-6 -4 -12 -4l-8 -4h-20l-12 4q-6 -4 -12 -4h-28l-40 -4q-54 9 -88 8q-24 -4 -44 0l-32 -8l-16 4q-59 -15 -108 -4q-13 -2 -24 0q-29 -5 -52 0q-50 -62 68 -56h16h16h12l16 4q61 -1 100 8
h56h20h12l12 -4h20h16q41 -1 68 4q21 -5 36 -4h40l28 4l68 4l8 4l16 -4h28l44 -8h12h12h16h12q47 -1 80 4l20 -12l-4 -12q-9 -7 -12 -16l-4 -16l-8 -8l-12 -28q-23 -28 -32 -52l-12 -24l-16 -20l-12 -28q-9 -32 -20 -52l-8 -20l-8 -12l-8 -20l-8 -12l-4 -12l-4 -12l-8 -8
l-36 -72l-16 -28l-4 -12q-17 -27 -24 -44l-4 -16l-4 -8l-24 -48l-8 -12l-4 -8l-20 -44l-4 -8l-20 -24q-10 -34 -24 -56l-12 -8q-5 -30 -20 -52l-8 -20l-4 -16l-8 -20l-4 -12l-20 -44l-8 -24l-8 -16l-8 -16l-8 -16q-15 -29 -20 -52l-4 -8l-20 -32q-9 -31 -24 -52
q-1 -35 -12 -60l24 -24l24 8q5 17 12 28q19 25 28 44q7 37 20 60l16 52l12 16q8 24 20 44q19 72 48 116l4 16l8 16l8 16l8 12l4 16l12 12l8 24l8 12l8 8q15 43 36 68q5 22 16 40l8 12q12 39 28 64l4 12l4 12l4 12l24 44v12q35 47 52 80q7 27 16 44l4 12l8 16l16 28
q16 48 32 76l8 8q13 36 32 56l4 12l68 116q-10 73 -92 60q-22 -12 -40 -16z" />
    <glyph glyph-name="eight" unicode="8" horiz-adv-x="1490" 
d="M460 1210q-304 -45 -412 -288q-92 -226 140 -352l-8 -4q-20 -12 -36 -16q-13 -8 -28 -12q-19 -26 -44 -32l-4 -20l-20 -12l-20 -44l-8 -32q-12 -30 -16 -52q4 -29 -4 -52q4 -6 4 -12v-12l8 -32l12 -48l8 -4l12 -28q20 -16 28 -36q245 -171 512 -120q22 -3 44 0
q206 64 312 224l-4 32v16q-13 39 -12 68v12q-21 25 -16 52l-12 8l-36 52q-33 14 -52 28l-12 4h-16l-8 8q-30 7 -48 16l-12 4h-12l-16 4l-68 16q284 114 272 348q-22 175 -184 224q-74 71 -168 68q-34 20 -64 24h-4h4h-8h4h-8h4h-4zM664 1074q191 -70 176 -260
q-52 -113 -152 -156q-7 -12 -16 -20q-21 -8 -32 -16l-16 -4h-16l-12 -4l-12 -4l-16 -4l-12 -4l-28 -4q-51 3 -88 -8l-20 8q-268 -12 -328 172q-18 57 -8 108q113 250 392 276q120 -1 188 -80zM380 534h12h12l40 -12l28 -4q61 -6 104 -28h12l12 -4h12l12 -4q52 -2 88 -20
q29 -3 48 -12l4 -16q37 1 64 -20q14 -29 28 -48q56 -143 -56 -204q-107 -102 -244 -100q-148 -33 -268 20q-178 22 -220 180q-42 244 224 272l4 -16q23 18 52 20z" />
    <glyph glyph-name="nine" unicode="9" horiz-adv-x="1406" 
d="M364 1178l-12 -4h-12q-44 -21 -80 -24l-12 -12l-12 -4l-12 -4l-12 -12l-12 -8l-16 -4q-22 -26 -48 -36q-24 -33 -52 -48l-4 -12l-4 -12q-14 -15 -20 -32l-8 -8q-12 -39 -28 -60q2 -62 -4 -100l8 -8l4 -12l8 -8l4 -12l40 -60q44 -21 68 -44h12l12 -4l8 -4l32 -8l28 -8h12
l32 -4q38 -7 64 -8h44l12 -4q32 4 56 0q6 3 12 0h16q6 4 12 4h12l8 4h12q28 5 48 4q20 10 36 8l12 8l12 8l44 12q4 5 8 4q41 30 76 40q5 -39 0 -68l-4 -24q3 -32 0 -56l4 -20q1 -38 -8 -88l4 -16l-4 -12l4 -12q-11 -65 -8 -108q-4 -7 -8 -8q6 -40 0 -68v-16q0 -23 -4 -40
v-28l-16 -124l44 -24l24 20q4 19 4 32l-4 8q7 43 0 72l8 28l8 80l-4 12l4 12q-4 19 0 32v16v68l8 28q-1 19 4 32v28q-11 70 8 128q-18 88 8 160v12q21 22 28 44q1 31 -12 52v16q2 30 0 48l8 28v12v12l4 12v16l4 100q1 22 -4 40q-23 9 -44 8l-12 -20l4 -8l4 -28q-3 -53 4 -88
l-8 -12l-4 -20v-28l-4 -40q-6 -24 0 -44q-19 -45 -16 -84q-28 -17 -52 -20q-19 -19 -40 -20q-90 -57 -188 -52q-42 -11 -76 -4q-71 -14 -128 4q-126 0 -204 76l-4 12q-16 27 -24 48l4 68q117 240 372 240q225 15 316 -96h24q5 29 0 52q-7 4 -8 8q-8 2 -8 8l-12 4l-8 8l-8 8
l-8 4q-30 16 -48 32h-16l-8 4l-12 4h-12q-15 5 -32 4l-8 4q-21 0 -32 4q-28 6 -48 4l-12 4h-12h-80q-32 -9 -56 -8z" />
    <glyph glyph-name="colon" unicode=":" horiz-adv-x="611" 
d="M82 754q69 8 40 72h-24q-26 -37 -16 -72zM118 406q38 25 12 64l8 12l-28 12q-58 -50 8 -88z" />
    <glyph glyph-name="semicolon" unicode=";" horiz-adv-x="660" 
d="M72 842q26 -58 56 -12q11 38 -24 48q-25 -16 -32 -36zM76 486q101 -97 36 -204q5 -16 16 -16q112 141 -8 260h-24q-17 -20 -20 -40z" />
    <glyph glyph-name="semicolon" unicode="&#x37e;" horiz-adv-x="660" 
d="M72 842q26 -58 56 -12q11 38 -24 48q-25 -16 -32 -36zM76 486q101 -97 36 -204q5 -16 16 -16q112 141 -8 260h-24q-17 -20 -20 -40z" />
    <glyph glyph-name="less" unicode="&#x3c;" horiz-adv-x="1206" 
d="M438 926q-29 -24 -56 -32l-8 -8l-24 -8q-4 -5 -8 -4q-4 -7 -8 -8l-8 -8l-12 -4l-8 -8h-12l-12 -4q-21 -21 -44 -28l-12 -12l-16 -8q-17 -14 -32 -20q-16 -15 -32 -20q-21 -26 -44 -32q-4 -5 -8 -4q-32 -34 -64 -48q-10 -20 -12 -36l20 -24l28 -8q86 -23 140 -60l20 -8
l16 -8l16 -8l12 -4l12 -4l20 -8l8 -8h12l100 -44q18 -9 32 -12l8 -4q106 -26 172 -76q22 3 40 12l-4 16q6 24 0 44l-48 8l-8 4q-52 24 -92 28l-20 12l-20 4l-16 12h-12l-100 44q-25 2 -40 12l-16 8q-19 10 -32 20h-16l-16 8l-12 8l-12 4l-8 8l-12 4l-84 40l8 8l8 4
q29 32 60 44q45 45 88 60q35 30 72 40l4 8l12 4q4 5 8 4l4 8l28 12q62 43 124 56q11 44 -28 52q-30 -22 -56 -28z" />
    <glyph glyph-name="equal" unicode="=" horiz-adv-x="1251" 
d="M594 862h-32l-8 -8l-16 4q-27 -6 -48 0q-23 -5 -44 0q-62 -13 -104 -8q-39 -8 -68 -4l-16 -4l-16 4q-6 -4 -12 -4l-68 4h-40h-12h-32q-38 7 -64 8l-24 -28q4 -19 16 -32l68 -4l16 4l8 -4l64 4h12h52h52h20h16l16 4h12h12h52h12l44 8l20 -8l8 4h24h12h12h32q37 1 64 -4
q4 5 8 4q29 5 48 12q8 55 -40 52q-31 -8 -56 -4zM602 602h-24q-37 -6 -64 0q-11 -4 -20 -4l-20 -8l-52 4q-39 -12 -76 -8l-16 -4h-32q-37 -7 -64 -4q-6 -4 -12 -4q-22 -3 -40 0h-12q-16 -8 -32 -4h-32q-46 -8 -80 0q-25 -30 -4 -56l28 -4h12h68h24l68 4l64 4h20q11 4 20 4
h12h12q62 8 100 4l8 4h12h20q36 7 64 4q60 11 104 4q25 23 32 48q-23 13 -36 32q-25 -16 -52 -16z" />
    <glyph glyph-name="greater" unicode="&#x3e;" horiz-adv-x="1126" 
d="M-38 812l20 -8l20 -4l20 -4l24 -4l88 -32l20 -4l24 -8l20 -8l56 -16l20 -8l12 -8h12l16 -4l12 -4l12 -8l28 -12l8 -4l64 -20q-4 -6 -8 -8q-14 -19 -24 -28l-24 -8l-8 -12l-16 -8l-12 -8q-5 -6 -12 -8q-27 -27 -56 -40q-4 -7 -8 -8q-28 -23 -52 -32l-32 -36
q-41 -16 -64 -44h-20q-8 -53 -44 -68q8 -20 8 -36l32 -8q4 5 8 4q46 77 112 116l20 20q4 7 8 8l12 4l4 8l12 8l8 4q27 21 48 32l4 8l8 8l16 4q41 41 84 56q46 37 92 52q-8 29 4 48q-13 7 -24 8l-24 8q-28 7 -48 16q-37 3 -64 20l-24 8q-10 7 -20 8l-24 8l-24 4l-12 8l-68 16
l-12 12h-20q-30 18 -56 24l-12 4l-12 4l-16 4l-32 8l-60 20q-30 -21 -24 -52z" />
    <glyph glyph-name="question" unicode="?" horiz-adv-x="1262" 
d="M328 1166l-16 -16q-196 -69 -292 -228l4 -8q2 -19 0 -32q10 -25 12 -44l28 -12q3 17 16 16l-4 16q-10 23 -12 40q67 138 200 180q86 60 176 40q115 6 188 -64q67 -135 32 -268l-8 -8l-4 -12l-36 -60l-16 -12l-4 -8l-24 -20q-25 -33 -52 -48q-17 -24 -40 -32q-4 -7 -8 -8
q-44 -48 -80 -72l-8 -12q-23 -28 -48 -40q-18 -42 -44 -64q-28 -78 36 -136q38 4 56 32q-67 50 12 148l16 12l8 4l8 12l8 12q41 24 64 56q44 39 76 56l12 12q19 30 44 44q4 7 8 8q24 33 44 48q15 54 44 88l8 32v12q0 20 -4 32q7 44 0 80q-13 133 -116 200l-68 12l-16 8
l-12 -4q-23 1 -40 8q-46 2 -80 12q-38 -13 -68 -12zM360 66v-28q54 -45 68 32q-21 17 -44 16q-10 -13 -24 -20z" />
    <glyph glyph-name="at" unicode="@" horiz-adv-x="1726" 
d="M658 1142h-32l-28 -4l-16 -4l-16 -4h-16l-12 -4l-16 -4l-16 -4h-12q-61 -24 -100 -32q-360 -224 -380 -612q77 -236 356 -276q266 -90 428 56q-7 12 -20 12q-130 -75 -264 -40h-32q-38 10 -64 12q-290 46 -352 256v40l4 16q3 22 12 40v12l4 20q7 22 16 36q4 36 24 56v28
l24 16q35 100 108 160q110 137 268 156q124 42 240 12q244 -34 336 -232q91 -206 -52 -352q-97 -56 -188 -32q-97 27 -48 144q-9 63 16 112q-1 23 -16 40q-30 -10 -48 -20v-32l-20 -16q-96 -229 -320 -204q-18 14 -24 28q-6 15 -4 32q72 161 200 252q153 38 272 -36
q14 18 20 32q-268 173 -456 -108q-198 -234 48 -260q175 54 272 184q-34 -302 292 -168q218 176 108 420v12l-8 8l-4 12q-4 6 -4 12q-21 19 -28 40q-33 28 -48 60l-28 16l-12 8l-12 4l-8 8l-8 4q-15 9 -24 20q-25 9 -40 24h-16l-44 12l-36 12h-16l-12 8h-20l-16 4l-12 4h-12
q-19 1 -32 0l-48 8q-4 -5 -8 -4z" />
    <glyph glyph-name="A" unicode="A" horiz-adv-x="2042" 
d="M746 1186l-8 -8l-4 -16l-8 -8q-17 -33 -40 -52q-16 -38 -36 -60l-8 -12l-56 -100l-12 -24l-16 -24l-12 -24l-16 -28l-4 -8l-8 -12l-8 -4q-8 -29 -28 -40v-12l-12 -24q-35 -49 -52 -84l-16 -16l-8 -20l-12 -20l-12 -16l-16 -24l-16 -16q-17 -38 -44 -56q-6 -29 -20 -48
l-4 -8q-14 -17 -20 -32q-11 -18 -24 -28q-10 -21 -24 -32v-12q-18 -25 -36 -40l-4 -20l-12 4q-47 -13 -84 -8q-47 -12 -84 -8l-24 -16l8 -36h12q20 4 32 0q55 11 100 0q-15 -28 -36 -44l-4 -8l-4 -12l-4 -16l-8 -12l-16 -24l-24 -52l20 -20l24 4l16 28q24 58 60 92l4 8l4 12
l12 4q13 33 36 52l28 8h32l64 12h32l8 -4q47 12 92 4l28 8q20 -4 36 -4l88 4l24 -4l12 4h44l16 4l8 4q42 5 68 4l24 8l52 -4h20h24h20h12h20h16q23 5 40 4h24l12 4h16l12 -4h12q62 8 100 4l8 -20l8 -12q15 -24 20 -44l12 -8l4 -16q6 -11 8 -20q30 -35 36 -72q24 -22 32 -48
l36 -8q21 28 28 52q-21 22 -28 40l-8 12l-4 12l-12 28q-15 22 -20 40q-31 33 -36 72l32 -4h16l12 4h12h16l12 8l12 -4l68 12q5 21 12 36q-15 18 -32 24q-21 -2 -36 -12l-36 4l-12 -4l-12 4q-62 -14 -108 -8l-4 12q-19 24 -24 48q-26 30 -32 60l-8 12l-12 20l-8 8
q-26 53 -48 84l-8 20l-40 88q-7 4 -8 8v16l-8 12l-4 12l-4 16l-8 12l-4 16l-36 88q-26 38 -32 72l-8 8l-4 16l-8 8l-4 12l-8 8v12l-20 20v16q-5 4 -4 8l-8 8l-4 8l-8 24l-4 12l-4 8q-22 45 -28 80q-17 38 -52 40q-13 -17 -16 -32zM778 1066l8 -12l4 -16q15 -23 20 -44l4 -12
q7 -4 8 -8l32 -60q19 -55 44 -88q9 -32 20 -52l4 -16q12 -15 12 -32q5 -4 4 -8q22 -45 28 -76q7 -7 8 -16l4 -16l8 -8l4 -16q16 -22 20 -44q20 -24 28 -48l8 -8l16 -24l4 -16l16 -24q24 -31 32 -60q15 -21 20 -40l-36 -4l-16 4q-47 -12 -88 -8h-24h-28l-24 -4l-28 4
q-25 -6 -44 0l-24 -4l-24 4h-12q-38 -14 -76 -12l-68 -4l-24 -4l-12 4l-12 -4q-37 6 -68 0q-36 3 -60 -4h-20h-16q-24 -6 -44 -4h-16h-52q-41 -15 -76 -12q24 54 52 84q15 27 28 44q22 43 44 68l12 16l4 12l8 8q4 7 8 8q15 30 28 48q34 58 64 88l4 20l12 20l8 20l48 68l8 16
l8 16l12 12q12 29 24 44q28 77 72 120l4 12l8 8l4 12l8 8l4 8l4 8l4 8l40 60q16 -22 16 -44z" />
    <glyph glyph-name="B" unicode="B" horiz-adv-x="1783" 
d="M514 1166h-16l-76 -12l-12 4h-16h-16q-6 -4 -12 -4h-16q-37 -9 -64 -8l-4 -8l-92 -20q-9 36 -44 28q-13 -27 -16 -48l-16 -4l-32 -4q-52 -21 -96 -20q-3 -19 0 -32l16 -4q72 19 120 20l8 -100q2 -15 0 -28q8 -55 4 -92l8 -8q-6 -16 -4 -32q7 -47 0 -80q6 -13 8 -24
l-4 -28q9 -37 -4 -68v-12q12 -21 12 -40l-4 -8q7 -32 4 -60v-16q-4 -40 0 -68v-52l-8 -56v-12q3 -6 0 -12l4 -8v-88q2 -40 -24 -56q-67 26 -104 -20l20 -36h12l8 -4l72 -8l4 -12q-3 -32 4 -56q40 -4 68 8q-8 33 -8 56q10 -1 16 0l16 -4h12h12h16q15 -5 32 -4l32 -8
q27 -10 48 -12q36 13 68 12l92 -16l12 8q26 -5 44 -4l12 4l8 -4h12h32h28q4 5 8 4q43 8 72 20l12 -4l16 4l16 4q26 4 44 12h16q6 4 12 4q6 4 12 4h20q15 6 28 8l24 4q16 11 32 12l28 12q34 29 72 36q21 28 48 40q12 16 24 24q46 89 44 180v4v-4v8v-4v4q-65 258 -356 280l8 8
q34 21 60 28l8 8l12 4q34 39 68 56q23 90 -4 160l-4 28q-9 12 -12 24q-193 204 -468 196zM518 1122q364 -6 452 -264q-3 -53 -24 -92q-31 -25 -64 -32q-141 -97 -296 -88q-4 -7 -8 -8h-16q-30 -1 -52 4q-27 -6 -48 -4q-6 -4 -12 -4h-12l-8 -4l-24 4l-48 -8q-40 -4 -68 4
q-49 -19 -88 -4v16l-4 32v44q-10 46 -4 80v20l-4 16l-4 28v44v16l-4 12v28q-6 53 -4 88q-1 12 4 24h16q28 16 52 16l28 12l8 -4q23 10 44 12h44h16h12l20 4h12q44 6 76 0zM1150 382q3 -79 -24 -140l-4 -24l-8 -8q-43 -42 -88 -56l-12 -20h-12q-37 -18 -72 -20l-52 -16
l-16 -4l-68 -12l-32 -4l-100 -20l-16 4l-20 4l-12 -4l-16 4q-54 -3 -92 4l-20 -8l-20 8h-16q-30 -4 -52 0h-20l-12 4h-24l-12 8h-44l-12 4l-8 4q-43 -2 -72 4v24l4 64v68l8 24l-4 16v16v24v52v56v12l4 16l-4 8l4 84h12q31 4 56 0l8 4h52h16h12q6 4 12 4h12h16q6 4 12 4h12
q42 0 68 4q21 -4 36 0l20 4l24 4l40 8h16h20l12 4h16q16 6 32 4l8 4q43 -6 72 4q282 5 360 -224z" />
    <glyph glyph-name="C" unicode="C" horiz-adv-x="1930" 
d="M686 1276h-56q-26 -12 -48 -12q-12 -10 -24 -8l-12 -8q-21 -6 -36 -4l-16 -4q-51 -30 -92 -40l-8 -12l-36 -20l-12 -12l-8 -12q-20 -13 -28 -28l-24 -16l-12 -4q-22 -33 -44 -48v-16q-89 -50 -112 -140q-54 -45 -44 -108l-24 -32l8 -12q-14 -13 -20 -24v-20
q-16 -39 -12 -72l-12 -32q6 -47 -4 -88q59 -234 232 -356q26 -11 40 -28q42 -18 64 -44l40 -4l40 -12l16 -4l16 -8q11 3 16 0l44 -12h12q15 -5 32 -4l8 -8q22 3 40 -4q31 0 52 -8l12 8q12 -9 24 -12h12h16h92q320 60 500 272l8 4l8 4l8 12q30 17 48 40q-5 42 -44 40
q-4 -7 -8 -8l-24 -16q-41 -50 -84 -72q-158 -174 -372 -188l-4 -8h-28q-4 -5 -8 -4q-93 -12 -164 8h-28l-12 4h-12l-64 16h-16l-12 4h-16l-12 8q-23 1 -40 8l-12 4h-12l-32 8l-28 8q-261 153 -276 420q25 322 232 468q228 264 584 136q23 0 40 -4l12 -4l12 -4l32 -8l16 -8
l40 -24q71 -26 112 -60h12l24 -32l8 -4l8 -8q23 -31 40 -48q36 12 36 48q-32 25 -44 56l-16 16l-16 8l-12 8q-18 16 -28 28q-21 7 -36 16l-8 4l-16 8l-8 4l-60 36l-64 20l-12 4q-21 4 -32 12q-10 1 -16 4q-31 4 -52 12q-46 4 -80 16h-12q-19 1 -32 4q-29 1 -48 4
q-6 -4 -12 -4z" />
    <glyph glyph-name="D" unicode="D" horiz-adv-x="1654" 
d="M134 1140q-100 18 -140 -20q1 -20 8 -32q73 12 132 -4l4 -40l-4 -16l4 -12l-4 -32q3 -46 -4 -80q3 -70 16 -112l-8 -32q5 -4 4 -8q2 -37 -4 -64q5 -46 -4 -80l4 -20l4 -68l-4 -20q10 -52 4 -88q3 -10 0 -16l4 -16l-4 -20l4 -12v-88l4 -28l-4 -8q9 -37 0 -68q8 -48 -4 -88
h-16l-12 4h-12l-12 -4l-28 4q-23 4 -40 4q-22 -27 -20 -56l20 -16q94 10 140 -24q29 13 48 32h12h12h12l88 12l16 4l28 8h12l60 16l12 -4q46 18 84 20q39 12 60 24l36 8l12 4q4 5 8 4l8 8q21 5 32 12l64 28l8 8l16 4q28 26 56 36q23 22 48 32q25 32 48 48l32 48l12 4
q12 23 24 40l4 12q41 53 56 100l8 8v12l4 8v16l4 12q10 33 12 56q-4 6 -4 12q-6 15 -4 32q-9 25 -12 44q-9 7 -12 16v16l-12 12l-16 36l-8 12l-4 16q-15 15 -20 32q-24 22 -32 48l-16 8q-18 21 -32 32q-7 4 -8 8q-41 24 -64 52l-24 8q-18 12 -36 12l-4 12q-53 15 -84 40h-16
l-8 4q-48 9 -80 28h-28l-24 4l-12 4h-12h-12l-12 4h-12h-12q-55 19 -104 16l-8 8h-12h-12q-47 16 -88 16q-36 11 -64 8q-11 30 0 60l-32 8q-23 -33 -24 -68zM254 1072l12 -4l28 -4q92 0 164 -32q181 -8 312 -92q238 -110 260 -352q5 -32 0 -56q-80 -208 -256 -292
q-87 -70 -184 -84q-64 -34 -124 -32q-15 -6 -32 -8q-4 -5 -8 -4h-12l-4 -8l-40 -8h-16q-37 -14 -68 -12l-8 -4h-12l-64 -4l4 16q-6 37 0 68q-6 38 -4 64v12l-4 28v12v68l4 12q-8 40 4 76l-8 16q-3 42 0 68l-4 8q0 30 -4 48v20l4 88v16v12v16q-4 62 0 100l-4 12q-7 40 -4 68
l-4 12l4 36q-12 60 0 108v28q41 -1 68 -16z" />
    <glyph glyph-name="E" unicode="E" horiz-adv-x="1785" 
d="M960 1280h-12q-47 -9 -80 -8l-24 -4q-82 16 -152 -8q-80 15 -144 0q-36 11 -68 4l-24 8h-12q-16 -6 -32 -4h-12l-52 -4l-16 -4q-40 7 -68 4l-28 -12l-8 4q-63 -11 -108 -4q-28 -11 -52 -8l-40 -16q-1 -69 92 -28q41 -7 68 -4l4 -20l-4 -12q12 -56 0 -104q5 -22 4 -40v-12
q11 -37 4 -68l4 -28l4 -24q-5 -37 -4 -64l-4 -20l4 -16q-5 -24 -4 -44q4 -11 4 -20l-4 -40q5 -4 4 -8q-3 -29 0 -48l-4 -20l4 -16v-44l-4 -20l4 -28l-4 -12l4 -12q-6 -61 0 -100q-71 -17 -124 -8q-24 -9 -48 -8q-18 -25 -4 -48l12 -4h12l12 4q32 1 56 -4q49 9 84 4
q9 -63 8 -100q-10 -87 20 -152l8 -4q59 -32 104 -40h28l16 4l8 -4h12h32h48q53 2 88 12h16l20 -4q23 6 40 4l16 -4h12h12h28h12h12q37 2 64 -4q37 7 64 8q47 -1 80 4h20l16 4h44h16h12q37 2 64 -4q31 7 52 8q19 41 -12 68h-16h-32q-23 -5 -40 -4q-64 -7 -108 -4h-16l-16 -4
q-34 -2 -56 0h-16h-16l-44 -8q-32 4 -56 0l-8 4l-12 4h-100q-6 -4 -12 -4q-62 3 -104 -12h-16l-16 4q-23 -4 -44 0l-8 -4h-12h-20l-88 8q-16 14 -24 24v20l-4 16v20v16v16q-7 39 -4 68v12l-4 48q30 0 48 -4l48 4l40 4q20 -1 32 -4l67 1l100 -3l56 -3l80 1l39 -1l85 3l106 -1
l92 1l57 2l51 1q31 -10 54 1l29 26q-13 19 -28 32l-12 4l-12 -4l-49 2q-37 1 -96 3l-83 -5l-83 1l-42 1q-48 0 -92 -1q-25 -1 -45 0q-83 2 -162 -5h-16q-26 2 -44 0l-24 8l-40 -4l-12 4l-16 -4q-6 -2 -12 0l-16 4q-61 -4 -100 0l-8 20v12v16v12v20l4 12q-9 46 -4 80l4 16v12
v12v48l-4 24l4 16v12q-8 47 -4 80v32v16l4 64v16v28l-4 24v16q0 37 -12 64l4 12v44v12l-4 8v28l-4 44l8 12q53 4 88 0q47 -2 80 4h48q31 -6 60 4q32 -10 60 -8q16 6 32 4h12q15 -5 32 -4h12l12 4h12h12h32l12 -4q29 4 48 0l24 4l16 -4h12h16q24 6 44 4h16l20 4h12h16
q53 9 92 0l12 8q23 -5 36 -12q40 8 72 4q12 21 16 32l-4 24l-32 12q-6 -4 -12 -4l-12 -4l-16 4l-68 4q-20 0 -32 4q-14 -2 -28 0q-24 -7 -44 -4z" />
    <glyph glyph-name="F" unicode="F" horiz-adv-x="1824" 
d="M1238 1312q-36 -7 -68 -4l-28 4h-12h-20h-12l-20 -4l-8 4q-18 -7 -32 -4l-48 -8h-52q-24 4 -44 0l-12 4q-6 -4 -12 -4l-16 8l-20 -4l-16 4l-20 -4l-16 4h-88q-47 -8 -80 -4l-8 -8l-16 8l-16 -4q-24 0 -44 8l-12 -4h-16l-32 4h-12h-48l-24 4h-20l-16 -4q-42 3 -72 -4h-20
l-16 -8h-20h-16l-20 -4q-22 -5 -40 -4q-21 0 -40 -8l-28 4l-60 -8q3 -19 12 -32l44 -12q23 1 40 4l8 -4q53 14 100 4l12 -108q5 -47 -4 -80l4 -8v-40q4 -19 0 -32q6 -24 4 -44l-12 -4h-12h-16q-37 -5 -68 4q-13 -4 -24 -4l-16 -24l4 -16l12 -4l16 -8h28h12h12q37 2 64 -4
l4 -12l-4 -16q8 -62 4 -100v-32l-4 -12q1 -29 -8 -56l4 -28l4 -24l-4 -8v-32q1 -37 -4 -64q3 -13 0 -24v-24l4 -20l4 -52l4 -24v-16q0 -54 4 -88l-4 -12l4 -36q-6 -30 0 -52q-9 -84 8 -140q26 4 32 24q19 -7 28 12q-7 39 0 68l-4 20q-2 32 4 56l-8 16q5 24 4 44l-4 12l4 8
q-6 44 -4 72q3 23 0 40l-12 36l4 20v12q-7 53 0 92v12l-4 32v16l4 12v12l-4 12v12q11 38 8 68q6 20 8 36q-8 39 -4 68q-6 31 0 60l12 8l12 -4q25 7 44 8l16 4q21 -1 32 0l100 12l68 -8q41 10 76 4l20 -4q37 6 64 0h12h20h12h16l12 4l80 -4h16h12h12q30 5 52 0q71 20 128 12
l28 28q-9 28 -24 44l-8 -4h-12h-12q-54 -15 -88 -16h-20h-16l-100 -8l-24 8l-8 -4q-71 12 -128 -4q-53 6 -92 -4l-40 12q-37 3 -64 0q-33 -5 -56 -12h-12h-8l-8 -4q-15 -2 -28 0h-24q-40 -11 -76 -4v20v28q-4 6 -4 12v20l-4 12v16v12v16v72q-16 64 -8 116l28 4l8 -4
q62 10 108 0h24l12 -4q37 3 64 0l12 -4q24 7 44 4l36 4l8 -4h56l52 4q20 -1 32 -4h28l8 -4q38 3 64 0q11 4 20 4q22 -4 40 0q37 -7 68 0l12 -4l76 8l16 -4q31 6 56 0l8 4h16h32q31 9 60 8q44 47 -16 60q-9 -7 -20 -8z" />
    <glyph glyph-name="G" unicode="G" horiz-adv-x="1714" 
d="M232 1082l-8 -24q-46 -34 -64 -76q-44 -42 -60 -92l-20 -20q-7 -33 -28 -56l-4 -24l-12 -28q-2 -25 -12 -44l-4 -16l4 -12l-4 -28v-12l-4 -52v-100l8 -16q6 -24 16 -40l4 -12l8 -12q12 -32 16 -56l8 -8l4 -8v-12l8 -4l4 -8q13 -38 28 -60q4 -6 4 -12q6 -5 8 -12l8 -4
l4 -12q4 -1 8 -4.5t4 -7.5q5 -4 4 -8q30 -24 44 -48q240 -173 500 -136q382 79 476 432q0 26 -12 44q-20 0 -50 -9l-75 -4q-70 -6 -123 1q-23 -5 -40 -4l-20 -4h-24q-25 -4 -303 -1l-37 1l-103 -5q-191 10 -127 -50h201l151 -3q97 0 230 2h16l84 4q39 12 71 -1l29 6
q37 8 66 -2q-72 -241 -302 -311q-240 -106 -492 40q-168 118 -208 300q-45 88 -24 176q-8 124 52 216l4 28q195 334 492 324q132 28 248 -12q121 -29 176 -120l16 -8q42 2 36 40l-56 72l-12 4l-24 20l-12 4l-12 4q-16 13 -32 16l-28 16l-8 4l-8 4q-28 4 -48 12h-20
q-26 -1 -44 8h-20l-68 4h-12h-48q-264 -20 -428 -184z" />
    <glyph glyph-name="H" unicode="H" horiz-adv-x="2046" 
d="M1298 1202l4 -16q-14 -41 -12 -72q-7 -39 -4 -68l-8 -88q4 -6 4 -12v-64q0 -40 4 -68l-4 -12q0 -20 -4 -32q5 -24 0 -44l-4 -24q9 -31 8 -56l-4 -16q2 -37 -4 -64l8 -24l-4 -8v-12l-4 -104q-2 -14 0 -28q-15 -44 -8 -80q-24 -9 -44 -8q-6 -2 -12 0q-4 -5 -8 -4
q-43 0 -72 -8l-16 8h-20l-24 -4l-16 4h-20l-24 -4h-20q-23 -1 -40 4l-12 -4l-12 -4l-12 4l-12 -8q-4 4 -4 8h-20h-8q-30 -7 -48 -8l-28 4h-24l-28 -8l-24 4l-28 -4q-44 5 -72 0l-4 8q-32 1 -56 -4l-20 4h-16l-12 -4l-12 4q-47 -9 -84 0q-62 -11 -108 -4v16q-6 30 -4 52v44
l-4 12v16l4 20q-3 9 0 16l-4 12l4 92v12l-4 8v12l-4 64l-4 44l4 16v12v28q-2 53 4 88v12v12v28v72l-4 8v12l4 8q-5 33 0 60q-2 61 16 108q-10 19 -24 24q-31 -18 -40 -44l-8 -80l-4 -28l4 -92l-4 -32l8 -28q-10 -37 -8 -64q1 -40 -4 -68q6 -15 4 -32q-7 -38 -4 -64l4 -16
v-28l4 -20q-2 -31 0 -52v-16l-4 -28q6 -24 4 -44q5 -40 -4 -68q5 -4 4 -8v-28l4 -72l-24 -4l-20 4l-24 -4l-16 4h-12h-20q-31 4 -52 0q-25 9 -44 4l-16 -20l8 -24h12l8 -8q32 -5 56 -4l12 -4h12l12 -4h16l8 4h12q40 -8 72 -4l4 -12v-16v-28q3 -45 0 -72l12 -20
q-6 -49 16 -88l52 4l4 20l4 16l-4 8l-4 12v12l-8 28l-4 12v12v16q-5 4 -4 8v16q-7 29 0 48q-4 13 -4 24l28 4h32l20 -4l16 4l20 -4l16 4l16 -4l8 4l12 -4q30 8 52 4h16h24l12 -4h12l8 4l8 -4h64l8 -4l8 4h16q20 0 32 -4q33 6 60 0l20 4l20 4h12h12h52l64 8l16 -4l16 4l12 -4
q48 8 84 0h12h12q20 0 32 -4h12q41 12 72 12q20 0 32 -8l-4 -16l4 -24l-4 -16v-16q1 -23 -4 -40q13 -48 4 -88q32 -48 72 -16v16l4 20q-3 22 0 40l-4 12l-4 16l4 12v32q-10 47 -4 84h20l12 4h16l8 -4h12h80l4 8q14 16 20 32q-13 20 -24 32l-28 -8l-12 8q-15 -6 -32 -4h-44
q-23 4 -40 4l-4 24v16v20v16v20l4 16q0 21 4 32q-5 4 -4 8v12l4 12v28q-3 31 4 60q-4 6 -4 12v32v80l4 68q-3 42 0 68q-6 21 -4 36l-4 24l4 20q-1 24 4 44q-7 37 0 64v16q3 32 0 56l4 16v28q13 62 8 104h-4h4h-4l-20 4q-30 -22 -32 -52z" />
    <glyph glyph-name="I" unicode="I" horiz-adv-x="1736" 
d="M6 1156l16 -12q42 1 72 -8h24h20l20 -4l8 4l16 -8q60 4 100 -4h12l16 4h40l12 4l12 4l12 -4q32 2 56 -4h12l28 4q24 -5 44 -4l4 -28v-28v-28l-4 -8q4 -32 0 -56v-12q7 -44 4 -76q7 -4 8 -8q-15 -25 -12 -48v-28q-4 -50 8 -88l-8 -28q5 -4 4 -8q-1 -43 4 -72q-5 -44 4 -76
l4 -8l-4 -8v-12l4 -28v-24v-20q6 -29 0 -52l8 -16l4 -20q-6 -24 0 -44l-4 -20v-44q8 -46 0 -80q11 -45 4 -80h-20h-12q-37 8 -64 4h-16l-8 4q-29 1 -48 8h-16h-20h-12l-28 4h-32q-27 -7 -48 0l-64 -20l-12 -4l-24 8l-8 -4h-12l-64 -4l-16 -44q19 -14 36 -20l20 4q23 -1 40 4
l12 -4l16 4l100 16l12 -4q20 1 32 4q24 -8 40 0q32 -9 56 -8l8 -8q23 4 44 -4h28q14 3 28 -4q14 5 28 4q19 -4 32 -4h24h28l12 -4q19 3 32 0q49 4 84 -4h20h20h16h12l80 4h24h20h20l16 -4h20h20l20 -4l12 4l16 -4l8 4q49 -8 84 -4q23 21 40 32q-9 24 -24 40l-40 -8l-12 8
h-52h-12q-29 9 -52 4l-32 4q-20 2 -32 0h-16h-12q-22 -1 -40 -8l-40 8l-32 -8h-12h-12q-19 4 -32 4q-71 -4 -120 8v28l-4 12v16v28l-4 72l-4 8v40v16v12l4 28q-6 30 -4 52v20l-4 20v20q-5 18 0 32q-5 22 -4 48q-5 22 -4 44v12v12q-12 36 -8 68v56l-4 16q7 32 4 56v20v12
q0 20 4 32v80l-4 8v44v12q-2 47 4 80q-3 23 0 40l24 4q46 -9 76 -8q47 4 80 0h12h12h20h12l16 4l12 -8q20 0 32 4q24 -5 44 -4l28 -4q47 9 88 0q38 6 64 20q1 41 -36 56l-12 -8l-16 8l-28 -4l-24 -4h-12l-8 4q-12 -3 -24 0l-32 -8l-32 12q-62 -12 -112 4l-16 -4q-12 2 -24 0
q-38 3 -68 -8l-20 8h-16q-41 -7 -72 4q-64 -12 -116 0l-12 4q-15 -6 -32 -4q-6 -4 -12 -4q-40 1 -72 -12l-16 8h-12q-15 -10 -28 -8l-12 8h-20h-12l-92 4h-12q-49 13 -84 12q-26 -20 -20 -48z" />
    <glyph glyph-name="J" unicode="J" horiz-adv-x="1623" 
d="M1034 1254q-1 -24 4 -44l-4 -28l4 -12l-4 -12v-52l-4 -8q0 -34 -4 -56l-4 -12v-12q5 -4 4 -8v-12q10 -55 4 -96q10 -57 -4 -104q5 -32 4 -56v-32q3 -6 0 -12v-44q11 -35 4 -64v-16q3 -23 0 -40q0 -96 -12 -156l-4 -68q0 -71 -16 -120q-91 -132 -244 -124q-92 -38 -172 0
q-73 12 -120 52q-125 35 -200 120l-40 20l-8 28q-110 101 -144 224q-30 9 -52 -8q-1 -22 0 -40l12 -12l4 -16l12 -12l4 -16q16 -20 24 -40q6 -5 8 -12q15 -15 20 -32q18 -14 24 -32q28 -18 40 -48q7 -4 8 -8l16 -8l8 -12l16 -12l12 -12l12 -8l36 -28l8 -8l4 -12l8 -4l8 -4
l8 -4l8 -8q34 -18 52 -36l36 -4q198 -125 396 -60q80 4 140 32l12 4l8 12l12 8l4 8l8 8l20 20l8 4q4 7 8 8l40 52q1 10 4 16v16l4 20v16v16l4 12l4 68q1 51 8 84q-3 19 0 32l4 12l-4 12l4 12v12v12v16l-4 12q6 47 0 80v20l-4 48l4 12l-4 16l-4 40q5 21 0 36l4 24v20
q-1 30 4 52l-4 8l4 28q-6 24 -4 44q-6 30 -4 52v16q0 31 4 52v20v12q-1 24 4 44q-6 36 0 64q-13 27 -28 40h-12z" />
    <glyph glyph-name="K" unicode="K" horiz-adv-x="1690" 
d="M84 1158l-8 -28q16 -33 8 -64l-8 -16l4 -20l-4 -16v-24q-1 -29 -8 -48q3 -11 0 -16v-44l-4 -8q5 -37 4 -60v-12l-4 -28v-16q4 -37 -8 -68l8 -24v-12q-24 -60 -20 -112q4 -40 -4 -68q7 -36 -4 -68q1 -37 -4 -64q9 -29 8 -52v-24l-8 -16l4 -24l-4 -16l-4 -8l4 -12
q-6 -28 -4 -48v-16v-28v-12q-9 -54 -4 -92q27 -23 52 -8q1 37 24 56l-12 16v40v12v12v12l4 28l4 44q-1 32 4 56q-7 31 -4 52v24v20v12v12q5 37 4 64l-4 16v52l4 12v12v12q5 45 4 72l20 -8l20 -12l20 -8q25 -17 40 -32l12 -4l48 -16l12 -8h12l12 -8l12 -4l12 -8l12 -4l12 -4
l48 -28q16 -11 28 -16q12 -13 24 -20l16 -8l12 -8q7 -4 8 -8l12 -8l16 -4q39 -33 80 -40q23 -21 48 -32l16 -16q36 -17 56 -36l4 -8q27 -11 44 -24q24 -16 40 -24l4 -8q32 -19 48 -40l16 -4l4 -8q20 -9 32 -24l20 -8q67 -46 120 -60l64 -48q29 -1 48 4q12 36 0 64
q-10 1 -16 4l-20 8l-12 8l-16 8l-8 4l-8 4l-12 8l-12 4q-48 33 -88 44l-24 16q-4 4 -4 8q-12 7 -16 16q-23 6 -36 20l-16 12l-16 12l-20 8l-12 8l-12 8l-16 12l-12 12l-16 4l-12 8l-8 12l-12 4l-12 8l-8 8l-16 8l-8 8l-8 8q-24 10 -40 24q-22 10 -36 24q-57 18 -92 52l-12 4
q-7 4 -8 8h-12l-12 8l-4 8l-28 16q-24 10 -40 24q-20 6 -32 16h-12l-8 8l-8 4q-33 6 -56 20l-8 4q-28 4 -40 24q-42 11 -68 36l4 12l16 12l24 8q25 26 52 32q15 16 36 16l8 12q63 26 100 52l16 12l16 8l12 4q38 29 72 40q22 20 44 28l12 8l24 20l32 20l8 8h12q33 29 64 40
q12 19 28 24q31 52 80 72q0 42 -40 48l-8 -20h-16q-26 -36 -64 -52q-49 -63 -116 -84q-56 -61 -124 -80q-4 -7 -8 -8l-8 -4q-59 -51 -124 -68q-27 -27 -60 -28q-33 -26 -68 -32q-14 -16 -36 -16q-12 -25 -36 -32v20l4 12v16l-4 8v12l4 8v24q0 30 -4 48v24l4 20l4 64l8 56
q-2 6 0 12l4 12v12v12q9 41 8 72q-15 22 -36 28q-10 -13 -24 -20z" />
    <glyph glyph-name="L" unicode="L" horiz-adv-x="1526" 
d="M70 1170q3 -10 0 -16q12 -39 12 -72q-1 -21 0 -36l-4 -28q2 -42 -4 -68v-12q-5 -24 -4 -44q-6 -24 -4 -44l-4 -12l-4 -28v-16l-4 -8v-24q-5 -43 0 -72l-8 -8q-1 -20 4 -32v-76q-5 -24 -12 -40l4 -20l-4 -16v-44l-4 -12q2 -32 0 -56v-52l-4 -16l-4 -36l4 -20l-8 -12l8 -16
l-8 -12q2 -44 -8 -76v-48l4 -8q-5 -33 0 -60l12 -8h16l100 -16h28h12l12 -4q6 4 12 4h12q20 0 32 4q25 -6 44 0q16 -6 32 -4l12 4q58 -6 100 4l8 -4q32 7 56 0l8 4q65 -16 124 0l48 -8l8 4l16 -4q62 8 100 4h16h12l8 4h12h12q54 13 96 8q23 38 24 76h-52q-23 -6 -44 -4h-12
l-8 -4q-79 -13 -128 -8l-28 -8h-12q-47 -2 -80 4q-51 -11 -92 4q-29 -6 -52 0h-12q-19 -6 -32 0q-43 -14 -80 -8l-16 -4h-16l-12 -4l-48 8q-19 -3 -32 0q-15 -5 -28 -4h-28l-72 4l-28 12q0 20 -4 32l4 16v20l4 16l4 20v44v20l4 16q-4 6 -4 12l-4 12q18 55 4 100q9 15 8 28
l4 12q-4 6 -4 12l-4 16l8 12q-1 30 4 52q-4 59 8 100v68l-4 36l4 24v20v24l8 16v16q1 30 4 48l4 12v28v16l4 16v16v16l4 12q-4 61 4 100q-5 4 -4 8q-11 54 -12 88q-20 12 -36 12q-15 -15 -16 -32z" />
    <glyph glyph-name="M" unicode="M" horiz-adv-x="1762" 
d="M1136 1212l-48 -44l-48 -28q-23 -27 -52 -36l-12 -16l-16 -4l-16 -8q-19 -19 -40 -24q-20 -22 -36 -32l-16 -12l-12 -8l-8 -8l-8 -8l-12 -8l-8 -8l-12 -8l-12 -4q-23 -31 -52 -44l-4 -8h-12q-30 7 -52 8l-12 12l-16 8h-12l-8 12q-54 19 -88 48l-36 8l-4 8q-7 4 -8 8
q-25 19 -36 32q-45 17 -72 44q-25 7 -40 20h-16q-4 6 -4 12q-10 1 -16 4l-8 8l-12 4q-7 4 -8 8l-12 4l-76 40l-16 -4q-15 18 -24 32l-36 -8l-4 -12v-20v-24q5 -43 4 -72v-20q1 -32 12 -56l-8 -20l-8 -56q4 -30 0 -52q-8 -54 -4 -88q-5 -32 -4 -56l-4 -16l4 -12l-4 -16v-32
q-9 -23 -8 -44q-2 -38 4 -64v-68v-20l-4 -12l-4 -28l4 -8q-5 -38 -4 -64l-4 -28q-18 -97 -16 -156l-24 -72q0 -11 8 -20q-26 -61 48 -60q15 37 20 64l-8 28q7 29 4 52l4 12v12v16l4 12v12v12l4 28q8 23 8 40v12l12 48l-4 20v16l4 24l4 20q-7 63 0 108q-4 44 4 76l-8 36l4 16
l4 20l-4 12l4 44l4 16q-4 30 0 52v20l4 16v16q4 23 4 40v16l4 16v20l-4 8l4 12v16v12v16l4 12q-6 30 -4 52l8 8q-10 15 -8 32l8 -4q16 -7 24 -20q46 -7 72 -36q54 -19 88 -48q58 -22 92 -60l12 -4l16 -8l12 -8q18 -12 36 -12l12 -12l8 -12l24 -16l12 -4l8 -4l12 -4
q36 -22 64 -32l12 -20q51 -13 96 -4q10 25 8 44l52 40q20 24 40 36l8 8q17 15 32 24q20 14 36 20l4 8l28 12q41 39 84 52q48 64 116 92l12 -24l-4 -16l8 -32l-4 -24q4 -6 4 -12l-4 -12q4 -71 -8 -120v-16q-2 -22 4 -44l-4 -16l-4 -20l4 -12q-5 -23 -4 -44l-8 -24l4 -32
l-8 -12q0 -44 -8 -72l4 -36q-16 -64 -8 -116q1 -41 -4 -68q1 -36 -8 -64v-24l-4 -64l4 -12l-8 -20l4 -12q0 -23 -8 -40q8 -37 4 -64l-4 -8l-4 -12q0 -22 -8 -40q4 -19 0 -36l28 -16h4h-4h4q25 23 36 44v12l4 8v64q3 30 12 48l-8 8l4 8l4 28q-9 29 -8 52v12q1 19 8 32
q-4 46 0 80v12q7 23 8 44l-4 12v16q4 63 0 100q13 33 16 48v24q-5 4 -4 8v16l12 96q9 69 4 112l8 48q-7 47 4 92v20v16q-6 27 0 48q-5 4 -4 8l4 12l-8 8l4 16q-11 48 -4 88q-19 13 -36 12q-33 -28 -60 -40z" />
    <glyph glyph-name="N" unicode="N" horiz-adv-x="1654" 
d="M1072 1152l4 -8l4 -8l-4 -12l-16 -100q-5 -45 8 -80l-4 -20l4 -12q-11 -37 -8 -68q-2 -33 -12 -56q7 -41 -4 -72q6 -24 4 -40l-4 -12l4 -12v-28q-12 -61 -8 -100l-24 8l-8 8q-20 11 -32 16l-16 20l-28 16l-88 44l-16 24q-51 21 -80 52l-28 12l-20 12l-20 12l-20 8l-12 8
l-8 12q-39 16 -64 40l-24 8l-48 24q-20 19 -36 28l-8 8q-43 16 -68 40l-28 8l-8 8q-7 4 -8 8l-12 4l-12 4l-12 4q-26 19 -48 28q-41 28 -60 60l-40 36q-20 0 -36 -12q7 44 -16 68l-32 -4l-8 -12v-12q1 -20 4 -32l-4 -48l-4 -32q7 -29 0 -48l4 -8v-24l4 -8l-8 -32l4 -24
q-11 -39 -8 -68v-24l-4 -28q-7 -23 -8 -40q-1 -41 0 -68q-7 -20 -4 -36l-4 -16l-4 -8q10 -46 0 -84q-1 -10 -4 -16q13 -69 0 -124l8 -12l-4 -28q2 -41 0 -68v-12q-8 -26 -4 -48l-8 -4q15 -80 -8 -144q22 -30 56 -32l20 24l-4 24q7 44 0 76l4 16l-4 12l8 32l-4 8v12v12v12
q-6 27 -4 48l4 12v32q-1 21 0 32q3 47 -4 80l4 28l4 8q-7 42 -4 72q5 23 4 44l-4 12q9 46 4 80l4 16l-4 20l8 16q2 30 8 52q0 26 4 44l-4 20l4 16l-4 20v12l8 28q-8 51 4 92q-5 21 -4 36l88 -88l12 -8l4 -8q33 -15 52 -28l72 -40l28 -12l16 -20q27 -9 44 -24l4 -8l16 -4
q33 -22 60 -32q7 -4 8 -8h12l4 -12h12l8 -4q32 -33 68 -48q38 -19 64 -40l24 -12q22 -19 48 -28q32 -34 56 -52l12 -8l16 -8l12 -4l12 -8l16 -8l8 -8l28 -16l8 -4q14 -9 24 -20l68 -40v-12l8 -16l-4 -8v-12q5 -32 4 -56q7 -13 8 -24l-4 -12q4 -6 4 -12l-4 -20q4 -41 0 -68
l-4 -28l8 -28q-16 -67 -4 -124q9 -7 12 -16q22 9 40 8l12 32q-1 15 8 24l-12 16v12l4 28q-5 29 0 52q-7 57 4 100q1 23 -8 40l4 8v12q-8 37 -8 64q-2 28 0 48q-2 43 4 72v44v40v12l4 16q-5 40 0 72v28q-1 43 8 72q-3 30 8 48l-4 12l4 16l-4 12q-2 24 0 40l-4 12v16v12v12v32
v12q-1 40 12 68q-5 32 0 56q-17 15 -36 16z" />
    <glyph glyph-name="O" unicode="O" horiz-adv-x="1797" 
d="M562 1150q-44 -11 -72 -12l-8 -12h-12l-8 -4h-16q-6 -4 -12 -4q-18 -12 -36 -16l-76 -32q-30 -34 -60 -48l-8 -12q-24 -21 -44 -32l-4 -8l-8 -8l-8 -4q-25 -40 -60 -60l-4 -20h-12l-4 -12l-8 -8l-40 -56v-28q-73 -162 -32 -312l4 -52l8 -12v-12l8 -32q10 -22 12 -44
l16 -24q29 -34 40 -64q19 -14 28 -24l8 -12q32 -23 48 -44q33 -22 52 -40q32 -11 52 -32h12l12 -4q28 -12 48 -16l16 -16h12l12 4l12 -4l8 -8q54 0 88 -12q16 7 32 4l28 -8h12h12h124l12 4h12l80 16q15 17 28 24h12q25 11 48 12l36 40l24 4l8 12l8 8l12 4q20 22 40 32l8 16
l12 4l4 12l8 8l8 12l60 68l12 32l8 12q8 21 16 32l4 28l4 12l4 8l16 28l8 28l-4 24q6 4 8 8q5 26 4 44l4 8q6 16 4 32l4 28l4 8l8 32v12l4 28q-7 31 -4 52q-12 32 -12 56q-13 17 -16 32q-8 41 -24 68q-19 13 -28 28q-26 15 -36 36l-12 4l-64 32l-12 8l-44 20l-12 8
q-10 1 -16 4l-12 8l-8 4l-8 4l-8 4l-12 4l-64 32l-16 -4l-16 4q-6 4 -8 8l-32 8l-32 16q-42 5 -68 16q-77 2 -124 12q-6 -4 -12 -4zM586 1098l12 -4q31 7 52 4l16 -8q22 -11 44 -16t40 -12l48 -16q31 -13 60 -16l44 -24l16 -4q28 -16 52 -20l8 -12h12l8 -8h12q29 -25 56 -32
q18 -13 36 -20l4 -8l8 -4l48 -44l4 -12q31 -63 32 -116l12 -12l-8 -32q-1 -69 -24 -116q-26 -265 -240 -412l-16 -4q-41 -33 -84 -40q-15 -14 -32 -20q-485 -85 -692 264v24q-16 22 -16 44q-88 293 120 472q20 28 44 44q37 54 92 72q56 54 124 60q54 29 104 20z" />
    <glyph glyph-name="P" unicode="P" horiz-adv-x="1542" 
d="M104 1164l4 -28l-8 -80v-24l-4 -12l4 -8l-8 -32q5 -69 -16 -120v-12q1 -44 -8 -76q3 -25 -4 -44q4 -58 -16 -104q8 -84 -16 -152q17 -31 16 -60q-4 -10 -4 -20q1 -37 -8 -64l-4 -12l-4 -56l-4 -16q8 -32 8 -56l-8 -8v-32l-8 -32v-12q2 -44 0 -72q22 -16 44 -20l20 20
q11 22 24 32q0 24 -20 32v24l4 20v16v16q1 30 4 48v40l4 40v20l4 12v12l4 12v12v12l4 72q19 17 40 16h16q23 3 44 0l40 12l12 4l12 -4q39 11 68 12l16 4q24 12 44 12l8 8q53 -6 92 8h20l12 4l8 -4h24q72 14 120 12q26 15 52 16q37 16 64 16q12 7 24 8l8 16q23 9 40 12
q17 16 32 24l12 8q17 14 32 20q28 38 56 56q15 97 -16 196l-8 8l-12 28l-8 8l-40 52q-47 16 -76 44q-10 1 -16 4l-12 4l-40 12q-51 24 -92 28l-32 20l-20 4h-12l-12 8l-8 4q-49 12 -84 12l-12 4l-8 4q-38 5 -64 12q-4 -5 -8 -4l-16 4h-12h-12h-16l-40 -4h-64q-15 -9 -32 -8
l-4 -8l-8 4q-20 -5 -36 -4l-20 4q14 46 -20 64q-34 -14 -40 -48zM376 1116q11 -1 16 0l16 -8l12 4q52 -20 100 -20l64 -16q25 -9 44 -12l12 -8l16 -4l16 -4l12 -4l12 -4l16 -8l84 -24l12 -8l8 -8l8 -4l60 -40q50 -70 60 -140q13 -45 -8 -80q-33 -31 -64 -44q-34 -39 -76 -52
l-36 -4l-8 -8h-12l-32 -8l-40 -12l-16 -4l-16 -4h-12l-24 -4q-23 -3 -44 0q-23 -6 -44 -4q-39 -8 -68 -4l-20 -4l-20 -4l-12 -8h-16q-53 -16 -92 -16l-20 -8h-12h-12h-52q-48 -15 -84 -16l4 28q-5 30 4 48l4 24l4 12l-4 12l8 100l4 20l4 12q1 51 12 84q-3 30 0 52q6 32 4 56
v16v12l4 12l4 80l16 4l20 4l16 4h12h12h12q41 13 76 4q23 5 40 12z" />
    <glyph glyph-name="Q" unicode="Q" horiz-adv-x="1967" 
d="M802 1228q-19 -3 -32 0q-6 -4 -12 -4l-20 -4h-12q-11 -4 -20 -4l-24 -4l-20 -4l-28 -12h-28q-38 -18 -72 -20l-12 -12q-20 -7 -36 -8l-12 -4l-12 -8l-20 -4q-13 -8 -28 -12q-29 -25 -56 -32q-12 -19 -24 -24q-22 -22 -44 -32l-8 -12q-34 -41 -64 -60l-8 -12l-4 -8l-8 -8
l-44 -52l-12 -8l-8 -12l-12 -12l-4 -12q-18 -31 -36 -48l-16 -20q-7 -28 -20 -44q-1 -46 -24 -80q-6 -32 -4 -56q-12 -27 -16 -48q-8 -257 164 -376q111 -116 256 -136q66 -29 128 -24q220 -47 388 76q101 35 156 112l8 -4l12 -4l48 -24l16 -4l16 -8l8 -8l16 -4l20 -8l4 -8
l12 -4l4 -8l12 -4q28 -19 48 -28q26 -22 48 -32q48 8 52 60l-20 8l-8 4l-60 24l-8 12l-20 8q-18 14 -28 24q-10 1 -16 4l-8 8l-16 4l-24 20l-8 4l-8 4q-30 10 -48 20q273 387 40 752l-20 12q-6 23 -16 40l-12 8l-16 12l-40 28l-12 12l-12 4q-14 16 -24 24q-40 18 -60 48
q-27 15 -40 28h-12l-12 4l-32 4h-12q-30 0 -52 4zM790 1176h16l100 -20l4 -8q41 -16 64 -44q169 -90 216 -256l24 -28v-28q40 -125 12 -240q-13 -57 -40 -96q-17 -69 -60 -112q-14 -38 -36 -60q-30 4 -52 20q-50 11 -84 40h-12q-22 13 -44 20l-8 4q-72 23 -116 56
q-33 0 -56 -16q0 -20 12 -32l16 -8l24 -8q22 -21 44 -28l20 -8q24 -9 40 -20l16 -4l40 -16l8 -4l48 -20q29 -17 48 -24l-4 -20q-276 -221 -580 -116q-168 29 -264 148q-128 110 -124 296q42 253 220 400q116 143 276 176l8 12l24 -4q16 13 32 16l12 4l16 4l12 4h28l88 20h12
z" />
    <glyph glyph-name="R" unicode="R" horiz-adv-x="1605" 
d="M498 1158h-12h-52h-52q-6 -4 -12 -4h-20q-21 -9 -48 -8l-8 -4l-12 4q-31 -10 -60 -8l-80 -20q-36 35 -76 28l-12 -24l8 -80l-4 -24l-4 -56v-28l-4 -52l4 -20l-8 -28l4 -16l-4 -64l-4 -68l-4 -28v-72q-9 -54 -8 -88l-8 -56v-20q-1 -32 4 -56l-4 -56v-40l8 -12l-4 -28
l-4 -12l8 -28l-4 -16l4 -12l-4 -28q5 -52 -4 -88q14 -34 36 -52l24 8v12l8 52q-3 55 0 92v16v12q-6 30 -4 52q-10 56 0 100q-5 4 -4 8q0 28 -4 48l4 40q-1 44 8 76l20 -8l8 -12l20 -4l8 -12q22 -9 32 -24q20 -6 32 -16l28 -8l8 -8l24 -16l60 -36l24 -20q19 -3 28 -16l24 -12
l32 -20q20 -13 36 -16q24 -22 48 -32l16 -8l32 -24l12 -4l8 -8l28 -12l64 -44l16 -4l20 -8l16 -12l20 -8q38 -21 60 -40h12l12 -8q20 -11 32 -20l8 -4q37 -13 60 -32q30 1 52 12q11 40 -12 64h-24l-24 8l-8 12l-16 4l-12 4l-12 8l-8 8h-12q-16 14 -32 20q-39 29 -68 40
l-24 8l-72 40l-24 16l-8 4q-35 17 -56 36q-28 9 -52 28l-28 16l-68 40l-12 8l-16 12l-64 36l-12 12q-30 14 -48 28q-47 20 -76 44q37 12 68 8h20h28l52 4l12 -4q6 4 12 4l12 4h44q37 10 64 8l20 4l20 4h12q6 2 12 0q4 5 8 4h12l8 4h28l44 4q32 6 56 4l12 4l12 4h16l8 4
q32 9 56 8q23 11 48 12l8 8l52 24q17 15 32 20q4 7 8 8q35 20 56 40q28 61 32 108q5 32 0 56q-111 182 -288 252h-48l-8 8l-64 12l-24 16q-41 0 -68 8q-31 -6 -60 0zM462 1102q100 14 180 -20q229 -21 368 -220q4 -28 0 -52q-1 -54 -32 -84l-24 -16q-29 -25 -56 -32
q-8 -10 -16 -16h-12q-6 -4 -12 -4l-100 -24h-20q-25 -7 -44 -8h-16q-23 -7 -40 -8l-16 4l-8 -4l-64 -4h-12q-4 -5 -8 -4l-68 -4l-16 -8q-53 -7 -92 0l-16 -8l-16 -4l-16 4l-28 4q-55 -15 -108 -4q-40 -13 -76 -8l4 24v20v20v20l4 8l-4 8l4 16v12l4 80q-7 37 0 68q-4 6 -4 12
q6 31 4 52v16l4 12v32q-3 49 8 84l20 4l64 8l16 8h20h20q22 5 44 4l32 12q47 -6 84 4z" />
    <glyph glyph-name="S" unicode="S" horiz-adv-x="1738" 
d="M728 1212h-12h-32q-6 -4 -12 -4q-55 -6 -88 -16q-427 15 -572 -328q0 -52 -8 -84q17 -31 20 -60q15 -13 20 -28q38 -19 60 -36h12l48 -16h32q38 1 64 -4l24 -4l12 4l32 -4h44q22 3 40 0h12h12l28 -8q36 6 68 -4h28h16l52 4q32 -1 56 4l12 -4h16h12q31 -9 56 -8h16
q45 0 72 -4l36 -16q100 -27 164 -92h12q43 -70 40 -140l8 -20l-8 -8l-8 -32q-8 -39 -20 -64q-33 -25 -52 -52q-24 -11 -44 -16q-241 -150 -492 -80h-12l-28 8q-50 7 -84 24q-131 28 -216 108q-13 30 -24 48q9 28 4 52q-34 -6 -56 -28q-11 -67 24 -120q32 -23 48 -48l64 -20
q482 -241 892 52l4 12l8 4q11 21 20 32l4 12l24 60q4 61 16 100q-9 30 -8 52l-8 12l-4 8l-4 8l-24 64q-27 20 -40 40l-20 12q-10 7 -20 8l-8 12l-16 4l-12 8q-20 6 -36 20q-52 14 -84 36l-16 -4q-22 8 -44 4l-12 8q-43 -6 -76 4q-34 2 -56 8l-12 -4l-44 4q-44 -9 -76 -4
l-16 -4l-20 4l-12 4h-12l-72 8q-71 -6 -120 4q-108 -14 -196 20q-34 16 -52 40l-4 80q123 288 444 288l16 4q24 0 44 8h52h16h12q6 4 12 4q26 1 44 4h12h80l16 -4l16 -4l12 -4q23 -1 40 -4l32 -8l12 -4h12l12 -8l28 -4l56 -20l20 -20q40 -1 56 28l-12 28h-20q-16 16 -36 24
l-32 12q-60 5 -104 32h-16q-22 5 -40 12q-29 -1 -52 8q-32 -8 -60 0q-6 -4 -12 -4z" />
    <glyph glyph-name="T" unicode="T" horiz-adv-x="1893" 
d="M22 1176l12 4l12 -4h12h20l8 -4h16h12h12q20 0 32 4q24 -5 44 -4h16h12l12 -4h12h16l12 -4h16h12h16h72h52l8 -4q15 0 24 -8l16 8l8 -4h12l8 -4h132q11 -42 4 -76q2 -29 -12 -44q-2 -44 0 -56q-9 -46 0 -84l-12 -36q4 -32 0 -56v-16q-12 -62 -8 -104q-4 -19 -4 -32
l-8 -44l-4 -8q4 -38 -8 -72v-28q6 -42 -4 -76l4 -24q-4 -47 -12 -80l4 -32l-4 -16q-1 -23 4 -40l-4 -28q-1 -29 -8 -48l4 -24v-12l-8 -64q4 -27 12 -44q48 -6 64 40q-4 25 -4 44v12v12l4 32q-6 31 0 60l-8 28l8 36l4 12v28q-2 33 4 60l4 8q-6 46 4 80q-4 24 0 44
q-5 23 -4 40l4 8q0 44 8 72v12v16q12 61 8 100l8 24l-4 20q0 37 8 64v16q7 32 4 56l8 24l-4 16l-4 16l4 12v12l4 16l8 68q-5 31 0 60q18 7 32 4l16 4l12 -4h20h16h16l28 -4h48h24h36h12q32 2 56 -4q4 5 8 4l12 -4q37 7 64 4l24 -4q9 3 16 0h32q6 4 12 4h48l8 4q47 -8 80 -4
q30 42 -4 76l-24 -4q-24 1 -44 -4h-16h-12h-28h-12q-44 -7 -76 -4q-62 8 -108 0l-16 4l-28 -4h-16l-52 4h-16h-12h-80q-20 0 -32 4h-24l-20 -4h-12h-16l-28 -4h-72l-16 -4q-40 11 -72 8l-12 4h-12q-23 -6 -44 -4l-124 4h-16h-16q-31 -2 -56 4h-12h-12q-99 -6 -164 8
q-42 -28 -16 -64z" />
    <glyph glyph-name="U" unicode="U" horiz-adv-x="1818" 
d="M14 1130l8 -16q-6 -37 4 -68q-16 -61 -8 -112q-13 -69 0 -120q-3 -39 0 -64l8 -8l-4 -8v-16q12 -57 8 -100l4 -12l8 -52q11 -24 8 -48q6 -5 8 -12l4 -16l8 -12v-12l8 -28l12 -32l4 -16q27 -38 32 -76q19 -23 24 -44q21 -21 32 -36l16 -16l24 -32l12 -4l4 -12
q24 -18 36 -36q38 -22 56 -52h20l12 -4l8 -8l8 -8q46 -18 72 -40h16l28 -12l64 -16h16l12 4l48 -4q6 3 12 0q47 9 76 8l68 24q6 4 12 4q20 15 40 20l8 8h12q29 30 60 40l40 48l8 8q15 24 32 32q11 21 24 32v16l12 8l8 20q7 27 24 52l8 24q11 22 12 48q7 24 20 36q8 32 20 52
l4 12l4 16l8 16l4 8q2 20 12 36l4 8q5 29 16 48q2 44 16 76l12 16v20l8 20v32l8 20v16l8 24v16q7 24 8 44q26 55 24 112l8 28q26 89 -68 68l12 -24l-8 -12l4 -8l-4 -24l-8 -32l-4 -28l-4 -28q-10 -47 -24 -76l8 -8l-4 -12v-24q-11 -18 -12 -32q-1 -50 -24 -88
q-11 -70 -40 -116q-3 -81 -44 -136l-4 -28q-9 -15 -12 -32q-9 -30 -20 -48q-5 -21 -12 -32l-4 -8v-12l-20 -20q-17 -50 -44 -80l-24 -16l-4 -24l-24 -4l-4 -8q-35 -22 -52 -48q-30 -3 -60 -16q-49 -25 -96 -24h-12h-12l-12 -4l-16 4h-12l-8 -4q-30 7 -52 4l-8 4h-12
q-24 7 -40 8l-4 8q-152 59 -236 176q-26 19 -40 36q-137 261 -128 520q-7 23 -4 40v12l-4 44v32l4 12v20l-4 16l4 8v12v52q-4 6 -4 12v16q-10 40 -12 68l-32 8q-7 -14 -16 -24z" />
    <glyph glyph-name="V" unicode="V" horiz-adv-x="1843" 
d="M1230 1120l-8 -16l-12 -8l-8 -12q-17 -20 -24 -36l-12 -12l-8 -16l-8 -8l-16 -24l-8 -16l-20 -24l-40 -72l-20 -20q-18 -38 -40 -60l-16 -24l-12 -16l-8 -8l-32 -56l-16 -12l-4 -16l-8 -8l-8 -8q-11 -21 -28 -36q-2 -11 -8 -16q-18 -41 -48 -60l-4 -8q-4 -7 -8 -8
q-16 -45 -44 -72q-1 -10 -4 -16q3 -12 -8 -20q-14 -21 -20 -36l-8 -20l-8 -16l-16 -24q-19 -56 -56 -92v-12q-22 -32 -32 -56q-28 26 -40 56q-34 44 -48 80q-15 14 -20 32l-16 24l-20 20l-8 8v12q-35 39 -48 80l-12 8l-20 24q-26 41 -48 64v12q-19 29 -28 52l-4 12
q-32 35 -44 68l-8 16l-8 16l-8 8l-8 12v12q-7 4 -8 8l-8 8l-4 8l-4 16l-8 8l-8 16v12l-16 24l-16 40q-18 24 -24 44l-8 12l-8 16l-8 12l-12 28q-35 35 -48 72q-21 5 -36 4q-9 -30 0 -52q11 -9 16 -20l12 -24q5 -4 4 -8q6 -12 8 -24q19 -14 28 -32l12 -16l20 -60l16 -12
l8 -20q4 -6 4 -12q20 -35 28 -60l12 -12l4 -8l8 -24q18 -22 24 -44l4 -12q18 -25 24 -44q37 -41 48 -84q15 -14 16 -32q16 -3 16 -16l12 -12l36 -56l8 -16l16 -20l12 -20l16 -28q17 -23 24 -40l8 -16l28 -36l24 -44l28 -36q12 -34 32 -56q-9 -37 0 -64q19 -4 32 -4
q38 -61 76 -8v12q-15 29 -16 56q-13 0 -16 12l12 12q1 10 4 16q14 21 32 36l4 20q15 29 28 44l4 24q4 7 8 8l40 68l20 44l4 8q31 48 40 88q10 13 24 20q10 20 24 28l12 28q13 16 16 28l8 4q42 56 60 96l52 60l4 24q15 5 20 16l8 16l12 16q2 10 8 16l16 20q19 28 36 44l8 12
v12l8 12l4 8l16 20l12 28l12 4q30 61 68 92q14 29 32 48l-4 24l-20 4q-22 -23 -40 -36z" />
    <glyph glyph-name="W" unicode="W" horiz-adv-x="2100" 
d="M1518 1154l-4 -32l-4 -24l-8 -16q-13 -18 -16 -36q-12 -22 -16 -44l-4 -8l-4 -12v-12l-8 -8l-8 -32q-15 -24 -20 -44l4 -12l-8 -4l-12 -72q-14 -14 -16 -28l-4 -16l-4 -8l-8 -36l-4 -28l-4 -16l-4 -12l-4 -16l-16 -72l-4 -24l-4 -8l-4 -20q-15 -49 -16 -84l-8 -16l-4 -20
l-8 -20l-4 -24l-4 -12l-8 -32q-15 -19 -16 -40l-4 -12l-4 -12l-4 -16l-12 -28q-5 -43 -16 -72l-24 12l-20 28q-46 35 -68 76q-28 21 -36 48q-44 40 -60 88l-12 12l-8 16q-29 23 -40 52l-16 4l4 16l-12 8q-28 53 -60 84l-4 8q3 38 -12 60q-37 -9 -64 8l-24 -16q2 -40 28 -68
l-12 -24q-13 -20 -16 -36q-13 -19 -16 -32l-32 -56l-12 -28l-4 -12q-17 -25 -24 -44l-8 -12l-8 -12l-12 -12l-4 -20l-24 -32q-11 -30 -24 -48q-14 -38 -32 -60q-8 -34 -20 -56l-4 24q-25 45 -48 72l-8 16l-8 24q-9 7 -12 16l-8 16l-12 16l-8 16l-4 16l-12 8l-4 16q-7 4 -8 8
l-4 12l-8 8l-4 8q-12 20 -16 36l-8 8l-12 28q-14 23 -20 40q-13 14 -16 28l-8 4l-52 104l-8 4q-8 23 -24 40l-12 20q-21 32 -28 56l-8 20q-6 12 -8 24q-13 16 -16 32l-8 20q-18 32 -24 56q-6 11 -8 20l-12 12l-20 68l-8 8l-32 72q-14 17 -32 16q-15 -40 4 -76l8 -12
q11 -46 28 -76q15 -30 16 -56q17 -22 20 -44q28 -40 32 -76q24 -30 24 -60l12 -8l8 -20l8 -12l4 -12q12 -19 24 -32l4 -8v-12l8 -8l8 -8q10 -33 28 -56q14 -39 32 -64l12 -20q4 -6 4 -12q17 -22 24 -40q17 -28 24 -56l12 -12l8 -12l8 -16l8 -24l12 -8l4 -20l16 -28
q14 -15 24 -20v-20q14 -18 20 -36q35 -38 44 -80q39 -24 72 -28l4 16l8 8l4 32l8 28l16 20l8 16l12 20l4 12l4 12l4 8l16 20l4 12l4 16l8 12l8 8l4 12l4 12l12 16l8 4q17 44 40 68q10 37 28 60q17 68 60 108l40 -52q32 -77 84 -124l12 -28q24 -26 28 -56q19 -10 28 -20l4 -8
l8 -8l4 -12q31 -33 44 -64l12 -4q27 -32 52 -48q29 -35 32 -72q18 -19 40 -20q33 29 40 64l8 24l4 20l8 20l16 68l8 24l4 24l8 12q6 27 16 44l4 12v12q8 14 8 32l20 64l4 16l4 16v12l4 12l8 80l20 52l-4 16l4 20l4 20l4 20l8 20v12q8 23 8 48l8 24l16 52q7 36 20 60l4 12
l4 16l4 12l4 16l8 16q8 45 28 80q3 31 16 52q13 37 4 68h-4h4h-4h-8h-8z" />
    <glyph glyph-name="X" unicode="X" horiz-adv-x="1583" 
d="M974 1272l-12 -8q-28 -53 -72 -84l-16 -24l-20 -12q-14 -28 -36 -40q-4 -7 -8 -8l-4 -12l-32 -44l-8 -4q-25 -39 -52 -60q-18 -27 -36 -44l-4 -16l-16 -16q-13 -20 -28 -28l-4 -8l-8 -12l-8 -12l-8 -16l-12 -12q-11 -22 -24 -32l-12 -16q-4 -7 -8 -8q-14 -20 -28 -28
l-4 -8l-8 -8l-4 -8l-8 -8l-40 -48q-45 44 -64 88q-45 45 -64 88q-28 22 -36 48q-29 26 -40 56l-20 12l-16 24l-4 8q-92 82 -124 184q-26 33 -32 68q-17 15 -36 16q-17 -30 -12 -56l12 -12l4 -12l4 -12l4 -12q22 -32 32 -56l36 -72q27 -24 40 -48l8 -8l16 -24q37 -31 52 -68
l12 -12q21 -27 32 -48l12 -8l4 -16l8 -4l12 -4l4 -12l4 -12q5 -4 4 -8q37 -37 52 -76q37 -29 52 -68q-7 -14 -16 -24l-16 -24l-24 -32q-20 -19 -24 -40l-16 -4l-4 -12l-12 -4q-32 -61 -72 -92l-4 -16q-21 -26 -32 -48l-12 -16l-8 -16l-12 -16l-4 -8l-24 -32l-24 -32
q-5 -6 -12 -8q-12 -30 -32 -48q-17 -40 -44 -64q-12 -38 -4 -68q27 -7 48 4q26 71 68 112q15 33 36 52l8 28l8 12l8 12l8 4q6 19 20 28q21 55 60 84q27 54 68 84q21 41 52 64q17 42 52 60l16 -24l16 -28q20 -19 28 -40q10 -7 16 -16l8 -12q35 -41 52 -72l4 -8q38 -35 52 -72
l12 -8l8 -12l12 -12l12 -16l12 -12q14 -16 20 -32l28 -40l4 -12l28 -28v-12q18 -13 20 -32q16 -13 24 -28q31 4 52 16l4 32l-4 8l-8 8l-20 20l-8 8l-16 24l-16 28q-26 25 -36 52q-23 21 -32 44l-8 4q-13 26 -28 40l-4 12q-22 19 -32 40q-53 49 -76 104l-8 4l-16 28l-8 4
q-26 29 -36 56q-24 23 -32 48l12 12l4 16l20 20q19 38 48 60l16 28l4 8l8 4q21 39 48 60q21 35 48 56l8 20q27 21 40 48l16 16q7 17 16 28l16 24l16 8l12 12l8 16l8 20l12 12l16 12l8 12q21 24 40 36l8 12l28 36q26 31 48 48q17 28 36 44q7 20 0 36l-28 4q-14 -23 -32 -32z
" />
    <glyph glyph-name="Y" unicode="Y" horiz-adv-x="1716" 
d="M12 1162q19 -4 24 -20q35 -42 48 -76q26 -20 40 -40q31 -24 44 -52q67 -47 100 -104q21 -14 28 -36q46 -40 64 -84l56 -52l8 -12l12 -8l12 -12l8 -12l4 -12q15 -9 24 -20l32 -36l4 -20l4 -24l-8 -16l8 -12v-12q-4 -19 -4 -32l4 -100q-4 -55 0 -92l-4 -16l4 -72
q-2 -53 -8 -88q12 -45 12 -76q22 -30 52 -32l4 8l16 20l-8 12q2 32 -12 56v20q-2 29 -8 48l4 16q-8 22 -4 44l-4 20l4 24v32l4 16q-4 23 0 44l-8 12l4 52q-2 6 0 12q-5 20 0 32l-4 28l4 12q-6 30 0 60l4 8q33 6 56 20l4 8l8 4q25 39 56 56q10 22 20 36l16 12l4 8l12 4l4 8
l8 8l56 40q19 23 40 36l12 8l12 8l12 12l12 8l24 16l8 8l12 8l52 40l20 16q13 24 32 36l4 8q4 7 8 8q14 22 32 32q16 27 36 40v24q53 33 40 84q-23 8 -40 4q-44 -88 -112 -136l-4 -20l-12 -4q-53 -73 -124 -108q-23 -31 -52 -44q-22 -28 -48 -40q-22 -25 -44 -36
q-13 -18 -28 -24l-4 -12l-12 -8l-4 -12l-12 -8l-16 -12l-4 -12q-40 -29 -60 -56h-28q-36 23 -52 52q-19 12 -28 28q-44 27 -60 64q-48 36 -68 84l-12 4l-8 8l-4 12l-8 4l-8 8l-24 20l-16 28q-27 21 -40 48l-28 16l-8 16q-6 5 -8 12q-55 39 -80 84l-8 4l-48 68l-32 8z" />
    <glyph glyph-name="Z" unicode="Z" horiz-adv-x="1669" 
d="M952 1202q-24 -1 -44 -8h-24h-16l-20 -4h-12q-13 7 -32 8h-12h-12h-32q-37 -9 -64 0q-49 -1 -76 -8h-16l-16 4q-20 -1 -32 -4h-64h-12q-15 5 -32 4h-20l-12 -4l-16 4l-24 -4l-16 -4h-16h-12q-24 -2 -40 0q-11 -3 -16 0q-14 -4 -28 -4q-31 -14 -60 -12l-16 4l-104 12
q-24 -20 -28 -48q39 -17 80 -12h16q23 1 40 -4l56 8h12q23 4 44 0q37 11 64 12h56q6 2 12 0h12l12 -4h40h12l8 -4l52 4q36 -5 68 4h12h24h20l24 -4h20h16h24l12 8l16 -4h16h20h12h32q47 6 80 4l-8 -12l-12 -12l-12 -16l-8 -12q-19 -16 -32 -24l-4 -8l-36 -40l-8 -8l-56 -64
q-17 -37 -40 -60l-12 -24l-20 -20q-7 -10 -8 -20l-16 -8q-11 -20 -24 -32l-8 -12l-4 -12l-12 -8q-4 -7 -8 -8l-4 -12l-24 -28l-8 -12q-4 -7 -8 -8l-16 -24l-24 -20q-21 -37 -48 -56q-13 -33 -40 -56q-16 -30 -36 -48l-8 -24l-12 -8l-4 -8l-20 -20q-26 -41 -60 -64l-8 -20
l-8 -8q-18 -24 -36 -36q-16 -25 -24 -44l-12 -8q-15 -16 -24 -28l-12 -8l-16 -24l-8 -12l-24 -20l-16 -24q-29 -15 -44 -28l-4 -12q-26 -29 -36 -52l16 -24q32 0 56 -8h48h16h12h40h36l12 4q43 1 72 8l24 -4h12l52 -4l12 4h12h12h20h12h56l8 -4q26 5 44 0h20l52 4h32l80 4
h16h16q30 3 52 0q23 6 40 4l16 4l44 -4l12 4l16 -4h16l12 -4h12h12l8 4q26 -5 44 -4l40 -4q16 37 0 64l-16 4l-68 4h-16q-55 -6 -96 4q-21 -5 -36 -4q-37 -11 -68 -4q-22 -10 -40 -8l-16 4q-24 -6 -44 -4l-64 -8q-6 4 -8 8h-40h-16h-16h-12q-6 -4 -12 -4h-12l-64 -4l-20 8
q-78 -14 -136 0h-24q-45 -13 -80 -8q-56 -11 -100 4q15 29 36 44l8 12l8 16l12 8q19 24 28 40l24 12l64 84q11 12 24 20q19 36 44 56l8 20q13 15 28 20l4 8l52 76l8 4q32 49 56 76q27 28 40 48q19 26 40 40l8 24l12 12l12 12l12 20l8 12l12 12l8 12q12 19 24 28q29 51 60 80
l4 8l4 12l4 8q12 17 24 28q2 18 12 28l16 12q8 9 16 12q10 20 20 32q2 9 8 12l16 8l8 12l12 4q22 32 48 48l4 8l32 32q12 28 36 40q12 43 -28 52q-31 -14 -60 -16zM202 622l24 -4h24l24 -4l24 -4h12h52q19 -5 32 -4q20 -1 32 -4q35 1 60 -8q38 4 68 -12q24 -1 44 8
q24 -6 44 -4l92 -16l8 4q66 -9 116 4q2 33 0 56l-20 4q-48 -12 -88 -8q-18 5 -32 0h-16l-8 4q-38 2 -64 8q-30 -1 -52 4h-20q-30 1 -52 8h-40l-20 4h-12h-12l-72 4l-8 4q-4 -5 -8 -4h-12l-12 4q-54 -1 -96 12q-28 -27 -12 -56z" />
    <glyph glyph-name="backslash" unicode="\" horiz-adv-x="1431" 
d="M4 1202l16 -8l4 -12l8 -12l20 -40q7 -4 8 -12l8 -8l12 -12l8 -8l4 -12q7 -4 8 -8l4 -8q27 -27 40 -56q12 -7 20 -16q14 -30 32 -48q13 -28 24 -44l4 -8l32 -60q7 -4 8 -8l8 -8q19 -39 40 -64v-12q29 -29 36 -64q17 -14 20 -32q9 -9 12 -20q18 -11 24 -24l8 -24
q20 -18 24 -40q5 -4 4 -8l48 -56l8 -16l28 -48l16 -16l8 -16q13 -17 20 -32l8 -4l16 -28l4 -8l16 -24l12 -24l16 -16l12 -20l36 -44l12 -12l8 -12l12 -12q11 -18 24 -28l4 -12l8 -8l4 -12l12 -8l12 -24q29 -20 44 -44q37 1 56 28l-8 20l-4 20l-20 4l-8 8l-8 12l-16 16l-8 12
l-12 12l-4 12q-7 4 -8 8q-4 6 -4 12q-46 34 -64 76l-20 16l-20 36q-35 36 -44 76l-16 12l-12 16l-4 12q-21 21 -32 40l-12 20q-29 35 -40 64q-10 8 -16 16l-12 20q-4 6 -4 12q-21 24 -32 44l-4 12q-22 21 -32 40l-28 52l-8 16l-16 28q-27 27 -36 56l-24 20l-4 20
q-26 30 -36 56q-28 35 -36 68q-53 49 -76 100q-66 53 -92 124q-22 19 -44 24q-17 -21 -16 -40z" />
    <glyph glyph-name="a" unicode="a" horiz-adv-x="2042" 
d="M756 1186l-8 -8l-4 -16l-8 -8q-17 -33 -40 -52q-16 -38 -36 -60l-8 -12l-56 -100l-12 -24l-16 -24l-12 -24l-16 -28l-4 -8l-8 -12l-8 -4q-8 -29 -28 -40v-12l-12 -24q-35 -49 -52 -84l-16 -16l-8 -20l-12 -20l-12 -16l-16 -24l-16 -16q-17 -38 -44 -56q-6 -29 -20 -48
l-4 -8q-14 -17 -20 -32q-11 -18 -24 -28q-10 -21 -24 -32v-12q-18 -25 -36 -40l-4 -20l-12 4q-47 -13 -84 -8q-47 -12 -84 -8l-24 -16l8 -36h12q20 4 32 0q55 11 100 0q-15 -28 -36 -44l-4 -8l-4 -12l-4 -16l-8 -12l-16 -24l-24 -52l20 -20l24 4l16 28q24 58 60 92l4 8l4 12
l12 4q13 33 36 52l28 8h32l64 12h32l8 -4q47 12 92 4l28 8q20 -4 36 -4l88 4l24 -4l12 4h44l16 4l8 4q42 5 68 4l24 8l52 -4h20h24h20h12h20h16q23 5 40 4h24l12 4h16l12 -4h12q62 8 100 4l8 -20l8 -12q15 -24 20 -44l12 -8l4 -16q6 -11 8 -20q30 -35 36 -72q24 -22 32 -48
l36 -8q21 28 28 52q-21 22 -28 40l-8 12l-4 12l-12 28q-15 22 -20 40q-31 33 -36 72l32 -4h16l12 4h12h16l12 8l12 -4l68 12q5 21 12 36q-15 18 -32 24q-21 -2 -36 -12l-36 4l-12 -4l-12 4q-62 -14 -108 -8l-4 12q-19 24 -24 48q-26 30 -32 60l-8 12l-12 20l-8 8
q-26 53 -48 84l-8 20l-40 88q-7 4 -8 8v16l-8 12l-4 12l-4 16l-8 12l-4 16l-36 88q-26 38 -32 72l-8 8l-4 16l-8 8l-4 12l-8 8v12l-20 20v16q-5 4 -4 8l-8 8l-4 8l-8 24l-4 12l-4 8q-22 45 -28 80q-17 38 -52 40q-13 -17 -16 -32zM788 1066l8 -12l4 -16q15 -23 20 -44l4 -12
q7 -4 8 -8l32 -60q19 -55 44 -88q9 -32 20 -52l4 -16q12 -15 12 -32q5 -4 4 -8q22 -45 28 -76q7 -7 8 -16l4 -16l8 -8l4 -16q16 -22 20 -44q20 -24 28 -48l8 -8l16 -24l4 -16l16 -24q24 -31 32 -60q15 -21 20 -40l-36 -4l-16 4q-47 -12 -88 -8h-24h-28l-24 -4l-28 4
q-25 -6 -44 0l-24 -4l-24 4h-12q-38 -14 -76 -12l-68 -4l-24 -4l-12 4l-12 -4q-37 6 -68 0q-36 3 -60 -4h-20h-16q-24 -6 -44 -4h-16h-52q-41 -15 -76 -12q24 54 52 84q15 27 28 44q22 43 44 68l12 16l4 12l8 8q4 7 8 8q15 30 28 48q34 58 64 88l4 20l12 20l8 20l48 68l8 16
l8 16l12 12q12 29 24 44q28 77 72 120l4 12l8 8l4 12l8 8l4 8l4 8l4 8l40 60q16 -22 16 -44z" />
    <glyph glyph-name="b" unicode="b" horiz-adv-x="1783" 
d="M514 1186h-16l-76 -12l-12 4h-16h-16q-6 -4 -12 -4h-16q-37 -9 -64 -8l-4 -8l-92 -20q-9 36 -44 28q-13 -27 -16 -48l-16 -4l-32 -4q-52 -21 -96 -20q-3 -19 0 -32l16 -4q72 19 120 20l8 -100q2 -15 0 -28q8 -55 4 -92l8 -8q-6 -16 -4 -32q7 -47 0 -80q6 -13 8 -24
l-4 -28q9 -37 -4 -68v-12q12 -21 12 -40l-4 -8q7 -32 4 -60v-16q-4 -40 0 -68v-52l-8 -56v-12q3 -6 0 -12l4 -8v-88q2 -40 -24 -56q-67 26 -104 -20l20 -36h12l8 -4l72 -8l4 -12q-3 -32 4 -56q40 -4 68 8q-8 33 -8 56q10 -1 16 0l16 -4h12h12h16q15 -5 32 -4l32 -8
q27 -10 48 -12q36 13 68 12l92 -16l12 8q26 -5 44 -4l12 4l8 -4h12h32h28q4 5 8 4q43 8 72 20l12 -4l16 4l16 4q26 4 44 12h16q6 4 12 4q6 4 12 4h20q15 6 28 8l24 4q16 11 32 12l28 12q34 29 72 36q21 28 48 40q12 16 24 24q46 89 44 180v4v-4v8v-4v4q-65 258 -356 280l8 8
q34 21 60 28l8 8l12 4q34 39 68 56q23 90 -4 160l-4 28q-9 12 -12 24q-193 204 -468 196zM518 1142q364 -6 452 -264q-3 -53 -24 -92q-31 -25 -64 -32q-141 -97 -296 -88q-4 -7 -8 -8h-16q-30 -1 -52 4q-27 -6 -48 -4q-6 -4 -12 -4h-12l-8 -4l-24 4l-48 -8q-40 -4 -68 4
q-49 -19 -88 -4v16l-4 32v44q-10 46 -4 80v20l-4 16l-4 28v44v16l-4 12v28q-6 53 -4 88q-1 12 4 24h16q28 16 52 16l28 12l8 -4q23 10 44 12h44h16h12l20 4h12q44 6 76 0zM1150 402q3 -79 -24 -140l-4 -24l-8 -8q-43 -42 -88 -56l-12 -20h-12q-37 -18 -72 -20l-52 -16
l-16 -4l-68 -12l-32 -4l-100 -20l-16 4l-20 4l-12 -4l-16 4q-54 -3 -92 4l-20 -8l-20 8h-16q-30 -4 -52 0h-20l-12 4h-24l-12 8h-44l-12 4l-8 4q-43 -2 -72 4v24l4 64v68l8 24l-4 16v16v24v52v56v12l4 16l-4 8l4 84h12q31 4 56 0l8 4h52h16h12q6 4 12 4h12h16q6 4 12 4h12
q42 0 68 4q21 -4 36 0l20 4l24 4l40 8h16h20l12 4h16q16 6 32 4l8 4q43 -6 72 4q282 5 360 -224z" />
    <glyph glyph-name="c" unicode="c" horiz-adv-x="1930" 
d="M686 1286h-56q-26 -12 -48 -12q-12 -10 -24 -8l-12 -8q-21 -6 -36 -4l-16 -4q-51 -30 -92 -40l-8 -12l-36 -20l-12 -12l-8 -12q-20 -13 -28 -28l-24 -16l-12 -4q-22 -33 -44 -48v-16q-89 -50 -112 -140q-54 -45 -44 -108l-24 -32l8 -12q-14 -13 -20 -24v-20
q-16 -39 -12 -72l-12 -32q6 -47 -4 -88q59 -234 232 -356q26 -11 40 -28q42 -18 64 -44l40 -4l40 -12l16 -4l16 -8q11 3 16 0l44 -12h12q15 -5 32 -4l8 -8q22 3 40 -4q31 0 52 -8l12 8q12 -9 24 -12h12h16h92q320 60 500 272l8 4l8 4l8 12q30 17 48 40q-5 42 -44 40
q-4 -7 -8 -8l-24 -16q-41 -50 -84 -72q-158 -174 -372 -188l-4 -8h-28q-4 -5 -8 -4q-93 -12 -164 8h-28l-12 4h-12l-64 16h-16l-12 4h-16l-12 8q-23 1 -40 8l-12 4h-12l-32 8l-28 8q-261 153 -276 420q25 322 232 468q228 264 584 136q23 0 40 -4l12 -4l12 -4l32 -8l16 -8
l40 -24q71 -26 112 -60h12l24 -32l8 -4l8 -8q23 -31 40 -48q36 12 36 48q-32 25 -44 56l-16 16l-16 8l-12 8q-18 16 -28 28q-21 7 -36 16l-8 4l-16 8l-8 4l-60 36l-64 20l-12 4q-21 4 -32 12q-10 1 -16 4q-31 4 -52 12q-46 4 -80 16h-12q-19 1 -32 4q-29 1 -48 4
q-6 -4 -12 -4z" />
    <glyph glyph-name="d" unicode="d" horiz-adv-x="1654" 
d="M134 1150q-100 18 -140 -20q1 -20 8 -32q73 12 132 -4l4 -40l-4 -16l4 -12l-4 -32q3 -46 -4 -80q3 -70 16 -112l-8 -32q5 -4 4 -8q2 -37 -4 -64q5 -46 -4 -80l4 -20l4 -68l-4 -20q10 -52 4 -88q3 -10 0 -16l4 -16l-4 -20l4 -12v-88l4 -28l-4 -8q9 -37 0 -68q8 -48 -4 -88
h-16l-12 4h-12l-12 -4l-28 4q-23 4 -40 4q-22 -27 -20 -56l20 -16q94 10 140 -24q29 13 48 32h12h12h12l88 12l16 4l28 8h12l60 16l12 -4q46 18 84 20q39 12 60 24l36 8l12 4q4 5 8 4l8 8q21 5 32 12l64 28l8 8l16 4q28 26 56 36q23 22 48 32q25 32 48 48l32 48l12 4
q12 23 24 40l4 12q41 53 56 100l8 8v12l4 8v16l4 12q10 33 12 56q-4 6 -4 12q-6 15 -4 32q-9 25 -12 44q-9 7 -12 16v16l-12 12l-16 36l-8 12l-4 16q-15 15 -20 32q-24 22 -32 48l-16 8q-18 21 -32 32q-7 4 -8 8q-41 24 -64 52l-24 8q-18 12 -36 12l-4 12q-53 15 -84 40h-16
l-8 4q-48 9 -80 28h-28l-24 4l-12 4h-12h-12l-12 4h-12h-12q-55 19 -104 16l-8 8h-12h-12q-47 16 -88 16q-36 11 -64 8q-11 30 0 60l-32 8q-23 -33 -24 -68zM254 1082l12 -4l28 -4q92 0 164 -32q181 -8 312 -92q238 -110 260 -352q5 -32 0 -56q-80 -208 -256 -292
q-87 -70 -184 -84q-64 -34 -124 -32q-15 -6 -32 -8q-4 -5 -8 -4h-12l-4 -8l-40 -8h-16q-37 -14 -68 -12l-8 -4h-12l-64 -4l4 16q-6 37 0 68q-6 38 -4 64v12l-4 28v12v68l4 12q-8 40 4 76l-8 16q-3 42 0 68l-4 8q0 30 -4 48v20l4 88v16v12v16q-4 62 0 100l-4 12q-7 40 -4 68
l-4 12l4 36q-12 60 0 108v28q41 -1 68 -16z" />
    <glyph glyph-name="e" unicode="e" horiz-adv-x="1785" 
d="M960 1280h-12q-47 -9 -80 -8l-24 -4q-82 16 -152 -8q-80 15 -144 0q-36 11 -68 4l-24 8h-12q-16 -6 -32 -4h-12l-52 -4l-16 -4q-40 7 -68 4l-28 -12l-8 4q-63 -11 -108 -4q-28 -11 -52 -8l-40 -16q-1 -69 92 -28q41 -7 68 -4l4 -20l-4 -12q12 -56 0 -104q5 -22 4 -40v-12
q11 -37 4 -68l4 -28l4 -24q-5 -37 -4 -64l-4 -20l4 -16q-5 -24 -4 -44q4 -11 4 -20l-4 -40q5 -4 4 -8q-3 -29 0 -48l-4 -20l4 -16v-44l-4 -20l4 -28l-4 -12l4 -12q-6 -61 0 -100q-71 -17 -124 -8q-24 -9 -48 -8q-18 -25 -4 -48l12 -4h12l12 4q32 1 56 -4q49 9 84 4
q9 -63 8 -100q-10 -87 20 -152l8 -4q59 -32 104 -40h28l16 4l8 -4h12h32h48q53 2 88 12h16l20 -4q23 6 40 4l16 -4h12h12h28h12h12q37 2 64 -4q37 7 64 8q47 -1 80 4h20l16 4h44h16h12q37 2 64 -4q31 7 52 8q19 41 -12 68h-16h-32q-23 -5 -40 -4q-64 -7 -108 -4h-16l-16 -4
q-34 -2 -56 0h-16h-16l-44 -8q-32 4 -56 0l-8 4l-12 4h-100q-6 -4 -12 -4q-62 3 -104 -12h-16l-16 4q-23 -4 -44 0l-8 -4h-12h-20l-88 8q-16 14 -24 24v20l-4 16v20v16v16q-7 39 -4 68v12l-4 48q30 0 48 -4l48 4l40 4q20 -1 32 -4l67 1l100 -3l56 -3l80 1l39 -1l85 3l106 -1
l92 1l57 2l51 1q31 -10 54 1l29 26q-13 19 -28 32l-12 4l-12 -4l-49 2q-37 1 -96 3l-83 -5l-83 1l-42 1q-48 0 -92 -1q-25 -1 -45 0q-83 2 -162 -5h-16q-26 2 -44 0l-24 8l-40 -4l-12 4l-16 -4q-6 -2 -12 0l-16 4q-61 -4 -100 0l-8 20v12v16v12v20l4 12q-9 46 -4 80l4 16v12
v12v48l-4 24l4 16v12q-8 47 -4 80v32v16l4 64v16v28l-4 24v16q0 37 -12 64l4 12v44v12l-4 8v28l-4 44l8 12q53 4 88 0q47 -2 80 4h48q31 -6 60 4q32 -10 60 -8q16 6 32 4h12q15 -5 32 -4h12l12 4h12h12h32l12 -4q29 4 48 0l24 4l16 -4h12h16q24 6 44 4h16l20 4h12h16
q53 9 92 0l12 8q23 -5 36 -12q40 8 72 4q12 21 16 32l-4 24l-32 12q-6 -4 -12 -4l-12 -4l-16 4l-68 4q-20 0 -32 4q-14 -2 -28 0q-24 -7 -44 -4z" />
    <glyph glyph-name="f" unicode="f" horiz-adv-x="1824" 
d="M1228 1302q-36 -7 -68 -4l-28 4h-12h-20h-12l-20 -4l-8 4q-18 -7 -32 -4l-48 -8h-52q-24 4 -44 0l-12 4q-6 -4 -12 -4l-16 8l-20 -4l-16 4l-20 -4l-16 4h-88q-47 -8 -80 -4l-8 -8l-16 8l-16 -4q-24 0 -44 8l-12 -4h-16l-32 4h-12h-48l-24 4h-20l-16 -4q-42 3 -72 -4h-20
l-16 -8h-20h-16l-20 -4q-22 -5 -40 -4q-21 0 -40 -8l-28 4l-60 -8q3 -19 12 -32l44 -12q23 1 40 4l8 -4q53 14 100 4l12 -108q5 -47 -4 -80l4 -8v-40q4 -19 0 -32q6 -24 4 -44l-12 -4h-12h-16q-37 -5 -68 4q-13 -4 -24 -4l-16 -24l4 -16l12 -4l16 -8h28h12h12q37 2 64 -4
l4 -12l-4 -16q8 -62 4 -100v-32l-4 -12q1 -29 -8 -56l4 -28l4 -24l-4 -8v-32q1 -37 -4 -64q3 -13 0 -24v-24l4 -20l4 -52l4 -24v-16q0 -54 4 -88l-4 -12l4 -36q-6 -30 0 -52q-9 -84 8 -140q26 4 32 24q19 -7 28 12q-7 39 0 68l-4 20q-2 32 4 56l-8 16q5 24 4 44l-4 12l4 8
q-6 44 -4 72q3 23 0 40l-12 36l4 20v12q-7 53 0 92v12l-4 32v16l4 12v12l-4 12v12q11 38 8 68q6 20 8 36q-8 39 -4 68q-6 31 0 60l12 8l12 -4q25 7 44 8l16 4q21 -1 32 0l100 12l68 -8q41 10 76 4l20 -4q37 6 64 0h12h20h12h16l12 4l80 -4h16h12h12q30 5 52 0q71 20 128 12
l28 28q-9 28 -24 44l-8 -4h-12h-12q-54 -15 -88 -16h-20h-16l-100 -8l-24 8l-8 -4q-71 12 -128 -4q-53 6 -92 -4l-40 12q-37 3 -64 0q-33 -5 -56 -12h-12h-8l-8 -4q-15 -2 -28 0h-24q-40 -11 -76 -4v20v28q-4 6 -4 12v20l-4 12v16v12v16v72q-16 64 -8 116l28 4l8 -4
q62 10 108 0h24l12 -4q37 3 64 0l12 -4q24 7 44 4l36 4l8 -4h56l52 4q20 -1 32 -4h28l8 -4q38 3 64 0q11 4 20 4q22 -4 40 0q37 -7 68 0l12 -4l76 8l16 -4q31 6 56 0l8 4h16h32q31 9 60 8q44 47 -16 60q-9 -7 -20 -8z" />
    <glyph glyph-name="g" unicode="g" horiz-adv-x="1714" 
d="M232 1082l-8 -24q-46 -34 -64 -76q-44 -42 -60 -92l-20 -20q-7 -33 -28 -56l-4 -24l-12 -28q-2 -25 -12 -44l-4 -16l4 -12l-4 -28v-12l-4 -52v-100l8 -16q6 -24 16 -40l4 -12l8 -12q12 -32 16 -56l8 -8l4 -8v-12l8 -4l4 -8q13 -38 28 -60q4 -6 4 -12q6 -5 8 -12l8 -4
l4 -12q4 -1 8 -4.5t4 -7.5q5 -4 4 -8q30 -24 44 -48q240 -173 500 -136q382 79 476 432q0 26 -12 44q-20 0 -50 -9l-75 -4q-70 -6 -123 1q-23 -5 -40 -4l-20 -4h-24q-25 -4 -303 -1l-37 1l-103 -5q-191 10 -127 -50h201l151 -3q97 0 230 2h16l84 4q39 12 71 -1l29 6
q37 8 66 -2q-72 -241 -302 -311q-240 -106 -492 40q-168 118 -208 300q-45 88 -24 176q-8 124 52 216l4 28q195 334 492 324q132 28 248 -12q121 -29 176 -120l16 -8q42 2 36 40l-56 72l-12 4l-24 20l-12 4l-12 4q-16 13 -32 16l-28 16l-8 4l-8 4q-28 4 -48 12h-20
q-26 -1 -44 8h-20l-68 4h-12h-48q-264 -20 -428 -184z" />
    <glyph glyph-name="h" unicode="h" horiz-adv-x="2046" 
d="M1298 1222l4 -16q-14 -41 -12 -72q-7 -39 -4 -68l-8 -88q4 -6 4 -12v-64q0 -40 4 -68l-4 -12q0 -20 -4 -32q5 -24 0 -44l-4 -24q9 -31 8 -56l-4 -16q2 -37 -4 -64l8 -24l-4 -8v-12l-4 -104q-2 -14 0 -28q-15 -44 -8 -80q-24 -9 -44 -8q-6 -2 -12 0q-4 -5 -8 -4
q-43 0 -72 -8l-16 8h-20l-24 -4l-16 4h-20l-24 -4h-20q-23 -1 -40 4l-12 -4l-12 -4l-12 4l-12 -8q-4 4 -4 8h-20h-8q-30 -7 -48 -8l-28 4h-24l-28 -8l-24 4l-28 -4q-44 5 -72 0l-4 8q-32 1 -56 -4l-20 4h-16l-12 -4l-12 4q-47 -9 -84 0q-62 -11 -108 -4v16q-6 30 -4 52v44
l-4 12v16l4 20q-3 9 0 16l-4 12l4 92v12l-4 8v12l-4 64l-4 44l4 16v12v28q-2 53 4 88v12v12v28v72l-4 8v12l4 8q-5 33 0 60q-2 61 16 108q-10 19 -24 24q-31 -18 -40 -44l-8 -80l-4 -28l4 -92l-4 -32l8 -28q-10 -37 -8 -64q1 -40 -4 -68q6 -15 4 -32q-7 -38 -4 -64l4 -16
v-28l4 -20q-2 -31 0 -52v-16l-4 -28q6 -24 4 -44q5 -40 -4 -68q5 -4 4 -8v-28l4 -72l-24 -4l-20 4l-24 -4l-16 4h-12h-20q-31 4 -52 0q-25 9 -44 4l-16 -20l8 -24h12l8 -8q32 -5 56 -4l12 -4h12l12 -4h16l8 4h12q40 -8 72 -4l4 -12v-16v-28q3 -45 0 -72l12 -20
q-6 -49 16 -88l52 4l4 20l4 16l-4 8l-4 12v12l-8 28l-4 12v12v16q-5 4 -4 8v16q-7 29 0 48q-4 13 -4 24l28 4h32l20 -4l16 4l20 -4l16 4l16 -4l8 4l12 -4q30 8 52 4h16h24l12 -4h12l8 4l8 -4h64l8 -4l8 4h16q20 0 32 -4q33 6 60 0l20 4l20 4h12h12h52l64 8l16 -4l16 4l12 -4
q48 8 84 0h12h12q20 0 32 -4h12q41 12 72 12q20 0 32 -8l-4 -16l4 -24l-4 -16v-16q1 -23 -4 -40q13 -48 4 -88q32 -48 72 -16v16l4 20q-3 22 0 40l-4 12l-4 16l4 12v32q-10 47 -4 84h20l12 4h16l8 -4h12h80l4 8q14 16 20 32q-13 20 -24 32l-28 -8l-12 8q-15 -6 -32 -4h-44
q-23 4 -40 4l-4 24v16v20v16v20l4 16q0 21 4 32q-5 4 -4 8v12l4 12v28q-3 31 4 60q-4 6 -4 12v32v80l4 68q-3 42 0 68q-6 21 -4 36l-4 24l4 20q-1 24 4 44q-7 37 0 64v16q3 32 0 56l4 16v28q13 62 8 104h-4h4h-4l-20 4q-30 -22 -32 -52z" />
    <glyph glyph-name="i" unicode="i" horiz-adv-x="1736" 
d="M26 1166l16 -12q42 1 72 -8h24h20l20 -4l8 4l16 -8q60 4 100 -4h12l16 4h40l12 4l12 4l12 -4q32 2 56 -4h12l28 4q24 -5 44 -4l4 -28v-28v-28l-4 -8q4 -32 0 -56v-12q7 -44 4 -76q7 -4 8 -8q-15 -25 -12 -48v-28q-4 -50 8 -88l-8 -28q5 -4 4 -8q-1 -43 4 -72
q-5 -44 4 -76l4 -8l-4 -8v-12l4 -28v-24v-20q6 -29 0 -52l8 -16l4 -20q-6 -24 0 -44l-4 -20v-44q8 -46 0 -80q11 -45 4 -80h-20h-12q-37 8 -64 4h-16l-8 4q-29 1 -48 8h-16h-20h-12l-28 4h-32q-27 -7 -48 0l-64 -20l-12 -4l-24 8l-8 -4h-12l-64 -4l-16 -44q19 -14 36 -20
l20 4q23 -1 40 4l12 -4l16 4l100 16l12 -4q20 1 32 4q24 -8 40 0q32 -9 56 -8l8 -8q23 4 44 -4h28q14 3 28 -4q14 5 28 4q19 -4 32 -4h24h28l12 -4q19 3 32 0q49 4 84 -4h20h20h16h12l80 4h24h20h20l16 -4h20h20l20 -4l12 4l16 -4l8 4q49 -8 84 -4q23 21 40 32q-9 24 -24 40
l-40 -8l-12 8h-52h-12q-29 9 -52 4l-32 4q-20 2 -32 0h-16h-12q-22 -1 -40 -8l-40 8l-32 -8h-12h-12q-19 4 -32 4q-71 -4 -120 8v28l-4 12v16v28l-4 72l-4 8v40v16v12l4 28q-6 30 -4 52v20l-4 20v20q-5 18 0 32q-5 22 -4 48q-5 22 -4 44v12v12q-12 36 -8 68v56l-4 16
q7 32 4 56v20v12q0 20 4 32v80l-4 8v44v12q-2 47 4 80q-3 23 0 40l24 4q46 -9 76 -8q47 4 80 0h12h12h20h12l16 4l12 -8q20 0 32 4q24 -5 44 -4l28 -4q47 9 88 0q38 6 64 20q1 41 -36 56l-12 -8l-16 8l-28 -4l-24 -4h-12l-8 4q-12 -3 -24 0l-32 -8l-32 12q-62 -12 -112 4
l-16 -4q-12 2 -24 0q-38 3 -68 -8l-20 8h-16q-41 -7 -72 4q-64 -12 -116 0l-12 4q-15 -6 -32 -4q-6 -4 -12 -4q-40 1 -72 -12l-16 8h-12q-15 -10 -28 -8l-12 8h-20h-12l-92 4h-12q-49 13 -84 12q-26 -20 -20 -48z" />
    <glyph glyph-name="j" unicode="j" horiz-adv-x="1623" 
d="M1034 1274q-1 -24 4 -44l-4 -28l4 -12l-4 -12v-52l-4 -8q0 -34 -4 -56l-4 -12v-12q5 -4 4 -8v-12q10 -55 4 -96q10 -57 -4 -104q5 -32 4 -56v-32q3 -6 0 -12v-44q11 -35 4 -64v-16q3 -23 0 -40q0 -96 -12 -156l-4 -68q0 -71 -16 -120q-91 -132 -244 -124q-92 -38 -172 0
q-73 12 -120 52q-125 35 -200 120l-40 20l-8 28q-110 101 -144 224q-30 9 -52 -8q-1 -22 0 -40l12 -12l4 -16l12 -12l4 -16q16 -20 24 -40q6 -5 8 -12q15 -15 20 -32q18 -14 24 -32q28 -18 40 -48q7 -4 8 -8l16 -8l8 -12l16 -12l12 -12l12 -8l36 -28l8 -8l4 -12l8 -4l8 -4
l8 -4l8 -8q34 -18 52 -36l36 -4q198 -125 396 -60q80 4 140 32l12 4l8 12l12 8l4 8l8 8l20 20l8 4q4 7 8 8l40 52q1 10 4 16v16l4 20v16v16l4 12l4 68q1 51 8 84q-3 19 0 32l4 12l-4 12l4 12v12v12v16l-4 12q6 47 0 80v20l-4 48l4 12l-4 16l-4 40q5 21 0 36l4 24v20
q-1 30 4 52l-4 8l4 28q-6 24 -4 44q-6 30 -4 52v16q0 31 4 52v20v12q-1 24 4 44q-6 36 0 64q-13 27 -28 40h-12z" />
    <glyph glyph-name="k" unicode="k" horiz-adv-x="1690" 
d="M84 1178l-8 -28q16 -33 8 -64l-8 -16l4 -20l-4 -16v-24q-1 -29 -8 -48q3 -11 0 -16v-44l-4 -8q5 -37 4 -60v-12l-4 -28v-16q4 -37 -8 -68l8 -24v-12q-24 -60 -20 -112q4 -40 -4 -68q7 -36 -4 -68q1 -37 -4 -64q9 -29 8 -52v-24l-8 -16l4 -24l-4 -16l-4 -8l4 -12
q-6 -28 -4 -48v-16v-28v-12q-9 -54 -4 -92q27 -23 52 -8q1 37 24 56l-12 16v40v12v12v12l4 28l4 44q-1 32 4 56q-7 31 -4 52v24v20v12v12q5 37 4 64l-4 16v52l4 12v12v12q5 45 4 72l20 -8l20 -12l20 -8q25 -17 40 -32l12 -4l48 -16l12 -8h12l12 -8l12 -4l12 -8l12 -4l12 -4
l48 -28q16 -11 28 -16q12 -13 24 -20l16 -8l12 -8q7 -4 8 -8l12 -8l16 -4q39 -33 80 -40q23 -21 48 -32l16 -16q36 -17 56 -36l4 -8q27 -11 44 -24q24 -16 40 -24l4 -8q32 -19 48 -40l16 -4l4 -8q20 -9 32 -24l20 -8q67 -46 120 -60l64 -48q29 -1 48 4q12 36 0 64
q-10 1 -16 4l-20 8l-12 8l-16 8l-8 4l-8 4l-12 8l-12 4q-48 33 -88 44l-24 16q-4 4 -4 8q-12 7 -16 16q-23 6 -36 20l-16 12l-16 12l-20 8l-12 8l-12 8l-16 12l-12 12l-16 4l-12 8l-8 12l-12 4l-12 8l-8 8l-16 8l-8 8l-8 8q-24 10 -40 24q-22 10 -36 24q-57 18 -92 52l-12 4
q-7 4 -8 8h-12l-12 8l-4 8l-28 16q-24 10 -40 24q-20 6 -32 16h-12l-8 8l-8 4q-33 6 -56 20l-8 4q-28 4 -40 24q-42 11 -68 36l4 12l16 12l24 8q25 26 52 32q15 16 36 16l8 12q63 26 100 52l16 12l16 8l12 4q38 29 72 40q22 20 44 28l12 8l24 20l32 20l8 8h12q33 29 64 40
q12 19 28 24q31 52 80 72q0 42 -40 48l-8 -20h-16q-26 -36 -64 -52q-49 -63 -116 -84q-56 -61 -124 -80q-4 -7 -8 -8l-8 -4q-59 -51 -124 -68q-27 -27 -60 -28q-33 -26 -68 -32q-14 -16 -36 -16q-12 -25 -36 -32v20l4 12v16l-4 8v12l4 8v24q0 30 -4 48v24l4 20l4 64l8 56
q-2 6 0 12l4 12v12v12q9 41 8 72q-15 22 -36 28q-10 -13 -24 -20z" />
    <glyph glyph-name="l" unicode="l" horiz-adv-x="1526" 
d="M80 1170q3 -10 0 -16q12 -39 12 -72q-1 -21 0 -36l-4 -28q2 -42 -4 -68v-12q-5 -24 -4 -44q-6 -24 -4 -44l-4 -12l-4 -28v-16l-4 -8v-24q-5 -43 0 -72l-8 -8q-1 -20 4 -32v-76q-5 -24 -12 -40l4 -20l-4 -16v-44l-4 -12q2 -32 0 -56v-52l-4 -16l-4 -36l4 -20l-8 -12l8 -16
l-8 -12q2 -44 -8 -76v-48l4 -8q-5 -33 0 -60l12 -8h16l100 -16h28h12l12 -4q6 4 12 4h12q20 0 32 4q25 -6 44 0q16 -6 32 -4l12 4q58 -6 100 4l8 -4q32 7 56 0l8 4q65 -16 124 0l48 -8l8 4l16 -4q62 8 100 4h16h12l8 4h12h12q54 13 96 8q23 38 24 76h-52q-23 -6 -44 -4h-12
l-8 -4q-79 -13 -128 -8l-28 -8h-12q-47 -2 -80 4q-51 -11 -92 4q-29 -6 -52 0h-12q-19 -6 -32 0q-43 -14 -80 -8l-16 -4h-16l-12 -4l-48 8q-19 -3 -32 0q-15 -5 -28 -4h-28l-72 4l-28 12q0 20 -4 32l4 16v20l4 16l4 20v44v20l4 16q-4 6 -4 12l-4 12q18 55 4 100q9 15 8 28
l4 12q-4 6 -4 12l-4 16l8 12q-1 30 4 52q-4 59 8 100v68l-4 36l4 24v20v24l8 16v16q1 30 4 48l4 12v28v16l4 16v16v16l4 12q-4 61 4 100q-5 4 -4 8q-11 54 -12 88q-20 12 -36 12q-15 -15 -16 -32z" />
    <glyph glyph-name="m" unicode="m" horiz-adv-x="1762" 
d="M1116 1212l-48 -44l-48 -28q-23 -27 -52 -36l-12 -16l-16 -4l-16 -8q-19 -19 -40 -24q-20 -22 -36 -32l-16 -12l-12 -8l-8 -8l-8 -8l-12 -8l-8 -8l-12 -8l-12 -4q-23 -31 -52 -44l-4 -8h-12q-30 7 -52 8l-12 12l-16 8h-12l-8 12q-54 19 -88 48l-36 8l-4 8q-7 4 -8 8
q-25 19 -36 32q-45 17 -72 44q-25 7 -40 20h-16q-4 6 -4 12q-10 1 -16 4l-8 8l-12 4q-7 4 -8 8l-12 4l-76 40l-16 -4q-15 18 -24 32l-36 -8l-4 -12v-20v-24q5 -43 4 -72v-20q1 -32 12 -56l-8 -20l-8 -56q4 -30 0 -52q-8 -54 -4 -88q-5 -32 -4 -56l-4 -16l4 -12l-4 -16v-32
q-9 -23 -8 -44q-2 -38 4 -64v-68v-20l-4 -12l-4 -28l4 -8q-5 -38 -4 -64l-4 -28q-18 -97 -16 -156l-24 -72q0 -11 8 -20q-26 -61 48 -60q15 37 20 64l-8 28q7 29 4 52l4 12v12v16l4 12v12v12l4 28q8 23 8 40v12l12 48l-4 20v16l4 24l4 20q-7 63 0 108q-4 44 4 76l-8 36l4 16
l4 20l-4 12l4 44l4 16q-4 30 0 52v20l4 16v16q4 23 4 40v16l4 16v20l-4 8l4 12v16v12v16l4 12q-6 30 -4 52l8 8q-10 15 -8 32l8 -4q16 -7 24 -20q46 -7 72 -36q54 -19 88 -48q58 -22 92 -60l12 -4l16 -8l12 -8q18 -12 36 -12l12 -12l8 -12l24 -16l12 -4l8 -4l12 -4
q36 -22 64 -32l12 -20q51 -13 96 -4q10 25 8 44l52 40q20 24 40 36l8 8q17 15 32 24q20 14 36 20l4 8l28 12q41 39 84 52q48 64 116 92l12 -24l-4 -16l8 -32l-4 -24q4 -6 4 -12l-4 -12q4 -71 -8 -120v-16q-2 -22 4 -44l-4 -16l-4 -20l4 -12q-5 -23 -4 -44l-8 -24l4 -32
l-8 -12q0 -44 -8 -72l4 -36q-16 -64 -8 -116q1 -41 -4 -68q1 -36 -8 -64v-24l-4 -64l4 -12l-8 -20l4 -12q0 -23 -8 -40q8 -37 4 -64l-4 -8l-4 -12q0 -22 -8 -40q4 -19 0 -36l28 -16h4h-4h4q25 23 36 44v12l4 8v64q3 30 12 48l-8 8l4 8l4 28q-9 29 -8 52v12q1 19 8 32
q-4 46 0 80v12q7 23 8 44l-4 12v16q4 63 0 100q13 33 16 48v24q-5 4 -4 8v16l12 96q9 69 4 112l8 48q-7 47 4 92v20v16q-6 27 0 48q-5 4 -4 8l4 12l-8 8l4 16q-11 48 -4 88q-19 13 -36 12q-33 -28 -60 -40z" />
    <glyph glyph-name="n" unicode="n" horiz-adv-x="1654" 
d="M1062 1152l4 -8l4 -8l-4 -12l-16 -100q-5 -45 8 -80l-4 -20l4 -12q-11 -37 -8 -68q-2 -33 -12 -56q7 -41 -4 -72q6 -24 4 -40l-4 -12l4 -12v-28q-12 -61 -8 -100l-24 8l-8 8q-20 11 -32 16l-16 20l-28 16l-88 44l-16 24q-51 21 -80 52l-28 12l-20 12l-20 12l-20 8l-12 8
l-8 12q-39 16 -64 40l-24 8l-48 24q-20 19 -36 28l-8 8q-43 16 -68 40l-28 8l-8 8q-7 4 -8 8l-12 4l-12 4l-12 4q-26 19 -48 28q-41 28 -60 60l-40 36q-20 0 -36 -12q7 44 -16 68l-32 -4l-8 -12v-12q1 -20 4 -32l-4 -48l-4 -32q7 -29 0 -48l4 -8v-24l4 -8l-8 -32l4 -24
q-11 -39 -8 -68v-24l-4 -28q-7 -23 -8 -40q-1 -41 0 -68q-7 -20 -4 -36l-4 -16l-4 -8q10 -46 0 -84q-1 -10 -4 -16q13 -69 0 -124l8 -12l-4 -28q2 -41 0 -68v-12q-8 -26 -4 -48l-8 -4q15 -80 -8 -144q22 -30 56 -32l20 24l-4 24q7 44 0 76l4 16l-4 12l8 32l-4 8v12v12v12
q-6 27 -4 48l4 12v32q-1 21 0 32q3 47 -4 80l4 28l4 8q-7 42 -4 72q5 23 4 44l-4 12q9 46 4 80l4 16l-4 20l8 16q2 30 8 52q0 26 4 44l-4 20l4 16l-4 20v12l8 28q-8 51 4 92q-5 21 -4 36l88 -88l12 -8l4 -8q33 -15 52 -28l72 -40l28 -12l16 -20q27 -9 44 -24l4 -8l16 -4
q33 -22 60 -32q7 -4 8 -8h12l4 -12h12l8 -4q32 -33 68 -48q38 -19 64 -40l24 -12q22 -19 48 -28q32 -34 56 -52l12 -8l16 -8l12 -4l12 -8l16 -8l8 -8l28 -16l8 -4q14 -9 24 -20l68 -40v-12l8 -16l-4 -8v-12q5 -32 4 -56q7 -13 8 -24l-4 -12q4 -6 4 -12l-4 -20q4 -41 0 -68
l-4 -28l8 -28q-16 -67 -4 -124q9 -7 12 -16q22 9 40 8l12 32q-1 15 8 24l-12 16v12l4 28q-5 29 0 52q-7 57 4 100q1 23 -8 40l4 8v12q-8 37 -8 64q-2 28 0 48q-2 43 4 72v44v40v12l4 16q-5 40 0 72v28q-1 43 8 72q-3 30 8 48l-4 12l4 16l-4 12q-2 24 0 40l-4 12v16v12v12v32
v12q-1 40 12 68q-5 32 0 56q-17 15 -36 16z" />
    <glyph glyph-name="o" unicode="o" horiz-adv-x="1796" 
d="M542 1160q-44 -11 -72 -12l-8 -12h-12l-8 -4h-16q-6 -4 -12 -4q-18 -12 -36 -16l-76 -32q-30 -34 -60 -48l-8 -12q-24 -21 -44 -32l-4 -8l-8 -8l-8 -4q-25 -40 -60 -60l-4 -20h-12l-4 -12l-8 -8l-40 -56v-28q-73 -162 -32 -312l4 -52l8 -12v-12l8 -32q10 -22 12 -44
l16 -24q29 -34 40 -64q19 -14 28 -24l8 -12q32 -23 48 -44q33 -22 52 -40q32 -11 52 -32h12l12 -4q28 -12 48 -16l16 -16h12l12 4l12 -4l8 -8q54 0 88 -12q16 7 32 4l28 -8h12h12h124l12 4h12l80 16q15 17 28 24h12q25 11 48 12l36 40l24 4l8 12l8 8l12 4q20 22 40 32l8 16
l12 4l4 12l8 8l8 12l60 68l12 32l8 12q8 21 16 32l4 28l4 12l4 8l16 28l8 28l-4 24q6 4 8 8q5 26 4 44l4 8q6 16 4 32l4 28l4 8l8 32v12l4 28q-7 31 -4 52q-12 32 -12 56q-13 17 -16 32q-8 41 -24 68q-19 13 -28 28q-26 15 -36 36l-12 4l-64 32l-12 8l-44 20l-12 8
q-10 1 -16 4l-12 8l-8 4l-8 4l-8 4l-12 4l-64 32l-16 -4l-16 4q-6 4 -8 8l-32 8l-32 16q-42 5 -68 16q-77 2 -124 12q-6 -4 -12 -4zM566 1108l12 -4q31 7 52 4l16 -8q22 -11 44 -16t40 -12l48 -16q31 -13 60 -16l44 -24l16 -4q28 -16 52 -20l8 -12h12l8 -8h12q29 -25 56 -32
q18 -13 36 -20l4 -8l8 -4l48 -44l4 -12q31 -63 32 -116l12 -12l-8 -32q-1 -69 -24 -116q-26 -265 -240 -412l-16 -4q-41 -33 -84 -40q-15 -14 -32 -20q-485 -85 -692 264v24q-16 22 -16 44q-88 293 120 472q20 28 44 44q37 54 92 72q56 54 124 60q54 29 104 20z" />
    <glyph glyph-name="p" unicode="p" horiz-adv-x="1542" 
d="M114 1164l4 -28l-8 -80v-24l-4 -12l4 -8l-8 -32q5 -69 -16 -120v-12q1 -44 -8 -76q3 -25 -4 -44q4 -58 -16 -104q8 -84 -16 -152q17 -31 16 -60q-4 -10 -4 -20q1 -37 -8 -64l-4 -12l-4 -56l-4 -16q8 -32 8 -56l-8 -8v-32l-8 -32v-12q2 -44 0 -72q22 -16 44 -20l20 20
q11 22 24 32q0 24 -20 32v24l4 20v16v16q1 30 4 48v40l4 40v20l4 12v12l4 12v12v12l4 72q19 17 40 16h16q23 3 44 0l40 12l12 4l12 -4q39 11 68 12l16 4q24 12 44 12l8 8q53 -6 92 8h20l12 4l8 -4h24q72 14 120 12q26 15 52 16q37 16 64 16q12 7 24 8l8 16q23 9 40 12
q17 16 32 24l12 8q17 14 32 20q28 38 56 56q15 97 -16 196l-8 8l-12 28l-8 8l-40 52q-47 16 -76 44q-10 1 -16 4l-12 4l-40 12q-51 24 -92 28l-32 20l-20 4h-12l-12 8l-8 4q-49 12 -84 12l-12 4l-8 4q-38 5 -64 12q-4 -5 -8 -4l-16 4h-12h-12h-16l-40 -4h-64q-15 -9 -32 -8
l-4 -8l-8 4q-20 -5 -36 -4l-20 4q14 46 -20 64q-34 -14 -40 -48zM386 1116q11 -1 16 0l16 -8l12 4q52 -20 100 -20l64 -16q25 -9 44 -12l12 -8l16 -4l16 -4l12 -4l12 -4l16 -8l84 -24l12 -8l8 -8l8 -4l60 -40q50 -70 60 -140q13 -45 -8 -80q-33 -31 -64 -44q-34 -39 -76 -52
l-36 -4l-8 -8h-12l-32 -8l-40 -12l-16 -4l-16 -4h-12l-24 -4q-23 -3 -44 0q-23 -6 -44 -4q-39 -8 -68 -4l-20 -4l-20 -4l-12 -8h-16q-53 -16 -92 -16l-20 -8h-12h-12h-52q-48 -15 -84 -16l4 28q-5 30 4 48l4 24l4 12l-4 12l8 100l4 20l4 12q1 51 12 84q-3 30 0 52q6 32 4 56
v16v12l4 12l4 80l16 4l20 4l16 4h12h12h12q41 13 76 4q23 5 40 12z" />
    <glyph glyph-name="q" unicode="q" horiz-adv-x="1967" 
d="M812 1228q-19 -3 -32 0q-6 -4 -12 -4l-20 -4h-12q-11 -4 -20 -4l-24 -4l-20 -4l-28 -12h-28q-38 -18 -72 -20l-12 -12q-20 -7 -36 -8l-12 -4l-12 -8l-20 -4q-13 -8 -28 -12q-29 -25 -56 -32q-12 -19 -24 -24q-22 -22 -44 -32l-8 -12q-34 -41 -64 -60l-8 -12l-4 -8l-8 -8
l-44 -52l-12 -8l-8 -12l-12 -12l-4 -12q-18 -31 -36 -48l-16 -20q-7 -28 -20 -44q-1 -46 -24 -80q-6 -32 -4 -56q-12 -27 -16 -48q-8 -257 164 -376q111 -116 256 -136q66 -29 128 -24q220 -47 388 76q101 35 156 112l8 -4l12 -4l48 -24l16 -4l16 -8l8 -8l16 -4l20 -8l4 -8
l12 -4l4 -8l12 -4q28 -19 48 -28q26 -22 48 -32q48 8 52 60l-20 8l-8 4l-60 24l-8 12l-20 8q-18 14 -28 24q-10 1 -16 4l-8 8l-16 4l-24 20l-8 4l-8 4q-30 10 -48 20q273 387 40 752l-20 12q-6 23 -16 40l-12 8l-16 12l-40 28l-12 12l-12 4q-14 16 -24 24q-40 18 -60 48
q-27 15 -40 28h-12l-12 4l-32 4h-12q-30 0 -52 4zM800 1176h16l100 -20l4 -8q41 -16 64 -44q169 -90 216 -256l24 -28v-28q40 -125 12 -240q-13 -57 -40 -96q-17 -69 -60 -112q-14 -38 -36 -60q-30 4 -52 20q-50 11 -84 40h-12q-22 13 -44 20l-8 4q-72 23 -116 56
q-33 0 -56 -16q0 -20 12 -32l16 -8l24 -8q22 -21 44 -28l20 -8q24 -9 40 -20l16 -4l40 -16l8 -4l48 -20q29 -17 48 -24l-4 -20q-276 -221 -580 -116q-168 29 -264 148q-128 110 -124 296q42 253 220 400q116 143 276 176l8 12l24 -4q16 13 32 16l12 4l16 4l12 4h28l88 20h12
z" />
    <glyph glyph-name="r" unicode="r" horiz-adv-x="1605" 
d="M498 1168h-12h-52h-52q-6 -4 -12 -4h-20q-21 -9 -48 -8l-8 -4l-12 4q-31 -10 -60 -8l-80 -20q-36 35 -76 28l-12 -24l8 -80l-4 -24l-4 -56v-28l-4 -52l4 -20l-8 -28l4 -16l-4 -64l-4 -68l-4 -28v-72q-9 -54 -8 -88l-8 -56v-20q-1 -32 4 -56l-4 -56v-40l8 -12l-4 -28
l-4 -12l8 -28l-4 -16l4 -12l-4 -28q5 -52 -4 -88q14 -34 36 -52l24 8v12l8 52q-3 55 0 92v16v12q-6 30 -4 52q-10 56 0 100q-5 4 -4 8q0 28 -4 48l4 40q-1 44 8 76l20 -8l8 -12l20 -4l8 -12q22 -9 32 -24q20 -6 32 -16l28 -8l8 -8l24 -16l60 -36l24 -20q19 -3 28 -16l24 -12
l32 -20q20 -13 36 -16q24 -22 48 -32l16 -8l32 -24l12 -4l8 -8l28 -12l64 -44l16 -4l20 -8l16 -12l20 -8q38 -21 60 -40h12l12 -8q20 -11 32 -20l8 -4q37 -13 60 -32q30 1 52 12q11 40 -12 64h-24l-24 8l-8 12l-16 4l-12 4l-12 8l-8 8h-12q-16 14 -32 20q-39 29 -68 40
l-24 8l-72 40l-24 16l-8 4q-35 17 -56 36q-28 9 -52 28l-28 16l-68 40l-12 8l-16 12l-64 36l-12 12q-30 14 -48 28q-47 20 -76 44q37 12 68 8h20h28l52 4l12 -4q6 4 12 4l12 4h44q37 10 64 8l20 4l20 4h12q6 2 12 0q4 5 8 4h12l8 4h28l44 4q32 6 56 4l12 4l12 4h16l8 4
q32 9 56 8q23 11 48 12l8 8l52 24q17 15 32 20q4 7 8 8q35 20 56 40q28 61 32 108q5 32 0 56q-111 182 -288 252h-48l-8 8l-64 12l-24 16q-41 0 -68 8q-31 -6 -60 0zM462 1112q100 14 180 -20q229 -21 368 -220q4 -28 0 -52q-1 -54 -32 -84l-24 -16q-29 -25 -56 -32
q-8 -10 -16 -16h-12q-6 -4 -12 -4l-100 -24h-20q-25 -7 -44 -8h-16q-23 -7 -40 -8l-16 4l-8 -4l-64 -4h-12q-4 -5 -8 -4l-68 -4l-16 -8q-53 -7 -92 0l-16 -8l-16 -4l-16 4l-28 4q-55 -15 -108 -4q-40 -13 -76 -8l4 24v20v20v20l4 8l-4 8l4 16v12l4 80q-7 37 0 68q-4 6 -4 12
q6 31 4 52v16l4 12v32q-3 49 8 84l20 4l64 8l16 8h20h20q22 5 44 4l32 12q47 -6 84 4z" />
    <glyph glyph-name="s" unicode="s" horiz-adv-x="1738" 
d="M698 1212h-12h-32q-6 -4 -12 -4q-55 -6 -88 -16q-427 15 -572 -328q0 -52 -8 -84q17 -31 20 -60q15 -13 20 -28q38 -19 60 -36h12l48 -16h32q38 1 64 -4l24 -4l12 4l32 -4h44q22 3 40 0h12h12l28 -8q36 6 68 -4h28h16l52 4q32 -1 56 4l12 -4h16h12q31 -9 56 -8h16
q45 0 72 -4l36 -16q100 -27 164 -92h12q43 -70 40 -140l8 -20l-8 -8l-8 -32q-8 -39 -20 -64q-33 -25 -52 -52q-24 -11 -44 -16q-241 -150 -492 -80h-12l-28 8q-50 7 -84 24q-131 28 -216 108q-13 30 -24 48q9 28 4 52q-34 -6 -56 -28q-11 -67 24 -120q32 -23 48 -48l64 -20
q482 -241 892 52l4 12l8 4q11 21 20 32l4 12l24 60q4 61 16 100q-9 30 -8 52l-8 12l-4 8l-4 8l-24 64q-27 20 -40 40l-20 12q-10 7 -20 8l-8 12l-16 4l-12 8q-20 6 -36 20q-52 14 -84 36l-16 -4q-22 8 -44 4l-12 8q-43 -6 -76 4q-34 2 -56 8l-12 -4l-44 4q-44 -9 -76 -4
l-16 -4l-20 4l-12 4h-12l-72 8q-71 -6 -120 4q-108 -14 -196 20q-34 16 -52 40l-4 80q123 288 444 288l16 4q24 0 44 8h52h16h12q6 4 12 4q26 1 44 4h12h80l16 -4l16 -4l12 -4q23 -1 40 -4l32 -8l12 -4h12l12 -8l28 -4l56 -20l20 -20q40 -1 56 28l-12 28h-20q-16 16 -36 24
l-32 12q-60 5 -104 32h-16q-22 5 -40 12q-29 -1 -52 8q-32 -8 -60 0q-6 -4 -12 -4z" />
    <glyph glyph-name="t" unicode="t" horiz-adv-x="1893" 
d="M32 1146l12 4l12 -4h12h20l8 -4h16h12h12q20 0 32 4q24 -5 44 -4h16h12l12 -4h12h16l12 -4h16h12h16h72h52l8 -4q15 0 24 -8l16 8l8 -4h12l8 -4h132q11 -42 4 -76q2 -29 -12 -44q-2 -44 0 -56q-9 -46 0 -84l-12 -36q4 -32 0 -56v-16q-12 -62 -8 -104q-4 -19 -4 -32
l-8 -44l-4 -8q4 -38 -8 -72v-28q6 -42 -4 -76l4 -24q-4 -47 -12 -80l4 -32l-4 -16q-1 -23 4 -40l-4 -28q-1 -29 -8 -48l4 -24v-12l-8 -64q4 -27 12 -44q48 -6 64 40q-4 25 -4 44v12v12l4 32q-6 31 0 60l-8 28l8 36l4 12v28q-2 33 4 60l4 8q-6 46 4 80q-4 24 0 44
q-5 23 -4 40l4 8q0 44 8 72v12v16q12 61 8 100l8 24l-4 20q0 37 8 64v16q7 32 4 56l8 24l-4 16l-4 16l4 12v12l4 16l8 68q-5 31 0 60q18 7 32 4l16 4l12 -4h20h16h16l28 -4h48h24h36h12q32 2 56 -4q4 5 8 4l12 -4q37 7 64 4l24 -4q9 3 16 0h32q6 4 12 4h48l8 4q47 -8 80 -4
q30 42 -4 76l-24 -4q-24 1 -44 -4h-16h-12h-28h-12q-44 -7 -76 -4q-62 8 -108 0l-16 4l-28 -4h-16l-52 4h-16h-12h-80q-20 0 -32 4h-24l-20 -4h-12h-16l-28 -4h-72l-16 -4q-40 11 -72 8l-12 4h-12q-23 -6 -44 -4l-124 4h-16h-16q-31 -2 -56 4h-12h-12q-99 -6 -164 8
q-42 -28 -16 -64z" />
    <glyph glyph-name="u" unicode="u" horiz-adv-x="1818" 
d="M24 1160l8 -16q-6 -37 4 -68q-16 -61 -8 -112q-13 -69 0 -120q-3 -39 0 -64l8 -8l-4 -8v-16q12 -57 8 -100l4 -12l8 -52q11 -24 8 -48q6 -5 8 -12l4 -16l8 -12v-12l8 -28l12 -32l4 -16q27 -38 32 -76q19 -23 24 -44q21 -21 32 -36l16 -16l24 -32l12 -4l4 -12
q24 -18 36 -36q38 -22 56 -52h20l12 -4l8 -8l8 -8q46 -18 72 -40h16l28 -12l64 -16h16l12 4l48 -4q6 3 12 0q47 9 76 8l68 24q6 4 12 4q20 15 40 20l8 8h12q29 30 60 40l40 48l8 8q15 24 32 32q11 21 24 32v16l12 8l8 20q7 27 24 52l8 24q11 22 12 48q7 24 20 36q8 32 20 52
l4 12l4 16l8 16l4 8q2 20 12 36l4 8q5 29 16 48q2 44 16 76l12 16v20l8 20v32l8 20v16l8 24v16q7 24 8 44q26 55 24 112l8 28q26 89 -68 68l12 -24l-8 -12l4 -8l-4 -24l-8 -32l-4 -28l-4 -28q-10 -47 -24 -76l8 -8l-4 -12v-24q-11 -18 -12 -32q-1 -50 -24 -88
q-11 -70 -40 -116q-3 -81 -44 -136l-4 -28q-9 -15 -12 -32q-9 -30 -20 -48q-5 -21 -12 -32l-4 -8v-12l-20 -20q-17 -50 -44 -80l-24 -16l-4 -24l-24 -4l-4 -8q-35 -22 -52 -48q-30 -3 -60 -16q-49 -25 -96 -24h-12h-12l-12 -4l-16 4h-12l-8 -4q-30 7 -52 4l-8 4h-12
q-24 7 -40 8l-4 8q-152 59 -236 176q-26 19 -40 36q-137 261 -128 520q-7 23 -4 40v12l-4 44v32l4 12v20l-4 16l4 8v12v52q-4 6 -4 12v16q-10 40 -12 68l-32 8q-7 -14 -16 -24z" />
    <glyph glyph-name="v" unicode="v" horiz-adv-x="1843" 
d="M1240 1090l-8 -16l-12 -8l-8 -12q-17 -20 -24 -36l-12 -12l-8 -16l-8 -8l-16 -24l-8 -16l-20 -24l-40 -72l-20 -20q-18 -38 -40 -60l-16 -24l-12 -16l-8 -8l-32 -56l-16 -12l-4 -16l-8 -8l-8 -8q-11 -21 -28 -36q-2 -11 -8 -16q-18 -41 -48 -60l-4 -8q-4 -7 -8 -8
q-16 -45 -44 -72q-1 -10 -4 -16q3 -12 -8 -20q-14 -21 -20 -36l-8 -20l-8 -16l-16 -24q-19 -56 -56 -92v-12q-22 -32 -32 -56q-28 26 -40 56q-34 44 -48 80q-15 14 -20 32l-16 24l-20 20l-8 8v12q-35 39 -48 80l-12 8l-20 24q-26 41 -48 64v12q-19 29 -28 52l-4 12
q-32 35 -44 68l-8 16l-8 16l-8 8l-8 12v12q-7 4 -8 8l-8 8l-4 8l-4 16l-8 8l-8 16v12l-16 24l-16 40q-18 24 -24 44l-8 12l-8 16l-8 12l-12 28q-35 35 -48 72q-21 5 -36 4q-9 -30 0 -52q11 -9 16 -20l12 -24q5 -4 4 -8q6 -12 8 -24q19 -14 28 -32l12 -16l20 -60l16 -12
l8 -20q4 -6 4 -12q20 -35 28 -60l12 -12l4 -8l8 -24q18 -22 24 -44l4 -12q18 -25 24 -44q37 -41 48 -84q15 -14 16 -32q16 -3 16 -16l12 -12l36 -56l8 -16l16 -20l12 -20l16 -28q17 -23 24 -40l8 -16l28 -36l24 -44l28 -36q12 -34 32 -56q-9 -37 0 -64q19 -4 32 -4
q38 -61 76 -8v12q-15 29 -16 56q-13 0 -16 12l12 12q1 10 4 16q14 21 32 36l4 20q15 29 28 44l4 24q4 7 8 8l40 68l20 44l4 8q31 48 40 88q10 13 24 20q10 20 24 28l12 28q13 16 16 28l8 4q42 56 60 96l52 60l4 24q15 5 20 16l8 16l12 16q2 10 8 16l16 20q19 28 36 44l8 12
v12l8 12l4 8l16 20l12 28l12 4q30 61 68 92q14 29 32 48l-4 24l-20 4q-22 -23 -40 -36z" />
    <glyph glyph-name="w" unicode="w" horiz-adv-x="2099" 
d="M1488 1144l-4 -32l-4 -24l-8 -16q-13 -18 -16 -36q-12 -22 -16 -44l-4 -8l-4 -12v-12l-8 -8l-8 -32q-15 -24 -20 -44l4 -12l-8 -4l-12 -72q-14 -14 -16 -28l-4 -16l-4 -8l-8 -36l-4 -28l-4 -16l-4 -12l-4 -16l-16 -72l-4 -24l-4 -8l-4 -20q-15 -49 -16 -84l-8 -16l-4 -20
l-8 -20l-4 -24l-4 -12l-8 -32q-15 -19 -16 -40l-4 -12l-4 -12l-4 -16l-12 -28q-5 -43 -16 -72l-24 12l-20 28q-46 35 -68 76q-28 21 -36 48q-44 40 -60 88l-12 12l-8 16q-29 23 -40 52l-16 4l4 16l-12 8q-28 53 -60 84l-4 8q3 38 -12 60q-37 -9 -64 8l-24 -16q2 -40 28 -68
l-12 -24q-13 -20 -16 -36q-13 -19 -16 -32l-32 -56l-12 -28l-4 -12q-17 -25 -24 -44l-8 -12l-8 -12l-12 -12l-4 -20l-24 -32q-11 -30 -24 -48q-14 -38 -32 -60q-8 -34 -20 -56l-4 24q-25 45 -48 72l-8 16l-8 24q-9 7 -12 16l-8 16l-12 16l-8 16l-4 16l-12 8l-4 16q-7 4 -8 8
l-4 12l-8 8l-4 8q-12 20 -16 36l-8 8l-12 28q-14 23 -20 40q-13 14 -16 28l-8 4l-52 104l-8 4q-8 23 -24 40l-12 20q-21 32 -28 56l-8 20q-6 12 -8 24q-13 16 -16 32l-8 20q-18 32 -24 56q-6 11 -8 20l-12 12l-20 68l-8 8l-32 72q-14 17 -32 16q-15 -40 4 -76l8 -12
q11 -46 28 -76q15 -30 16 -56q17 -22 20 -44q28 -40 32 -76q24 -30 24 -60l12 -8l8 -20l8 -12l4 -12q12 -19 24 -32l4 -8v-12l8 -8l8 -8q10 -33 28 -56q14 -39 32 -64l12 -20q4 -6 4 -12q17 -22 24 -40q17 -28 24 -56l12 -12l8 -12l8 -16l8 -24l12 -8l4 -20l16 -28
q14 -15 24 -20v-20q14 -18 20 -36q35 -38 44 -80q39 -24 72 -28l4 16l8 8l4 32l8 28l16 20l8 16l12 20l4 12l4 12l4 8l16 20l4 12l4 16l8 12l8 8l4 12l4 12l12 16l8 4q17 44 40 68q10 37 28 60q17 68 60 108l40 -52q32 -77 84 -124l12 -28q24 -26 28 -56q19 -10 28 -20l4 -8
l8 -8l4 -12q31 -33 44 -64l12 -4q27 -32 52 -48q29 -35 32 -72q18 -19 40 -20q33 29 40 64l8 24l4 20l8 20l16 68l8 24l4 24l8 12q6 27 16 44l4 12v12q8 14 8 32l20 64l4 16l4 16v12l4 12l8 80l20 52l-4 16l4 20l4 20l4 20l8 20v12q8 23 8 48l8 24l16 52q7 36 20 60l4 12
l4 16l4 12l4 16l8 16q8 45 28 80q3 31 16 52q13 37 4 68h-4h4h-4h-8h-8z" />
    <glyph glyph-name="x" unicode="x" horiz-adv-x="1583" 
d="M984 1292l-12 -8q-28 -53 -72 -84l-16 -24l-20 -12q-14 -28 -36 -40q-4 -7 -8 -8l-4 -12l-32 -44l-8 -4q-25 -39 -52 -60q-18 -27 -36 -44l-4 -16l-16 -16q-13 -20 -28 -28l-4 -8l-8 -12l-8 -12l-8 -16l-12 -12q-11 -22 -24 -32l-12 -16q-4 -7 -8 -8q-14 -20 -28 -28
l-4 -8l-8 -8l-4 -8l-8 -8l-40 -48q-45 44 -64 88q-45 45 -64 88q-28 22 -36 48q-29 26 -40 56l-20 12l-16 24l-4 8q-92 82 -124 184q-26 33 -32 68q-17 15 -36 16q-17 -30 -12 -56l12 -12l4 -12l4 -12l4 -12q22 -32 32 -56l36 -72q27 -24 40 -48l8 -8l16 -24q37 -31 52 -68
l12 -12q21 -27 32 -48l12 -8l4 -16l8 -4l12 -4l4 -12l4 -12q5 -4 4 -8q37 -37 52 -76q37 -29 52 -68q-7 -14 -16 -24l-16 -24l-24 -32q-20 -19 -24 -40l-16 -4l-4 -12l-12 -4q-32 -61 -72 -92l-4 -16q-21 -26 -32 -48l-12 -16l-8 -16l-12 -16l-4 -8l-24 -32l-24 -32
q-5 -6 -12 -8q-12 -30 -32 -48q-17 -40 -44 -64q-12 -38 -4 -68q27 -7 48 4q26 71 68 112q15 33 36 52l8 28l8 12l8 12l8 4q6 19 20 28q21 55 60 84q27 54 68 84q21 41 52 64q17 42 52 60l16 -24l16 -28q20 -19 28 -40q10 -7 16 -16l8 -12q35 -41 52 -72l4 -8q38 -35 52 -72
l12 -8l8 -12l12 -12l12 -16l12 -12q14 -16 20 -32l28 -40l4 -12l28 -28v-12q18 -13 20 -32q16 -13 24 -28q31 4 52 16l4 32l-4 8l-8 8l-20 20l-8 8l-16 24l-16 28q-26 25 -36 52q-23 21 -32 44l-8 4q-13 26 -28 40l-4 12q-22 19 -32 40q-53 49 -76 104l-8 4l-16 28l-8 4
q-26 29 -36 56q-24 23 -32 48l12 12l4 16l20 20q19 38 48 60l16 28l4 8l8 4q21 39 48 60q21 35 48 56l8 20q27 21 40 48l16 16q7 17 16 28l16 24l16 8l12 12l8 16l8 20l12 12l16 12l8 12q21 24 40 36l8 12l28 36q26 31 48 48q17 28 36 44q7 20 0 36l-28 4q-14 -23 -32 -32z
" />
    <glyph glyph-name="y" unicode="y" horiz-adv-x="1716" 
d="M2 1162q19 -4 24 -20q35 -42 48 -76q26 -20 40 -40q31 -24 44 -52q67 -47 100 -104q21 -14 28 -36q46 -40 64 -84l56 -52l8 -12l12 -8l12 -12l8 -12l4 -12q15 -9 24 -20l32 -36l4 -20l4 -24l-8 -16l8 -12v-12q-4 -19 -4 -32l4 -100q-4 -55 0 -92l-4 -16l4 -72
q-2 -53 -8 -88q12 -45 12 -76q22 -30 52 -32l4 8l16 20l-8 12q2 32 -12 56v20q-2 29 -8 48l4 16q-8 22 -4 44l-4 20l4 24v32l4 16q-4 23 0 44l-8 12l4 52q-2 6 0 12q-5 20 0 32l-4 28l4 12q-6 30 0 60l4 8q33 6 56 20l4 8l8 4q25 39 56 56q10 22 20 36l16 12l4 8l12 4l4 8
l8 8l56 40q19 23 40 36l12 8l12 8l12 12l12 8l24 16l8 8l12 8l52 40l20 16q13 24 32 36l4 8q4 7 8 8q14 22 32 32q16 27 36 40v24q53 33 40 84q-23 8 -40 4q-44 -88 -112 -136l-4 -20l-12 -4q-53 -73 -124 -108q-23 -31 -52 -44q-22 -28 -48 -40q-22 -25 -44 -36
q-13 -18 -28 -24l-4 -12l-12 -8l-4 -12l-12 -8l-16 -12l-4 -12q-40 -29 -60 -56h-28q-36 23 -52 52q-19 12 -28 28q-44 27 -60 64q-48 36 -68 84l-12 4l-8 8l-4 12l-8 4l-8 8l-24 20l-16 28q-27 21 -40 48l-28 16l-8 16q-6 5 -8 12q-55 39 -80 84l-8 4l-48 68l-32 8z" />
    <glyph glyph-name="z" unicode="z" horiz-adv-x="1669" 
d="M952 1202q-24 -1 -44 -8h-24h-16l-20 -4h-12q-13 7 -32 8h-12h-12h-32q-37 -9 -64 0q-49 -1 -76 -8h-16l-16 4q-20 -1 -32 -4h-64h-12q-15 5 -32 4h-20l-12 -4l-16 4l-24 -4l-16 -4h-16h-12q-24 -2 -40 0q-11 -3 -16 0q-14 -4 -28 -4q-31 -14 -60 -12l-16 4l-104 12
q-24 -20 -28 -48q39 -17 80 -12h16q23 1 40 -4l56 8h12q23 4 44 0q37 11 64 12h56q6 2 12 0h12l12 -4h40h12l8 -4l52 4q36 -5 68 4h12h24h20l24 -4h20h16h24l12 8l16 -4h16h20h12h32q47 6 80 4l-8 -12l-12 -12l-12 -16l-8 -12q-19 -16 -32 -24l-4 -8l-36 -40l-8 -8l-56 -64
q-17 -37 -40 -60l-12 -24l-20 -20q-7 -10 -8 -20l-16 -8q-11 -20 -24 -32l-8 -12l-4 -12l-12 -8q-4 -7 -8 -8l-4 -12l-24 -28l-8 -12q-4 -7 -8 -8l-16 -24l-24 -20q-21 -37 -48 -56q-13 -33 -40 -56q-16 -30 -36 -48l-8 -24l-12 -8l-4 -8l-20 -20q-26 -41 -60 -64l-8 -20
l-8 -8q-18 -24 -36 -36q-16 -25 -24 -44l-12 -8q-15 -16 -24 -28l-12 -8l-16 -24l-8 -12l-24 -20l-16 -24q-29 -15 -44 -28l-4 -12q-26 -29 -36 -52l16 -24q32 0 56 -8h48h16h12h40h36l12 4q43 1 72 8l24 -4h12l52 -4l12 4h12h12h20h12h56l8 -4q26 5 44 0h20l52 4h32l80 4
h16h16q30 3 52 0q23 6 40 4l16 4l44 -4l12 4l16 -4h16l12 -4h12h12l8 4q26 -5 44 -4l40 -4q16 37 0 64l-16 4l-68 4h-16q-55 -6 -96 4q-21 -5 -36 -4q-37 -11 -68 -4q-22 -10 -40 -8l-16 4q-24 -6 -44 -4l-64 -8q-6 4 -8 8h-40h-16h-16h-12q-6 -4 -12 -4h-12l-64 -4l-20 8
q-78 -14 -136 0h-24q-45 -13 -80 -8q-56 -11 -100 4q15 29 36 44l8 12l8 16l12 8q19 24 28 40l24 12l64 84q11 12 24 20q19 36 44 56l8 20q13 15 28 20l4 8l52 76l8 4q32 49 56 76q27 28 40 48q19 26 40 40l8 24l12 12l12 12l12 20l8 12l12 12l8 12q12 19 24 28q29 51 60 80
l4 8l4 12l4 8q12 17 24 28q2 18 12 28l16 12q8 9 16 12q10 20 20 32q2 9 8 12l16 8l8 12l12 4q22 32 48 48l4 8l32 32q12 28 36 40q12 43 -28 52q-31 -14 -60 -16zM202 622l24 -4h24l24 -4l24 -4h12h52q19 -5 32 -4q20 -1 32 -4q35 1 60 -8q38 4 68 -12q24 -1 44 8
q24 -6 44 -4l92 -16l8 4q66 -9 116 4q2 33 0 56l-20 4q-48 -12 -88 -8q-18 5 -32 0h-16l-8 4q-38 2 -64 8q-30 -1 -52 4h-20q-30 1 -52 8h-40l-20 4h-12h-12l-72 4l-8 4q-4 -5 -8 -4h-12l-12 4q-54 -1 -96 12q-28 -27 -12 -56z" />
    <glyph glyph-name="braceleft" unicode="{" 
 />
    <glyph glyph-name="bar" unicode="|" 
 />
    <glyph glyph-name="braceright" unicode="}" 
 />
    <glyph glyph-name="asciitilde" unicode="~" 
 />
    <glyph glyph-name="Adieresis" unicode="&#xc4;" 
 />
    <glyph glyph-name="Aring" unicode="&#xc5;" 
 />
    <glyph glyph-name="Ccedilla" unicode="&#xc7;" 
 />
    <glyph glyph-name="Eacute" unicode="&#xc9;" 
 />
    <glyph glyph-name="Ntilde" unicode="&#xd1;" 
 />
    <glyph glyph-name="Odieresis" unicode="&#xd6;" 
 />
    <glyph glyph-name="Udieresis" unicode="&#xdc;" 
 />
    <glyph glyph-name="aacute" unicode="&#xe1;" 
 />
    <glyph glyph-name="agrave" unicode="&#xe0;" 
 />
    <glyph glyph-name="acircumflex" unicode="&#xe2;" 
 />
    <glyph glyph-name="adieresis" unicode="&#xe4;" 
 />
    <glyph glyph-name="atilde" unicode="&#xe3;" 
 />
    <glyph glyph-name="aring" unicode="&#xe5;" 
 />
    <glyph glyph-name="ccedilla" unicode="&#xe7;" 
 />
    <glyph glyph-name="eacute" unicode="&#xe9;" 
 />
    <glyph glyph-name="egrave" unicode="&#xe8;" 
 />
    <glyph glyph-name="ecircumflex" unicode="&#xea;" 
 />
    <glyph glyph-name="edieresis" unicode="&#xeb;" 
 />
    <glyph glyph-name="iacute" unicode="&#xed;" 
 />
    <glyph glyph-name="igrave" unicode="&#xec;" 
 />
    <glyph glyph-name="icircumflex" unicode="&#xee;" 
 />
    <glyph glyph-name="idieresis" unicode="&#xef;" 
 />
    <glyph glyph-name="ntilde" unicode="&#xf1;" 
 />
    <glyph glyph-name="oacute" unicode="&#xf3;" 
 />
    <glyph glyph-name="ograve" unicode="&#xf2;" 
 />
    <glyph glyph-name="ocircumflex" unicode="&#xf4;" 
 />
    <glyph glyph-name="odieresis" unicode="&#xf6;" 
 />
    <glyph glyph-name="otilde" unicode="&#xf5;" 
 />
    <glyph glyph-name="uacute" unicode="&#xfa;" 
 />
    <glyph glyph-name="ugrave" unicode="&#xf9;" 
 />
    <glyph glyph-name="ucircumflex" unicode="&#xfb;" 
 />
    <glyph glyph-name="udieresis" unicode="&#xfc;" 
 />
    <glyph glyph-name="dagger" unicode="&#x2020;" 
 />
    <glyph glyph-name="degree" unicode="&#xb0;" 
 />
    <glyph glyph-name="cent" unicode="&#xa2;" 
 />
    <glyph glyph-name="sterling" unicode="&#xa3;" 
 />
    <glyph glyph-name="section" unicode="&#xa7;" 
 />
    <glyph glyph-name="bullet" unicode="&#x2022;" 
 />
    <glyph glyph-name="paragraph" unicode="&#xb6;" 
 />
    <glyph glyph-name="germandbls" unicode="&#xdf;" 
 />
    <glyph glyph-name="registered" unicode="&#xae;" 
 />
    <glyph glyph-name="copyright" unicode="&#xa9;" 
 />
    <glyph glyph-name="trademark" unicode="&#x2122;" 
 />
    <glyph glyph-name="acute" unicode="&#xb4;" 
 />
    <glyph glyph-name="dieresis" unicode="&#xa8;" 
 />
    <glyph glyph-name="notequal" unicode="&#x2260;" 
 />
    <glyph glyph-name="AE" unicode="&#xc6;" 
 />
    <glyph glyph-name="Oslash" unicode="&#xd8;" 
 />
    <glyph glyph-name="infinity" unicode="&#x221e;" 
 />
    <glyph glyph-name="plusminus" unicode="&#xb1;" 
 />
    <glyph glyph-name="lessequal" unicode="&#x2264;" 
 />
    <glyph glyph-name="greaterequal" unicode="&#x2265;" 
 />
    <glyph glyph-name="yen" unicode="&#xa5;" 
 />
    <glyph glyph-name="mu1" unicode="&#xb5;" 
 />
    <glyph glyph-name="partialdiff" unicode="&#x2202;" 
 />
    <glyph glyph-name="summation" unicode="&#x2211;" 
 />
    <glyph glyph-name="product" unicode="&#x220f;" 
 />
    <glyph glyph-name="pi1" 
 />
    <glyph glyph-name="integral" unicode="&#x222b;" 
 />
    <glyph glyph-name="ordfeminine" unicode="&#xaa;" 
 />
    <glyph glyph-name="ordmasculine" unicode="&#xba;" 
 />
    <glyph glyph-name="Ohm" unicode="&#x2126;" 
 />
    <glyph glyph-name="ae" unicode="&#xe6;" 
 />
    <glyph glyph-name="oslash" unicode="&#xf8;" 
 />
    <glyph glyph-name="questiondown" unicode="&#xbf;" 
 />
    <glyph glyph-name="exclamdown" unicode="&#xa1;" 
 />
    <glyph glyph-name="logicalnot" unicode="&#xac;" 
 />
    <glyph glyph-name="radical" unicode="&#x221a;" 
 />
    <glyph glyph-name="florin" unicode="&#x192;" 
 />
    <glyph glyph-name="approxequal" unicode="&#x2248;" 
 />
    <glyph glyph-name="Delta" unicode="&#x2206;" 
 />
    <glyph glyph-name="guillemotleft" unicode="&#xab;" 
 />
    <glyph glyph-name="guillemotright" unicode="&#xbb;" 
 />
    <glyph glyph-name="ellipsis" unicode="&#x2026;" 
 />
    <glyph glyph-name="Agrave" unicode="&#xc0;" 
 />
    <glyph glyph-name="Atilde" unicode="&#xc3;" 
 />
    <glyph glyph-name="Otilde" unicode="&#xd5;" 
 />
    <glyph glyph-name="OE" unicode="&#x152;" 
 />
    <glyph glyph-name="oe" unicode="&#x153;" 
 />
    <glyph glyph-name="endash" unicode="&#x2013;" 
 />
    <glyph glyph-name="emdash" unicode="&#x2014;" 
 />
    <glyph glyph-name="quotedblleft" unicode="&#x201c;" 
 />
    <glyph glyph-name="quotedblright" unicode="&#x201d;" 
 />
    <glyph glyph-name="quoteleft" unicode="&#x2018;" 
 />
    <glyph glyph-name="quoteright" unicode="&#x2019;" 
 />
    <glyph glyph-name="divide" unicode="&#xf7;" 
 />
    <glyph glyph-name="lozenge" unicode="&#x25ca;" 
 />
    <glyph glyph-name="ydieresis" unicode="&#xff;" 
 />
    <glyph glyph-name="Ydieresis" unicode="&#x178;" 
 />
    <glyph glyph-name="fraction" unicode="&#x2044;" 
 />
    <glyph glyph-name="fraction" unicode="&#x2215;" 
 />
    <glyph glyph-name="Euro" unicode="&#x20ac;" 
 />
    <glyph glyph-name="guilsinglleft" unicode="&#x2039;" 
 />
    <glyph glyph-name="guilsinglright" unicode="&#x203a;" 
 />
    <glyph glyph-name="fi" unicode="&#xf001;" 
 />
    <glyph glyph-name="fi" unicode="&#xfb01;" 
 />
    <glyph glyph-name="fl" unicode="&#xf002;" 
 />
    <glyph glyph-name="fl" unicode="&#xfb02;" 
 />
    <glyph glyph-name="daggerdbl" unicode="&#x2021;" 
 />
    <glyph glyph-name="periodcentered" unicode="&#xb7;" 
 />
    <glyph glyph-name="periodcentered" unicode="&#x2219;" 
 />
    <glyph glyph-name="quotesinglbase" unicode="&#x201a;" 
 />
    <glyph glyph-name="quotedblbase" unicode="&#x201e;" 
 />
    <glyph glyph-name="perthousand" unicode="&#x2030;" 
 />
    <glyph glyph-name="Acircumflex" unicode="&#xc2;" 
 />
    <glyph glyph-name="Ecircumflex" unicode="&#xca;" 
 />
    <glyph glyph-name="Aacute" unicode="&#xc1;" 
 />
    <glyph glyph-name="Edieresis" unicode="&#xcb;" 
 />
    <glyph glyph-name="Egrave" unicode="&#xc8;" 
 />
    <glyph glyph-name="Iacute" unicode="&#xcd;" 
 />
    <glyph glyph-name="Icircumflex" unicode="&#xce;" 
 />
    <glyph glyph-name="Idieresis" unicode="&#xcf;" 
 />
    <glyph glyph-name="Igrave" unicode="&#xcc;" 
 />
    <glyph glyph-name="Oacute" unicode="&#xd3;" 
 />
    <glyph glyph-name="Ocircumflex" unicode="&#xd4;" 
 />
    <glyph glyph-name="Ograve" unicode="&#xd2;" 
 />
    <glyph glyph-name="Uacute" unicode="&#xda;" 
 />
    <glyph glyph-name="Ucircumflex" unicode="&#xdb;" 
 />
    <glyph glyph-name="Ugrave" unicode="&#xd9;" 
 />
    <glyph glyph-name="dotlessi" unicode="&#x131;" 
 />
    <glyph glyph-name="circumflex" unicode="&#x2c6;" 
 />
    <glyph glyph-name="tilde" unicode="&#x2dc;" 
 />
    <glyph glyph-name="macron" unicode="&#x2c9;" 
 />
    <glyph glyph-name="breve" unicode="&#x2d8;" 
 />
    <glyph glyph-name="dotaccent" unicode="&#x2d9;" 
 />
    <glyph glyph-name="ring" unicode="&#x2da;" 
 />
    <glyph glyph-name="cedilla" unicode="&#xb8;" 
 />
    <glyph glyph-name="hungarumlaut" unicode="&#x2dd;" 
 />
    <glyph glyph-name="ogonek" unicode="&#x2db;" 
 />
    <glyph glyph-name="caron" unicode="&#x2c7;" 
 />
    <glyph glyph-name="Lslash" unicode="&#x141;" 
 />
    <glyph glyph-name="lslash" unicode="&#x142;" 
 />
    <glyph glyph-name="Scaron" unicode="&#x160;" 
 />
    <glyph glyph-name="scaron" unicode="&#x161;" 
 />
    <glyph glyph-name="Zcaron" unicode="&#x17d;" 
 />
    <glyph glyph-name="zcaron" unicode="&#x17e;" 
 />
    <glyph glyph-name="brokenbar" unicode="&#xa6;" 
 />
    <glyph glyph-name="Eth" unicode="&#xd0;" 
 />
    <glyph glyph-name="eth" unicode="&#xf0;" 
 />
    <glyph glyph-name="Yacute" unicode="&#xdd;" 
 />
    <glyph glyph-name="yacute" unicode="&#xfd;" 
 />
    <glyph glyph-name="Thorn" unicode="&#xde;" 
 />
    <glyph glyph-name="thorn" unicode="&#xfe;" 
 />
    <glyph glyph-name="minus" unicode="&#x2212;" 
 />
    <glyph glyph-name="multiply" unicode="&#xd7;" 
 />
    <glyph glyph-name="onesuperior" unicode="&#xb9;" 
 />
    <glyph glyph-name="twosuperior" unicode="&#xb2;" 
 />
    <glyph glyph-name="threesuperior" unicode="&#xb3;" 
 />
    <glyph glyph-name="onehalf" unicode="&#xbd;" 
 />
    <glyph glyph-name="onequarter" unicode="&#xbc;" 
 />
    <glyph glyph-name="threequarters" unicode="&#xbe;" 
 />
    <glyph glyph-name="franc" unicode="&#x20a3;" 
 />
    <glyph glyph-name="Gbreve" unicode="&#x11e;" 
 />
    <glyph glyph-name="gbreve" unicode="&#x11f;" 
 />
    <glyph glyph-name="Idotaccent" unicode="&#x130;" 
 />
    <glyph glyph-name="Scedilla" unicode="&#x15e;" 
 />
    <glyph glyph-name="scedilla" unicode="&#x15f;" 
 />
    <glyph glyph-name="Cacute" unicode="&#x106;" 
 />
    <glyph glyph-name="cacute" unicode="&#x107;" 
 />
    <glyph glyph-name="Ccaron" unicode="&#x10c;" 
 />
    <glyph glyph-name="ccaron" unicode="&#x10d;" 
 />
    <glyph glyph-name="dmacron" unicode="&#x111;" 
 />
    <glyph glyph-name="overscore" unicode="&#xaf;" 
 />
    <glyph glyph-name="middot" 
 />
    <glyph glyph-name="Abreve" unicode="&#x102;" 
 />
    <glyph glyph-name="abreve" unicode="&#x103;" 
 />
    <glyph glyph-name="Aogonek" unicode="&#x104;" 
 />
    <glyph glyph-name="aogonek" unicode="&#x105;" 
 />
    <glyph glyph-name="Dcaron" unicode="&#x10e;" 
 />
    <glyph glyph-name="dcaron" unicode="&#x10f;" 
 />
    <glyph glyph-name="Dslash" unicode="&#x110;" 
 />
    <glyph glyph-name="Eogonek" unicode="&#x118;" 
 />
    <glyph glyph-name="eogonek" unicode="&#x119;" 
 />
    <glyph glyph-name="Ecaron" unicode="&#x11a;" 
 />
    <glyph glyph-name="ecaron" unicode="&#x11b;" 
 />
    <glyph glyph-name="Lacute" unicode="&#x139;" 
 />
    <glyph glyph-name="lacute" unicode="&#x13a;" 
 />
    <glyph glyph-name="Lcaron" unicode="&#x13d;" 
 />
    <glyph glyph-name="lcaron" unicode="&#x13e;" 
 />
    <glyph glyph-name="Ldot" unicode="&#x13f;" 
 />
    <glyph glyph-name="ldot" unicode="&#x140;" 
 />
    <glyph glyph-name="Nacute" unicode="&#x143;" 
 />
    <glyph glyph-name="nacute" unicode="&#x144;" 
 />
    <glyph glyph-name="Ncaron" unicode="&#x147;" 
 />
    <glyph glyph-name="ncaron" unicode="&#x148;" 
 />
    <glyph glyph-name="Odblacute" unicode="&#x150;" 
 />
    <glyph glyph-name="odblacute" unicode="&#x151;" 
 />
    <glyph glyph-name="Racute" unicode="&#x154;" 
 />
    <glyph glyph-name="racute" unicode="&#x155;" 
 />
    <glyph glyph-name="Rcaron" unicode="&#x158;" 
 />
    <glyph glyph-name="rcaron" unicode="&#x159;" 
 />
    <glyph glyph-name="Sacute" unicode="&#x15a;" 
 />
    <glyph glyph-name="sacute" unicode="&#x15b;" 
 />
    <glyph glyph-name="Tcedilla" unicode="&#x162;" 
 />
    <glyph glyph-name="tcedilla" unicode="&#x163;" 
 />
    <glyph glyph-name="Tcaron" unicode="&#x164;" 
 />
    <glyph glyph-name="tcaron" unicode="&#x165;" 
 />
    <glyph glyph-name="Uring" unicode="&#x16e;" 
 />
    <glyph glyph-name="uring" unicode="&#x16f;" 
 />
    <glyph glyph-name="Udblacute" unicode="&#x170;" 
 />
    <glyph glyph-name="udblacute" unicode="&#x171;" 
 />
    <glyph glyph-name="Zacute" unicode="&#x179;" 
 />
    <glyph glyph-name="zacute" unicode="&#x17a;" 
 />
    <glyph glyph-name="Zdot" unicode="&#x17b;" 
 />
    <glyph glyph-name="zdot" unicode="&#x17c;" 
 />
    <glyph glyph-name="Gamma" unicode="&#x393;" 
 />
    <glyph glyph-name="Theta" unicode="&#x398;" 
 />
    <glyph glyph-name="Phi" unicode="&#x3a6;" 
 />
    <glyph glyph-name="alpha" unicode="&#x3b1;" 
 />
    <glyph glyph-name="delta" unicode="&#x3b4;" 
 />
    <glyph glyph-name="epsilon" unicode="&#x3b5;" 
 />
    <glyph glyph-name="sigma" unicode="&#x3c3;" 
 />
    <glyph glyph-name="tau" unicode="&#x3c4;" 
 />
    <glyph glyph-name="phi" unicode="&#x3c6;" 
 />
    <glyph glyph-name="underscoredbl" unicode="&#x2017;" 
 />
    <glyph glyph-name="exclamdbl" unicode="&#x203c;" 
 />
    <glyph glyph-name="nsuperior" unicode="&#x207f;" 
 />
    <glyph glyph-name="peseta" unicode="&#x20a7;" 
 />
    <glyph glyph-name="arrowleft" unicode="&#x2190;" 
 />
    <glyph glyph-name="arrowup" unicode="&#x2191;" 
 />
    <glyph glyph-name="arrowright" unicode="&#x2192;" 
 />
    <glyph glyph-name="arrowdown" unicode="&#x2193;" 
 />
    <glyph glyph-name="arrowboth" unicode="&#x2194;" 
 />
    <glyph glyph-name="arrowupdn" unicode="&#x2195;" 
 />
    <glyph glyph-name="arrowupdnbse" unicode="&#x21a8;" 
 />
    <glyph glyph-name="orthogonal" unicode="&#x221f;" 
 />
    <glyph glyph-name="intersection" unicode="&#x2229;" 
 />
    <glyph glyph-name="equivalence" unicode="&#x2261;" 
 />
    <glyph glyph-name="house" unicode="&#x2302;" 
 />
    <glyph glyph-name="revlogicalnot" unicode="&#x2310;" 
 />
    <glyph glyph-name="integraltp" unicode="&#x2320;" 
 />
    <glyph glyph-name="integralbt" unicode="&#x2321;" 
 />
    <glyph glyph-name="SF100000" unicode="&#x2500;" 
 />
    <glyph glyph-name="SF110000" unicode="&#x2502;" 
 />
    <glyph glyph-name="SF010000" unicode="&#x250c;" 
 />
    <glyph glyph-name="SF030000" unicode="&#x2510;" 
 />
    <glyph glyph-name="SF020000" unicode="&#x2514;" 
 />
    <glyph glyph-name="SF040000" unicode="&#x2518;" 
 />
    <glyph glyph-name="SF080000" unicode="&#x251c;" 
 />
    <glyph glyph-name="SF090000" unicode="&#x2524;" 
 />
    <glyph glyph-name="SF060000" unicode="&#x252c;" 
 />
    <glyph glyph-name="SF070000" unicode="&#x2534;" 
 />
    <glyph glyph-name="SF050000" unicode="&#x253c;" 
 />
    <glyph glyph-name="SF430000" unicode="&#x2550;" 
 />
    <glyph glyph-name="SF240000" unicode="&#x2551;" 
 />
    <glyph glyph-name="SF510000" unicode="&#x2552;" 
 />
    <glyph glyph-name="SF520000" unicode="&#x2553;" 
 />
    <glyph glyph-name="SF390000" unicode="&#x2554;" 
 />
    <glyph glyph-name="SF220000" unicode="&#x2555;" 
 />
    <glyph glyph-name="SF210000" unicode="&#x2556;" 
 />
    <glyph glyph-name="SF250000" unicode="&#x2557;" 
 />
    <glyph glyph-name="SF500000" unicode="&#x2558;" 
 />
    <glyph glyph-name="SF490000" unicode="&#x2559;" 
 />
    <glyph glyph-name="SF380000" unicode="&#x255a;" 
 />
    <glyph glyph-name="SF280000" unicode="&#x255b;" 
 />
    <glyph glyph-name="SF270000" unicode="&#x255c;" 
 />
    <glyph glyph-name="SF260000" unicode="&#x255d;" 
 />
    <glyph glyph-name="SF360000" unicode="&#x255e;" 
 />
    <glyph glyph-name="SF370000" unicode="&#x255f;" 
 />
    <glyph glyph-name="SF420000" unicode="&#x2560;" 
 />
    <glyph glyph-name="SF190000" unicode="&#x2561;" 
 />
    <glyph glyph-name="SF200000" unicode="&#x2562;" 
 />
    <glyph glyph-name="SF230000" unicode="&#x2563;" 
 />
    <glyph glyph-name="SF470000" unicode="&#x2564;" 
 />
    <glyph glyph-name="SF480000" unicode="&#x2565;" 
 />
    <glyph glyph-name="SF410000" unicode="&#x2566;" 
 />
    <glyph glyph-name="SF450000" unicode="&#x2567;" 
 />
    <glyph glyph-name="SF460000" unicode="&#x2568;" 
 />
    <glyph glyph-name="SF400000" unicode="&#x2569;" 
 />
    <glyph glyph-name="SF540000" unicode="&#x256a;" 
 />
    <glyph glyph-name="SF530000" unicode="&#x256b;" 
 />
    <glyph glyph-name="SF440000" unicode="&#x256c;" 
 />
    <glyph glyph-name="upblock" unicode="&#x2580;" 
 />
    <glyph glyph-name="dnblock" unicode="&#x2584;" 
 />
    <glyph glyph-name="block" unicode="&#x2588;" 
 />
    <glyph glyph-name="lfblock" unicode="&#x258c;" 
 />
    <glyph glyph-name="rtblock" unicode="&#x2590;" 
 />
    <glyph glyph-name="ltshade" unicode="&#x2591;" 
 />
    <glyph glyph-name="shade" unicode="&#x2592;" 
 />
    <glyph glyph-name="dkshade" unicode="&#x2593;" 
 />
    <glyph glyph-name="filledbox" unicode="&#x25a0;" 
 />
    <glyph glyph-name="filledrect" unicode="&#x25ac;" 
 />
    <glyph glyph-name="triagup" unicode="&#x25b2;" 
 />
    <glyph glyph-name="triagrt" unicode="&#x25ba;" 
 />
    <glyph glyph-name="triagdn" unicode="&#x25bc;" 
 />
    <glyph glyph-name="triaglf" unicode="&#x25c4;" 
 />
    <glyph glyph-name="circle" unicode="&#x25cb;" 
 />
    <glyph glyph-name="invbullet" unicode="&#x25d8;" 
 />
    <glyph glyph-name="invcircle" unicode="&#x25d9;" 
 />
    <glyph glyph-name="smileface" unicode="&#x263a;" 
 />
    <glyph glyph-name="invsmileface" unicode="&#x263b;" 
 />
    <glyph glyph-name="sun" unicode="&#x263c;" 
 />
    <glyph glyph-name="female" unicode="&#x2640;" 
 />
    <glyph glyph-name="male" unicode="&#x2642;" 
 />
    <glyph glyph-name="spade" unicode="&#x2660;" 
 />
    <glyph glyph-name="club" unicode="&#x2663;" 
 />
    <glyph glyph-name="heart" unicode="&#x2665;" 
 />
    <glyph glyph-name="diamond" unicode="&#x2666;" 
 />
    <glyph glyph-name="musicalnote" unicode="&#x266a;" 
 />
    <glyph glyph-name="musicalnotedbl" unicode="&#x266b;" 
 />
    <glyph glyph-name="IJ" unicode="&#x132;" 
 />
    <glyph glyph-name="ij" unicode="&#x133;" 
 />
    <glyph glyph-name="napostrophe" unicode="&#x149;" 
 />
    <glyph glyph-name="minute" unicode="&#x2032;" 
 />
    <glyph glyph-name="second" unicode="&#x2033;" 
 />
    <glyph glyph-name="afii61248" unicode="&#x2105;" 
 />
    <glyph glyph-name="afii61289" unicode="&#x2113;" 
 />
    <glyph glyph-name="H22073" unicode="&#x25a1;" 
 />
    <glyph glyph-name="H18543" unicode="&#x25aa;" 
 />
    <glyph glyph-name="H18551" unicode="&#x25ab;" 
 />
    <glyph glyph-name="H18533" unicode="&#x25cf;" 
 />
    <glyph glyph-name="openbullet" unicode="&#x25e6;" 
 />
    <glyph glyph-name="Amacron" unicode="&#x100;" 
 />
    <glyph glyph-name="amacron" unicode="&#x101;" 
 />
    <glyph glyph-name="Ccircumflex" unicode="&#x108;" 
 />
    <glyph glyph-name="ccircumflex" unicode="&#x109;" 
 />
    <glyph glyph-name="Cdot" unicode="&#x10a;" 
 />
    <glyph glyph-name="cdot" unicode="&#x10b;" 
 />
    <glyph glyph-name="Emacron" unicode="&#x112;" 
 />
    <glyph glyph-name="emacron" unicode="&#x113;" 
 />
    <glyph glyph-name="Ebreve" unicode="&#x114;" 
 />
    <glyph glyph-name="ebreve" unicode="&#x115;" 
 />
    <glyph glyph-name="Edot" unicode="&#x116;" 
 />
    <glyph glyph-name="edot" unicode="&#x117;" 
 />
    <glyph glyph-name="Gcircumflex" unicode="&#x11c;" 
 />
    <glyph glyph-name="gcircumflex" unicode="&#x11d;" 
 />
    <glyph glyph-name="Gdot" unicode="&#x120;" 
 />
    <glyph glyph-name="gdot" unicode="&#x121;" 
 />
    <glyph glyph-name="Gcedilla" unicode="&#x122;" 
 />
    <glyph glyph-name="gcedilla" unicode="&#x123;" 
 />
    <glyph glyph-name="Hcircumflex" unicode="&#x124;" 
 />
    <glyph glyph-name="hcircumflex" unicode="&#x125;" 
 />
    <glyph glyph-name="Hbar" unicode="&#x126;" 
 />
    <glyph glyph-name="hbar" unicode="&#x127;" 
 />
    <glyph glyph-name="Itilde" unicode="&#x128;" 
 />
    <glyph glyph-name="itilde" unicode="&#x129;" 
 />
    <glyph glyph-name="Imacron" unicode="&#x12a;" 
 />
    <glyph glyph-name="imacron" unicode="&#x12b;" 
 />
    <glyph glyph-name="Ibreve" unicode="&#x12c;" 
 />
    <glyph glyph-name="ibreve" unicode="&#x12d;" 
 />
    <glyph glyph-name="Iogonek" unicode="&#x12e;" 
 />
    <glyph glyph-name="iogonek" unicode="&#x12f;" 
 />
    <glyph glyph-name="Jcircumflex" unicode="&#x134;" 
 />
    <glyph glyph-name="jcircumflex" unicode="&#x135;" 
 />
    <glyph glyph-name="Kcedilla" unicode="&#x136;" 
 />
    <glyph glyph-name="kcedilla" unicode="&#x137;" 
 />
    <glyph glyph-name="kgreenlandic" unicode="&#x138;" 
 />
    <glyph glyph-name="Lcedilla" unicode="&#x13b;" 
 />
    <glyph glyph-name="lcedilla" unicode="&#x13c;" 
 />
    <glyph glyph-name="Ncedilla" unicode="&#x145;" 
 />
    <glyph glyph-name="ncedilla" unicode="&#x146;" 
 />
    <glyph glyph-name="Eng" unicode="&#x14a;" 
 />
    <glyph glyph-name="eng" unicode="&#x14b;" 
 />
    <glyph glyph-name="Omacron" unicode="&#x14c;" 
 />
    <glyph glyph-name="omacron" unicode="&#x14d;" 
 />
    <glyph glyph-name="Obreve" unicode="&#x14e;" 
 />
    <glyph glyph-name="obreve" unicode="&#x14f;" 
 />
    <glyph glyph-name="Rcedilla" unicode="&#x156;" 
 />
    <glyph glyph-name="rcedilla" unicode="&#x157;" 
 />
    <glyph glyph-name="Scircumflex" unicode="&#x15c;" 
 />
    <glyph glyph-name="scircumflex" unicode="&#x15d;" 
 />
    <glyph glyph-name="Tbar" unicode="&#x166;" 
 />
    <glyph glyph-name="tbar" unicode="&#x167;" 
 />
    <glyph glyph-name="Utilde" unicode="&#x168;" 
 />
    <glyph glyph-name="utilde" unicode="&#x169;" 
 />
    <glyph glyph-name="Umacron" unicode="&#x16a;" 
 />
    <glyph glyph-name="umacron" unicode="&#x16b;" 
 />
    <glyph glyph-name="Ubreve" unicode="&#x16c;" 
 />
    <glyph glyph-name="ubreve" unicode="&#x16d;" 
 />
    <glyph glyph-name="Uogonek" unicode="&#x172;" 
 />
    <glyph glyph-name="uogonek" unicode="&#x173;" 
 />
    <glyph glyph-name="Wcircumflex" unicode="&#x174;" 
 />
    <glyph glyph-name="wcircumflex" unicode="&#x175;" 
 />
    <glyph glyph-name="Ycircumflex" unicode="&#x176;" 
 />
    <glyph glyph-name="ycircumflex" unicode="&#x177;" 
 />
    <glyph glyph-name="longs" unicode="&#x17f;" 
 />
    <glyph glyph-name="Aringacute" unicode="&#x1fa;" 
 />
    <glyph glyph-name="aringacute" unicode="&#x1fb;" 
 />
    <glyph glyph-name="AEacute" unicode="&#x1fc;" 
 />
    <glyph glyph-name="aeacute" unicode="&#x1fd;" 
 />
    <glyph glyph-name="Oslashacute" unicode="&#x1fe;" 
 />
    <glyph glyph-name="oslashacute" unicode="&#x1ff;" 
 />
    <glyph glyph-name="anoteleia" unicode="&#x387;" 
 />
    <glyph glyph-name="Wgrave" unicode="&#x1e80;" 
 />
    <glyph glyph-name="wgrave" unicode="&#x1e81;" 
 />
    <glyph glyph-name="Wacute" unicode="&#x1e82;" 
 />
    <glyph glyph-name="wacute" unicode="&#x1e83;" 
 />
    <glyph glyph-name="Wdieresis" unicode="&#x1e84;" 
 />
    <glyph glyph-name="wdieresis" unicode="&#x1e85;" 
 />
    <glyph glyph-name="Ygrave" unicode="&#x1ef2;" 
 />
    <glyph glyph-name="ygrave" unicode="&#x1ef3;" 
 />
    <glyph glyph-name="quotereversed" unicode="&#x201b;" 
 />
    <glyph glyph-name="radicalex" unicode="&#x203e;" 
 />
    <glyph glyph-name="afii08941" unicode="&#x20a4;" 
 />
    <glyph glyph-name="estimated" unicode="&#x212e;" 
 />
    <glyph glyph-name="oneeighth" unicode="&#x215b;" 
 />
    <glyph glyph-name="threeeighths" unicode="&#x215c;" 
 />
    <glyph glyph-name="fiveeighths" unicode="&#x215d;" 
 />
    <glyph glyph-name="seveneighths" unicode="&#x215e;" 
 />
    <glyph glyph-name="commaaccent" unicode="&#xf004;" 
 />
    <glyph glyph-name="undercommaaccent" unicode="&#xf005;" 
 />
    <glyph glyph-name="tonos" unicode="&#x384;" 
 />
    <glyph glyph-name="dieresistonos" unicode="&#x385;" 
 />
    <glyph glyph-name="Alphatonos" unicode="&#x386;" 
 />
    <glyph glyph-name="Epsilontonos" unicode="&#x388;" 
 />
    <glyph glyph-name="Etatonos" unicode="&#x389;" 
 />
    <glyph glyph-name="Iotatonos" unicode="&#x38a;" 
 />
    <glyph glyph-name="Omicrontonos" unicode="&#x38c;" 
 />
    <glyph glyph-name="Upsilontonos" unicode="&#x38e;" 
 />
    <glyph glyph-name="Omegatonos" unicode="&#x38f;" 
 />
    <glyph glyph-name="iotadieresistonos" unicode="&#x390;" 
 />
    <glyph glyph-name="Alpha" unicode="&#x391;" 
 />
    <glyph glyph-name="Beta" unicode="&#x392;" 
 />
    <glyph glyph-name="Delta" unicode="&#x394;" 
 />
    <glyph glyph-name="Epsilon" unicode="&#x395;" 
 />
    <glyph glyph-name="Zeta" unicode="&#x396;" 
 />
    <glyph glyph-name="Eta" unicode="&#x397;" 
 />
    <glyph glyph-name="Iota" unicode="&#x399;" 
 />
    <glyph glyph-name="Kappa" unicode="&#x39a;" 
 />
    <glyph glyph-name="Lambda" unicode="&#x39b;" 
 />
    <glyph glyph-name="Mu" unicode="&#x39c;" 
 />
    <glyph glyph-name="Nu" unicode="&#x39d;" 
 />
    <glyph glyph-name="Xi" unicode="&#x39e;" 
 />
    <glyph glyph-name="Omicron" unicode="&#x39f;" 
 />
    <glyph glyph-name="Pi" unicode="&#x3a0;" 
 />
    <glyph glyph-name="Rho" unicode="&#x3a1;" 
 />
    <glyph glyph-name="Sigma" unicode="&#x3a3;" 
 />
    <glyph glyph-name="Tau" unicode="&#x3a4;" 
 />
    <glyph glyph-name="Upsilon" unicode="&#x3a5;" 
 />
    <glyph glyph-name="Chi" unicode="&#x3a7;" 
 />
    <glyph glyph-name="Psi" unicode="&#x3a8;" 
 />
    <glyph glyph-name="Omega" unicode="&#x3a9;" 
 />
    <glyph glyph-name="Iotadieresis" unicode="&#x3aa;" 
 />
    <glyph glyph-name="Upsilondieresis" unicode="&#x3ab;" 
 />
    <glyph glyph-name="alphatonos" unicode="&#x3ac;" 
 />
    <glyph glyph-name="epsilontonos" unicode="&#x3ad;" 
 />
    <glyph glyph-name="etatonos" unicode="&#x3ae;" 
 />
    <glyph glyph-name="iotatonos" unicode="&#x3af;" 
 />
    <glyph glyph-name="upsilondieresistonos" unicode="&#x3b0;" 
 />
    <glyph glyph-name="beta" unicode="&#x3b2;" 
 />
    <glyph glyph-name="gamma" unicode="&#x3b3;" 
 />
    <glyph glyph-name="zeta" unicode="&#x3b6;" 
 />
    <glyph glyph-name="eta" unicode="&#x3b7;" 
 />
    <glyph glyph-name="theta" unicode="&#x3b8;" 
 />
    <glyph glyph-name="iota" unicode="&#x3b9;" 
 />
    <glyph glyph-name="kappa" unicode="&#x3ba;" 
 />
    <glyph glyph-name="lambda" unicode="&#x3bb;" 
 />
    <glyph glyph-name="mu" unicode="&#x3bc;" 
 />
    <glyph glyph-name="nu" unicode="&#x3bd;" 
 />
    <glyph glyph-name="xi" unicode="&#x3be;" 
 />
    <glyph glyph-name="omicron" unicode="&#x3bf;" 
 />
    <glyph glyph-name="rho" unicode="&#x3c1;" 
 />
    <glyph glyph-name="sigma1" unicode="&#x3c2;" 
 />
    <glyph glyph-name="upsilon" unicode="&#x3c5;" 
 />
    <glyph glyph-name="chi" unicode="&#x3c7;" 
 />
    <glyph glyph-name="psi" unicode="&#x3c8;" 
 />
    <glyph glyph-name="omega" unicode="&#x3c9;" 
 />
    <glyph glyph-name="iotadieresis" unicode="&#x3ca;" 
 />
    <glyph glyph-name="upsilondieresis" unicode="&#x3cb;" 
 />
    <glyph glyph-name="omicrontonos" unicode="&#x3cc;" 
 />
    <glyph glyph-name="upsilontonos" unicode="&#x3cd;" 
 />
    <glyph glyph-name="omegatonos" unicode="&#x3ce;" 
 />
    <glyph glyph-name="afii10023" unicode="&#x401;" 
 />
    <glyph glyph-name="afii10051" unicode="&#x402;" 
 />
    <glyph glyph-name="afii10052" unicode="&#x403;" 
 />
    <glyph glyph-name="afii10053" unicode="&#x404;" 
 />
    <glyph glyph-name="afii10054" unicode="&#x405;" 
 />
    <glyph glyph-name="afii10055" unicode="&#x406;" 
 />
    <glyph glyph-name="afii10056" unicode="&#x407;" 
 />
    <glyph glyph-name="afii10057" unicode="&#x408;" 
 />
    <glyph glyph-name="afii10058" unicode="&#x409;" 
 />
    <glyph glyph-name="afii10059" unicode="&#x40a;" 
 />
    <glyph glyph-name="afii10060" unicode="&#x40b;" 
 />
    <glyph glyph-name="afii10061" unicode="&#x40c;" 
 />
    <glyph glyph-name="afii10062" unicode="&#x40e;" 
 />
    <glyph glyph-name="afii10145" unicode="&#x40f;" 
 />
    <glyph glyph-name="afii10017" unicode="&#x410;" 
 />
    <glyph glyph-name="afii10018" unicode="&#x411;" 
 />
    <glyph glyph-name="afii10019" unicode="&#x412;" 
 />
    <glyph glyph-name="afii10020" unicode="&#x413;" 
 />
    <glyph glyph-name="afii10021" unicode="&#x414;" 
 />
    <glyph glyph-name="afii10022" unicode="&#x415;" 
 />
    <glyph glyph-name="afii10024" unicode="&#x416;" 
 />
    <glyph glyph-name="afii10025" unicode="&#x417;" 
 />
    <glyph glyph-name="afii10026" unicode="&#x418;" 
 />
    <glyph glyph-name="afii10027" unicode="&#x419;" 
 />
    <glyph glyph-name="afii10028" unicode="&#x41a;" 
 />
    <glyph glyph-name="afii10029" unicode="&#x41b;" 
 />
    <glyph glyph-name="afii10030" unicode="&#x41c;" 
 />
    <glyph glyph-name="afii10031" unicode="&#x41d;" 
 />
    <glyph glyph-name="afii10032" unicode="&#x41e;" 
 />
    <glyph glyph-name="afii10033" unicode="&#x41f;" 
 />
    <glyph glyph-name="afii10034" unicode="&#x420;" 
 />
    <glyph glyph-name="afii10035" unicode="&#x421;" 
 />
    <glyph glyph-name="afii10036" unicode="&#x422;" 
 />
    <glyph glyph-name="afii10037" unicode="&#x423;" 
 />
    <glyph glyph-name="afii10038" unicode="&#x424;" 
 />
    <glyph glyph-name="afii10039" unicode="&#x425;" 
 />
    <glyph glyph-name="afii10040" unicode="&#x426;" 
 />
    <glyph glyph-name="afii10041" unicode="&#x427;" 
 />
    <glyph glyph-name="afii10042" unicode="&#x428;" 
 />
    <glyph glyph-name="afii10043" unicode="&#x429;" 
 />
    <glyph glyph-name="afii10044" unicode="&#x42a;" 
 />
    <glyph glyph-name="afii10045" unicode="&#x42b;" 
 />
    <glyph glyph-name="afii10046" unicode="&#x42c;" 
 />
    <glyph glyph-name="afii10047" unicode="&#x42d;" 
 />
    <glyph glyph-name="afii10048" unicode="&#x42e;" 
 />
    <glyph glyph-name="afii10049" unicode="&#x42f;" 
 />
    <glyph glyph-name="afii10065" unicode="&#x430;" 
 />
    <glyph glyph-name="afii10066" unicode="&#x431;" 
 />
    <glyph glyph-name="afii10067" unicode="&#x432;" 
 />
    <glyph glyph-name="afii10068" unicode="&#x433;" 
 />
    <glyph glyph-name="afii10069" unicode="&#x434;" 
 />
    <glyph glyph-name="afii10070" unicode="&#x435;" 
 />
    <glyph glyph-name="afii10072" unicode="&#x436;" 
 />
    <glyph glyph-name="afii10073" unicode="&#x437;" 
 />
    <glyph glyph-name="afii10074" unicode="&#x438;" 
 />
    <glyph glyph-name="afii10075" unicode="&#x439;" 
 />
    <glyph glyph-name="afii10076" unicode="&#x43a;" 
 />
    <glyph glyph-name="afii10077" unicode="&#x43b;" 
 />
    <glyph glyph-name="afii10078" unicode="&#x43c;" 
 />
    <glyph glyph-name="afii10079" unicode="&#x43d;" 
 />
    <glyph glyph-name="afii10080" unicode="&#x43e;" 
 />
    <glyph glyph-name="afii10081" unicode="&#x43f;" 
 />
    <glyph glyph-name="afii10082" unicode="&#x440;" 
 />
    <glyph glyph-name="afii10083" unicode="&#x441;" 
 />
    <glyph glyph-name="afii10084" unicode="&#x442;" 
 />
    <glyph glyph-name="afii10085" unicode="&#x443;" 
 />
    <glyph glyph-name="afii10086" unicode="&#x444;" 
 />
    <glyph glyph-name="afii10087" unicode="&#x445;" 
 />
    <glyph glyph-name="afii10088" unicode="&#x446;" 
 />
    <glyph glyph-name="afii10089" unicode="&#x447;" 
 />
    <glyph glyph-name="afii10090" unicode="&#x448;" 
 />
    <glyph glyph-name="afii10091" unicode="&#x449;" 
 />
    <glyph glyph-name="afii10092" unicode="&#x44a;" 
 />
    <glyph glyph-name="afii10093" unicode="&#x44b;" 
 />
    <glyph glyph-name="afii10094" unicode="&#x44c;" 
 />
    <glyph glyph-name="afii10095" unicode="&#x44d;" 
 />
    <glyph glyph-name="afii10096" unicode="&#x44e;" 
 />
    <glyph glyph-name="afii10097" unicode="&#x44f;" 
 />
    <glyph glyph-name="afii10071" unicode="&#x451;" 
 />
    <glyph glyph-name="afii10099" unicode="&#x452;" 
 />
    <glyph glyph-name="afii10100" unicode="&#x453;" 
 />
    <glyph glyph-name="afii10101" unicode="&#x454;" 
 />
    <glyph glyph-name="afii10102" unicode="&#x455;" 
 />
    <glyph glyph-name="afii10103" unicode="&#x456;" 
 />
    <glyph glyph-name="afii10104" unicode="&#x457;" 
 />
    <glyph glyph-name="afii10105" unicode="&#x458;" 
 />
    <glyph glyph-name="afii10106" unicode="&#x459;" 
 />
    <glyph glyph-name="afii10107" unicode="&#x45a;" 
 />
    <glyph glyph-name="afii10108" unicode="&#x45b;" 
 />
    <glyph glyph-name="afii10109" unicode="&#x45c;" 
 />
    <glyph glyph-name="afii10110" unicode="&#x45e;" 
 />
    <glyph glyph-name="afii10193" unicode="&#x45f;" 
 />
    <glyph glyph-name="afii10050" unicode="&#x490;" 
 />
    <glyph glyph-name="afii10098" unicode="&#x491;" 
 />
    <glyph glyph-name="afii00208" unicode="&#x2015;" 
 />
    <glyph glyph-name="afii61352" unicode="&#x2116;" 
 />
    <glyph glyph-name="pi" unicode="&#x3c0;" 
 />
  </font>
</defs>
</svg>
