<?xml version="1.0" standalone="no"?>
<!DOCTYPE svg PUBLIC "-//W3C//DTD SVG 1.1//EN" "http://www.w3.org/Graphics/SVG/1.1/DTD/svg11.dtd" >
<svg>
<metadata>
Created by FontForge 20090914 at Thu Feb 23 16:33:42 2012
 By ffonts
&#194;&#169;GeM / A. H&#195;&#182;feld
</metadata>
<defs>
<font id="ACharmingFontItalic" horiz-adv-x="1024" >
  <font-face 
    font-family="A Charming Font Italic"
    font-weight="400"
    font-style="italic"
    font-stretch="normal"
    units-per-em="2048"
    panose-1="0 0 4 0 0 0 0 0 0 0"
    ascent="1638"
    descent="-410"
    x-height="666"
    cap-height="1343"
    bbox="-845 -694.571 2081.74 1866"
    underline-thickness="150"
    underline-position="-142"
    unicode-range="U+0020-U+FB02"
  />
<missing-glyph 
d="M128 0v1866h768v-1866h-768zM256 128h512v1610h-512v-1610z" />
    <glyph glyph-name=".notdef" 
d="M128 0v1866h768v-1866h-768zM256 128h512v1610h-512v-1610z" />
    <glyph glyph-name=".null" horiz-adv-x="0" 
 />
    <glyph glyph-name="nonmarkingreturn" horiz-adv-x="377" 
 />
    <glyph glyph-name="space" unicode=" " horiz-adv-x="377" 
 />
    <glyph glyph-name="exclam" unicode="!" horiz-adv-x="176" 
d="M415 1288q-22 12 -39 55l156 -6l-342 -1018zM198 166l-91 -164l9 211z" />
    <glyph glyph-name="quotedbl" unicode="&#x22;" horiz-adv-x="367" 
d="M475 1200l-155 -371l75 420zM660 1200l-153 -371l73 420z" />
    <glyph glyph-name="numbersign" unicode="#" horiz-adv-x="684" 
d="M459 678l172 2l-35 -113h-186zM598 989l-156 8q15 -45 36 -55l-67 -207h-174l63 -57l92 2l-37 -113h-181l62 -57h99l-130 -399l179 399h192l-129 -399l178 399h160l-62 57h-73l51 111l150 2l-65 55h-62l115 254l-155 8q14 -45 34 -55l-67 -207h-166z" />
    <glyph glyph-name="dollar" unicode="$" horiz-adv-x="815" 
d="M581 784q-22 4 -45 11l-13 4q-117 36 -117 145q0 28 8 62q33 137 252 137h2zM442 223q-144 10 -204 37q-94 42 -94 131q0 12 1 25q34 86 155 123q26 8 152 26q42 6 53 6h21l-38 -168q-7 -1 -34 -2q-117 -3 -126 76l-11 12q-4 -11 -4 -23q0 -20 10 -41q16 -36 41 -48
q52 -25 111 -21zM577 563q76 -17 76 -63q0 -9 -3 -19q-14 -53 -119 -71zM614 684l130 -25q120 -23 120 -141q0 -33 -10 -72q-59 -233 -300 -227l-83 2l46 139q119 21 146 107q6 16 6 30q0 58 -85 93zM819 1339l-156 7q19 -43 40 -56l-27 -112q-268 -23 -316 -217
q-11 -48 -11 -87q0 -121 111 -163l97 -19l-22 -88q-29 6 -62 6q-87 0 -173 -32q-131 -49 -159 -150q-6 -22 -6 -49q-2 -19 -2 -36q0 -180 293 -193l-81 -330l104 330h28q185 0 286.5 79.5t145.5 259.5q11 48 11 88q0 122 -112 164l-164 31l116 369q100 -8 143 -39
q65 -46 65 -146q0 -44 -13 -98q12 32 46 115q43 108 94 133h-23q-55 0 -117 65q-124 11 -184 11z" />
    <glyph glyph-name="percent" unicode="%" horiz-adv-x="891" 
d="M1244 1352q-115 -274 -542 -572l-326 -225q-260 -225 -344 -530l-5 -19q103 273 362 463l480 352q262 192 384 531h-9zM1005 541v0l3 -2q-92 -212 -198 -344l-138 -172l-10 -13q-43 97 -43 235q0 148 49 343l131 78q139 -56 206 -125zM715 84v0q131 192 181 375
q12 41 18 78q-90 51 -141 61q-23 -53 -38 -109q-37 -132 -37 -249q0 -82 17 -156zM717 1214v0l1 -2q-86 -208 -196 -344l-138 -172l-10 -12q-43 97 -43 236q0 147 49 342l129 77q139 -55 208 -125zM428 758v0q130 192 181 375q11 41 15 77q-91 52 -141 62q-21 -53 -36 -109
q-36 -132 -36 -250q0 -81 17 -155z" />
    <glyph glyph-name="ampersand" unicode="&#x26;" horiz-adv-x="956" 
d="M422 432v0h-4q15 -35 31 -78q28 -43 69 -43q37 0 94 25h-2q5 -47 105 -131t101 -90q-40 -78 -224 -78q-133 0 -222 36q-126 52 -126 165q0 32 10 69q55 199 177 291q92 70 286 88l-5 4l8 2q-170 33 -214 74q-37 34 -37 98q0 39 14 90q9 32 24 72q55 147 133 212
q88 73 237 73q45 0 87 -27q46 -31 46 -74q0 -16 -6 -34q-14 -27 -162.5 -104t-158.5 -101q-3 -9 -3 -18q0 -35 49 -66q41 -26 81 -33q-77 31 -77 71q0 7 3 15q25 21 126 64q129 55 147 65q80 44 101 100q9 24 9 45q0 78 -118 115q-84 26 -180 23q-141 -4 -260 -98
q-113 -88 -169 -224q-15 -36 -19 -51q-13 -47 -13 -86q0 -159 207 -203q-181 -31 -280 -109q-108 -86 -154 -255q-14 -50 -14 -91q0 -229 403 -229q94 0 217 23q175 33 195 90q9 25 -92 114q-111 98 -128 125q17 43 102 72q-2 0 10 2q22 6 33 10q19 2 31 2q82 0 117 -104
q-16 174 -121 174q-10 0 -26 -2q-43 -10 -170 -72q-108 -53 -168 -53q-66 0 -100 45z" />
    <glyph glyph-name="quotesingle" unicode="'" horiz-adv-x="197" 
d="M475 1200l-155 -371l75 420z" />
    <glyph glyph-name="parenleft" unicode="(" horiz-adv-x="543" 
d="M61 -157q0 -99 14 -187q54 -334 294 -348q-218 112 -219 478q0 261 104 640q77 279 260 547q230 338 471 360q-271 0 -542 -370q-382 -521 -382 -1120z" />
    <glyph glyph-name="parenright" unicode=")" horiz-adv-x="590" 
d="M653 358v0q-111 -405 -322 -702q-237 -334 -484 -348q474 190 729 1118q53 191 53 377q0 86 -11 170q-45 338 -274 360q271 0 339 -370q22 -118 22 -237q0 -183 -52 -368z" />
    <glyph glyph-name="asterisk" unicode="*" horiz-adv-x="600" 
d="M796 809q0 22 -42 65l-33 35q-8 9 -19 23q13 26 14 49q10 7 31 23q122 85 130 100q-4 1 -11 1q-22 0 -82 -18l-53 -16q-27 -8 -36 -8q-16 20 -41 33l5 78q4 51 -7 71q-19 -13 -50 -71l-43 -80q-34 -11 -62 -31q-42 10 -28 10q-10 0 -26 4l-40 10q-65 16 -69 15
q1 -25 45 -66l34 -32q1 -3 21 -23q-16 -23 -14 -51l-33 -21q-122 -78 -133 -98q22 -2 74 13q56 16 77 16q-14 0 34 10q16 -23 44 -31q1 -139 10 -151q57 88 84 151q32 8 60 31zM792 1069v0q29 12 50 16q-77 -51 -127 -79q-1 20 -6 36l14 7h4q6 0 65 20zM639 1206v0
q-2 -67 -6 -106q-17 2 -25 2q-10 0 -24 -2q36 65 55 106zM652 1063v0q5 -2 11 -8q-4 -2 -12 -4q2 6 1 12zM681 1038q13 -22 15 -51q-17 -10 -32 -18q-15 12 -37 16q15 21 21 43q13 6 33 10zM691 963v0l-4 -13q-3 2 -6 6zM732 866l39 -39q-88 35 -96 35h-4l-10 6q14 17 27 39
q7 -4 17 -14zM631 1071v0q0 -14 -3 -31q-23 -10 -44 -26q-12 16 -30 26l13 31q18 4 34 4q17 0 30 -4zM593 997v0q14 11 26 17q-4 -13 -11 -25q-3 4 -15 8zM616 965q11 -2 20 -9q-13 -6 -25 -8q-2 3 -2 8zM657 944v0q11 -8 21 -20q-18 -29 -43 -50q-16 5 -27 11q4 14 4 28
q0 8 -1 15q25 6 46 16zM526 1055v0q10 6 14 8l-3 -12q-3 2 -11 4zM549 1014v0q7 -6 14 -17q-8 -8 -17 -8q-1 12 3 25zM580 971q2 -8 5 -15q-7 -8 -13 -14h-16q-4 6 -4 14q4 7 12 15h16zM590 922v0q1 -11 -3 -25l-17 16q9 7 20 9zM599 862v0q7 -2 10 -6l-15 -6q4 6 5 12z
M529 1028v0q-4 -22 -6 -43q-21 -6 -43 -16q-12 8 -22 20q17 27 43 49q16 -4 28 -10zM526 965v0q2 -10 -5 -17q-12 2 -22 8q14 7 27 9zM528 922v0q10 -2 12 -9l-23 -16q4 14 11 25zM552 899v0q13 -14 30 -27q-6 -16 -14 -30q-15 -4 -32 -4q-16 0 -32 4q2 16 4 30q24 13 44 27
zM473 1044h2q-16 -16 -28 -36q-2 1 -14 12l-32 27q-13 10 -41 34q67 -18 99 -30h6zM447 963q3 -2 9 -7q-8 -4 -13 -8zM473 944v0q15 -10 34 -16l-18 -43q-14 -6 -34 -11q-14 21 -15 50q17 12 33 20zM485 862v0l-3 -12l-10 6q6 2 13 6zM553 811l-51 -104q0 67 2 104h49z
M419 905v0q0 -20 8 -37l-14 -8h-6q-97 -16 -116 -31q40 31 128 76z" />
    <glyph glyph-name="plus" unicode="+" horiz-adv-x="684" 
d="M785 487l-70 58h-194l63 194l-58 86l-63 -280h-280l68 -58h196l-47 -225l-9 -69l114 294h280z" />
    <glyph glyph-name="comma" unicode="," horiz-adv-x="176" 
d="M175 166l-155 -371l74 420z" />
    <glyph glyph-name="hyphen" unicode="-" horiz-adv-x="592" 
d="M181 545l68 -58h448l-70 58h-446z" />
    <glyph glyph-name="hyphen" unicode="&#x2010;" horiz-adv-x="592" 
d="M181 545l68 -58h448l-70 58h-446z" />
    <glyph glyph-name="period" unicode="." horiz-adv-x="176" 
d="M179 166l-88 -162l7 211z" />
    <glyph glyph-name="slash" unicode="/" horiz-adv-x="891" 
d="M1244 1352q-115 -274 -542 -572l-326 -225q-260 -225 -344 -530l-5 -19q103 273 362 463l480 352q262 192 384 531h-9z" />
    <glyph glyph-name="zero" unicode="0" horiz-adv-x="762" 
d="M353 635q11 153 62 338q16 61 99 256q92 -20 197 -60q30 -11 185 -86l-23 -82q-29 -33 -46 -49q-72 -66 -273 -182q-125 -72 -201 -135zM292 221v0q19 -112 53 -209l267 359q210 292 434 723q-147 143 -431 262l-247 -146q-90 -364 -98 -661q-72 -101 -97 -205
q-13 -49 8 -86t72 -41q21 -2 39 4zM268 492v0q3 -119 18 -228q-30 -18 -52 -18q-21 0 -38 18q-31 31 -10 86q30 78 82 142zM857 942v0l-9 -35q-69 -248 -433 -739q-17 57 -32 115l1 4q59 53 96 141q16 39 16 86q1 53 -24 72l-1 -11q6 -17 6 -37q0 -95 -104 -202
q-26 136 -22 217l1 18q71 56 257 177q169 110 248 194z" />
    <glyph glyph-name="one" unicode="1" horiz-adv-x="299" 
d="M486 1192q-115 16 -123 37l269 108l-437 -1382z" />
    <glyph glyph-name="two" unicode="2" horiz-adv-x="752" 
d="M255 176v0q-69 -110 -124 -213q-72 14 -72 72q0 13 3 28q13 55 51 80q57 37 113 37q12 0 29 -4zM659 -12v0q88 0 183 61v14q-50 -28 -135 -32q-42 -2 -68 4q-52 12 -177 112q-58 47 -120 74q277 301 362 400q249 292 281 409q9 31 9 62q0 112 -118 211q-53 45 -155 45
q-127 0 -223 -54q-108 -62 -139 -176q-7 -23 -7 -46q0 -56 38 -109q26 -37 108 -63q70 -23 126 -23h41l-34 18q-66 8 -118 46q-60 44 -60 105q0 17 4 35l9 33q54 193 239 207q112 8 155 -43q49 -59 49 -131q0 -48 -24 -103q-42 -100 -271 -389q-268 -340 -320 -419h-18
q-81 0 -174 -80q-45 -38 -61 -111q-5 -24 -5 -44q0 -71 65 -97q-42 -66 -67 -99q5 9 29 27q40 45 52 68h2q14 -4 28 -4q87 0 150 98q32 48 38 86l-20 -21q-17 -40 -59 -72t-84 -30q-11 2 -15 2q64 100 142 203q66 -32 151 -90q122 -84 211 -84z" />
    <glyph glyph-name="three" unicode="3" horiz-adv-x="856" 
d="M465 932v0q51 8 115 39q91 44 91 90t-94 90q-122 56 -133 98q10 32 53 53q37 19 75 19q233 0 324 -31q138 -47 138 -177q0 -39 -12 -85q-53 -199 -149 -262q-57 -37 -266 -72l5 -4l-7 -2q177 -20 227 -93q26 -38 26 -103q0 -64 -26 -154q-87 -301 -521 -301q-22 0 -90 6
q-92 8 -83 72q25 27 167 97q135 66 178 124q-33 72 -156 94q70 -29 70 -63q0 -4 -2 -9q-2 -9 -184.5 -115t-187.5 -124q-1 -4 -1 -9q0 -34 73 -63q104 -41 267 -41q200 0 349 64q193 82 248 262q28 90 28 155q0 58 -22 96q-45 79 -206 109q174 31 249 88q94 72 143 250
q14 51 14 94q0 232 -407 232q-45 0 -179 -13q-69 -7 -135 -28q-101 -32 -112 -72q-5 -18 119.5 -124t121.5 -115q-11 -41 -108 -72z" />
    <glyph glyph-name="four" unicode="4" horiz-adv-x="1106" 
d="M978 793l-158 6q19 -43 40 -54l-60 -274l-54 53q-54 54 -155 54q-76 0 -158 -39q461 381 586 721q8 22 11 34l1 2l-5 -2q-41 47 -63 60l-64 -156q-135 -328 -458 -610q-5 -6 -278 -242q-23 -20 -53 -53l144 104q160 95 295 95q94 0 138 -41l90 -84l-196 -826l250 807
q33 -8 68 -8q141 0 249 90l112 117q-145 -121 -334 -121q-39 0 -68 8z" />
    <glyph glyph-name="five" unicode="5" horiz-adv-x="983" 
d="M399 727h-9l10 4l-8 2l9 2zM450 1352v0h-4q8 -10 26 -56q13 -34 48 -47l-146 -579l24 55q63 6 118 6q252 0 350 -127q30 -38 30 -107q0 -66 -28 -161q-45 -159 -204 -236q-130 -63 -316 -63q-22 0 -90 6q-92 8 -83 72q25 27 167 97q135 66 178 124q-33 72 -156 94
q70 -29 70 -63q0 -4 -2 -9q-2 -9 -184.5 -115t-187.5 -124q-1 -4 -1 -9q0 -34 73 -63q104 -41 267 -41q199 0 347 64q194 84 250 262q24 76 24 143q0 62 -21 117q-69 176 -360 176q-111 0 -238 -33l200 504q69 2 219 26q144 23 218 23q162 0 216 -110q-20 168 -200 168
q-69 0 -205.5 -27t-206.5 -27q-127 0 -192 60z" />
    <glyph glyph-name="six" unicode="6" horiz-adv-x="952" 
d="M586 6v0q130 -4 254 93.5t156 224.5q8 30 8 59q0 73 -51 134q-70 85 -179 85q-90 0 -173.5 -60.5t-108.5 -146.5q-14 -46 -14 -81q0 -130 177 -130q68 0 155 80q-72 -47 -150 -47q-76 0 -103 49q-23 44 -1 117q27 85 85 140q66 61 149 61q68 0 106 -105q34 -95 17 -168
q-31 -124 -117 -201q-91 -81 -215 -81q-32 0 -65 6q-206 63 -232 258q-4 28 -4 62q0 143 67 386q62 225 239 394q193 184 412 184q75 0 74 -53q0 -12 -4 -27q-2 -7 -61 -80t-67 -101.5t-8 -52.5q0 -82 89 -120q-38 45 -38 94q0 18 5 36.5t81 100.5t78 90q18 65 -26 102
q-38 31 -106 31q-257 0 -488 -197q-222 -188 -292 -444q-35 -129 -35 -241q0 -121 41 -221q91 -220 345 -230z" />
    <glyph glyph-name="seven" unicode="7" horiz-adv-x="1008" 
d="M415 1346v0h-4q19 -37 35 -74q31 -43 140 -37q46 2 210 27q134 20 208 20q17 0 34 -2q-92 -100 -122 -209q-19 -69 -2 -123q19 -61 77 -78l-20 23q-26 29 -26 76q0 123 149 301q92 -27 125 -99q-10 97 -79 138q46 33 87 18q44 -15 44 -70q0 -25 -9 -59
q-34 -121 -145 -258q-65 -79 -259 -270q-213 -210 -300 -362t-114 -341l18 43q12 74 94 221q46 85 72 119q69 91 301 309q209 195 283 322q86 146 86 265q0 100 -88 112q-57 7 -115 -27q-35 8 -76 8q-69 0 -205 -25.5t-206 -25.5q-129 0 -193 58z" />
    <glyph glyph-name="eight" unicode="8" horiz-adv-x="956" 
d="M524 6v0q288 6 420 180q49 64 68 133q26 94 -4 191q-52 174 -211 176q87 -14 107 -156q16 -118 -13 -225q-74 -270 -344 -270q-119 0 -199 39q-103 51 -103 158q0 34 11 73q55 201 177 293q92 70 286 88l-5 4l8 2q-170 33 -214 74q-37 34 -37 98q0 39 14 90q9 31 24 72
q55 147 134 213q90 74 238 72q119 -2 162 -88q22 -42 22 -97q0 -48 -16 -104q-27 -100 -91 -191q-80 -114 -167 -124q-28 -54 -160 -132q-103 -60 -120 -73q-68 -50 -83 -107q-5 -19 -5 -34q0 -78 91 -78q70 0 171 55q-72 -29 -129 -29q-82 0 -82 48q0 35 38 77
q12 18 121 93t136 124q2 6 26 28.5t29 22.5q102 6 208 132q91 108 122 219q14 51 14 94q0 206 -297 206q-30 0 -48 -1q-143 -8 -260 -99q-110 -86 -169 -223q-32 -75 -32 -137q0 -159 207 -203q-181 -31 -280 -109q-108 -86 -154 -255q-15 -52 -15 -95q0 -232 404 -225z" />
    <glyph glyph-name="nine" unicode="9" horiz-adv-x="952" 
d="M735 1339v0q-128 5 -253.5 -93t-157.5 -224q-8 -32 -8 -63q0 -73 49 -133q68 -85 181 -85q90 0 173 60.5t109 146.5q14 46 14 82q0 129 -177 129q-67 0 -153 -80q70 47 148 47q116 0 116 -95q0 -30 -12 -70q-24 -83 -85 -139q-66 -62 -148 -62q-69 0 -107 104
q-35 95 -17 168q31 125 116 203q91 82 216 82q33 0 66 -6q209 -64 234 -260q3 -25 3 -56q0 -139 -69 -391q-61 -222 -239 -393q-194 -186 -410 -186q-77 0 -76 52q0 12 4 27q1 6 61.5 80t68.5 102.5t8 51.5q0 83 -92 121q41 -46 41 -96q0 -36 -30 -75l-57 -61
q-77 -83 -79 -90q-18 -65 26 -101q38 -32 105 -32q259 0 490 197q222 189 293 446q35 127 35 238q0 122 -43 225q-90 219 -344 229z" />
    <glyph glyph-name="colon" unicode=":" horiz-adv-x="176" 
d="M177 168l-88 -164l7 211zM323 676l-92 -162l11 211z" />
    <glyph glyph-name="semicolon" unicode=";" horiz-adv-x="176" 
d="M175 168l-155 -373l74 420zM325 676l-90 -162l9 211z" />
    <glyph glyph-name="less" unicode="&#x3c;" horiz-adv-x="907" 
d="M1078 801q-241 0 -473 -79q-241 -83 -417 -233q190 -239 645 -253l95 100q-43 -5 -83 -6q-342 -12 -604 182q288 200 563 200q128 0 184 -24z" />
    <glyph glyph-name="equal" unicode="=" horiz-adv-x="717" 
d="M836 588l-69 57h-549l69 -57h549zM780 385l-68 57h-549l68 -57h549z" />
    <glyph glyph-name="greater" unicode="&#x3e;" horiz-adv-x="907" 
d="M118 236q242 0 473 78q243 82 417 233q-190 237 -645 254l-94 -99q28 3 84 5q337 12 602 -185q-132 -89 -285 -143q-172 -60 -312 -53q-101 5 -149 24z" />
    <glyph glyph-name="question" unicode="?" horiz-adv-x="709" 
d="M470 168l-80 49l-7 -211zM776 838v0q204 194 205 302q0 93 -128 173q-68 43 -195 35q-68 -4 -141 -29q-129 -43 -158 -150q-4 -15 -4 -29q0 -47 42 -93q28 -30 104 -50q69 -18 124 -18q23 0 44 2l-33 14q-63 5 -115 35q-66 38 -66 93q0 9 2 18l5 24q29 152 225 162
q114 6 153 -31q61 -59 54 -131q-3 -23 -18 -55q-36 -80 -232 -286t-196 -342q0 -99 90 -187l15 12q-49 52 -41 162q4 53 21 90q36 80 243 279z" />
    <glyph glyph-name="at" unicode="@" horiz-adv-x="905" 
d="M459 16v0l168 172q115 118 224 269q-201 -203 -318 -289q-56 111 -94 199q-53 123 -58 194q-1 26 -1 54q0 154 54 350q15 57 100 245q102 -14 234 -57q61 -20 221 -80l-47 -170q-43 -158 -227 -414q15 111 43 213q51 185 128 271l-77 92l-44 -94q-19 20 -90 84l-134 -78
q-89 -249 -89 -418q0 -92 27 -160l197 211q-1 -19 -1 -38q0 -88 24 -189q223 276 466 698q-180 140 -522 254l-279 -139q-86 -295 -86 -534q0 -93 13 -177q29 -188 168 -469zM683 680v0q-21 -68 -150 -199q-7 144 41 320q26 94 68 184q40 -12 108 -61q-55 -121 -67 -244z
" />
    <glyph glyph-name="A" unicode="A" horiz-adv-x="1087" 
d="M1022 -289v0l13 2q-7 104 -7 309q0 159 4 379q75 64 134 199q-86 -113 -130 -131l21 795l-105 94q-6 -58 -22 -115q-59 -213 -261 -635q-35 -4 -58 -10q-144 -37 -302 -190q-200 -194 -290 -494q-21 -71 17 -121.5t112 -50.5q129 0 276 229q96 149 303 570l106 -105
q66 -65 118 -69q14 -187 71 -656zM938 997q-3 -93 -3 -192q0 -149 8 -311l-70 57q-48 39 -117 53zM629 567v0q5 0 9 -2q-206 -432 -262 -540l1 4q-115 -222 -260 -222q-74 0 -74 72q0 17 4 39q28 140 244 373q38 41 160 149q99 88 159 123q9 4 19 4z" />
    <glyph glyph-name="B" unicode="B" horiz-adv-x="1042" 
d="M792 94v0q268 103 306 242q16 56 16 102q0 112 -94 171q-63 39 -198 65q193 35 282 86q132 75 175 231q5 19 5 37q0 98 -144 189q-193 122 -510 122q-56 0 -132 -18q-110 -26 -111 -72q-1 -10 125 -106.5t122 -108.5q-9 -35 -103 -65l-1 -4q68 10 125 30l-165 -665
q-45 22 -126 35l-1 -5q69 -27 69 -57q0 -5 -1 -8q-3 -12 -181.5 -108t-183.5 -105.5t-5 -18.5q0 -33 76 -55q64 -18 122 -18q74 0 146 6l-13 -55h4l15 57q181 18 381 96zM700 1180v0l-8 -29l-133 57q-57 25 -57 49q0 54 123 54q41 0 91 -2q-10 -105 -16 -129zM977 530v0
q12 -23 12 -62q0 -49 -20 -124q-34 -123 -239 -219q-161 -76 -308 -96l60 190q44 34 44 65q0 14 -12 29l309 981q116 -24 209 -83q121 -77 121 -174q0 -23 -6 -46q-36 -131 -93 -182q-100 -89 -317 -119l-89 -12l7 -2q-3 -4 -15 -10q15 5 86 -9q206 -42 251 -127zM454 201v0
l-41 -174q-70 -9 -144 -9q-93 0 -88 50q2 24 122 73z" />
    <glyph glyph-name="C" unicode="C" horiz-adv-x="840" 
d="M1021 -287q53 12 342 111l1 4q-282 -90 -363 -98l-38 -4q-93 -10 -188 0q-123 12 -174 38q-339 171 -339 610q0 31 2 64q17 99 40 185q141 511 579 673q56 21 97 21q68 0 68 -59q0 -19 -7 -44q-10 -35 -175.5 -237t-182.5 -264q-10 -37 -10 -69q0 -97 94 -144
q-40 58 -40 117q0 23 7 47q12 45 194 260t192 250q7 24 7 47q0 31 -13 59q-37 57 -117 57q-85 0 -211 -59q-109 -51 -200 -121q-301 -233 -401 -598q-36 -131 -36 -248q0 -105 29 -200q63 -209 254 -320q171 -98 404 -98q59 0 121 6z" />
    <glyph glyph-name="D" unicode="D" horiz-adv-x="1030" 
d="M885 143v0q205 156 323 576q35 126 35 227q0 233 -201 327q-143 66 -412 66q-56 0 -132 -18q-110 -26 -111 -72q-1 -10 125 -106.5t122 -108.5q-9 -35 -103 -65l-1 -4q68 10 125 30l-165 -665q-45 22 -126 35l-1 -5q69 -27 69 -57q0 -5 -1 -8q-3 -12 -181.5 -108
t-183.5 -105.5t-5 -18.5q0 -33 76 -55q64 -18 122 -18q74 0 146 6l-13 -55h4l15 57q327 33 474 145zM700 1180v0l-8 -29l-133 57q-57 25 -57 49q0 54 123 54q41 0 91 -2q-10 -105 -16 -129zM1090 1104q17 -52 17 -130q0 -103 -29 -251q-91 -313 -213 -461
q-159 -194 -443 -233l60 190q44 34 44 65q0 14 -12 29l309 981q218 -43 267 -190zM454 201v0l-41 -174q-70 -9 -144 -9q-93 0 -88 50q2 24 122 73z" />
    <glyph glyph-name="E" unicode="E" horiz-adv-x="907" 
d="M677 623q70 24 126 24q61 0 90 -22q46 -47 80 -95q-53 193 -205 193q-24 0 -228 -53l86 280q83 58 117 180q9 34 3 91l-2 18l-25 -90q-15 -55 -66 -102l63 208q47 -12 119 -36q191 -64 282 -64q194 0 348 178l-45 -28q-59 -50 -169 -76q-51 -12 -89 -12q-84 0 -253 72
q-162 69 -252 63q-122 -8 -241 -146q-70 -82 -50 -182q23 -117 140 -117q14 0 26 4l-61 -256l-40 -6q-97 0 -128 76q-26 67 5 166h-14q-40 -97 -40 -157q0 -143 197 -154l-82 -353q-90 -8 -167 -66q-80 -60 -104 -145q-12 -44 7 -82q51 -104 162 -135l-18 -80h12l23 78
q46 -9 82 -9q117 0 354 64q262 72 381 72q56 0 114 -12q130 -27 177 -78l37 -39q-67 191 -348 191q-126 0 -420 -64q-226 -49 -315 -49h-41l83 274l52 -6q62 -7 94.5 -48t16.5 -101l-24 -86q61 88 66 104q11 39 11 72q0 149 -184 149h-8l106 359l118 16l45 17h-4zM615 1268
v0l-65 -273q-30 -6 -57 -6q-100 0 -96 98q3 69 41 103q86 76 177 78zM349 152v0l-66 -275q-89 15 -137 72q-19 22 -4 76q17 62 81 97q56 30 126 30z" />
    <glyph glyph-name="F" unicode="F" horiz-adv-x="842" 
d="M669 592q69 22 125 22q61 0 91 -18q47 -51 80 -94q-54 190 -208 190q-28 0 -151 -30l38 122q163 72 217 269q4 15 4 40q0 13 -1 29l-12 -43q-39 -142 -178 -200l115 368q134 -30 231 -61q279 -88 392 -88q227 0 433 174l-6 8q-80 -67 -239 -104q-66 -15 -132 -15
q-125 0 -355 99q-201 86 -340 86q-190 0 -362 -195q-70 -79 -70 -191q0 -53 25 -107q28 -62 73 -75q57 -16 103 -16h8l-31 -125q-21 -6 -40 -12l-59 -7q-97 0 -127 76q-27 67 5 166h-14q-41 -100 -40 -160q3 -146 222 -151l35 8l-203 -838h12l269 852l49 7l47 14h-6z
M668 1251v0l-96 -399q-23 -2 -53 -2q-157 0 -152 141q0 21 25 81.5t39 70.5q109 96 237 108z" />
    <glyph glyph-name="G" unicode="G" horiz-adv-x="885" 
d="M782 16v0q119 177 150 291q13 44 13 86q0 89 -56 168q-35 51 -117 41q-115 -13 -165 -100q-33 -57 -45 -90q-30 -85 1 -162q14 -36 54 -60t80 -24q8 0 21 2l-13 12q-54 11 -80 64q-16 31 -16 66q0 22 7 46l9 33q51 184 165 197q70 8 89 -39q30 -71 13 -160
q-16 -89 -173 -352l-24 6q-379 149 -372 557q11 80 30 150q117 426 550 559q52 16 96 16q71 0 71 -54q0 -14 -5 -32q-3 -10 -163 -192t-171 -220q-7 -27 -7 -50q0 -86 99 -128q-45 52 -45 104q0 16 5 34.5t182 210t181.5 208t4.5 31.5q0 30 -18 57q-38 47 -118 47
q-183 0 -406 -147q-291 -192 -375 -496q-25 -92 -25 -174q0 -112 46 -207q114 -239 445 -309l-18 -29q-126 -203 -161 -331q-20 -71 -20 -138q0 -84 30 -161l11 4q-20 65 1 196q10 59 29 113q35 96 210 356z" />
    <glyph glyph-name="H" unicode="H" horiz-adv-x="1042" 
d="M1084 573q102 7 208 60l-5 10q-66 -33 -177 -33h-16l226 727l-162 6q20 -47 41 -59l-165 -672q-65 0 -266 117q-156 90 -258 90q-19 0 -43 -2l161 520l-162 6q20 -47 41 -59l-120 -489q-150 -60 -173 -168q-5 -19 -5 -35q0 -82 100 -109l-160 -663h4l203 655
q119 4 198 94q39 45 43 88l-14 -14q-57 -107 -173 -107q-8 0 -16 1h-17l76 231q82 0 306 -111q155 -77 265 -84l-183 -753h6zM379 760v0l-54 -217q-91 15 -91 80q0 11 3 24q19 84 142 113z" />
    <glyph glyph-name="I" unicode="I" horiz-adv-x="252" 
d="M100 -180l471 1517l-158 6q18 -47 38 -59l-356 -1464h5z" />
    <glyph glyph-name="J" unicode="J" horiz-adv-x="211" 
d="M122 -53l390 1296l-79 90l-364 -1343q-121 -447 -572 -447q-323 0 -323 143q0 20 6 42q25 90 156 90q52 0 153 -27t153 -27q154 0 224 111q-79 -39 -155 -39q-54 0 -160.5 23.5t-160.5 23.5q-76 0 -142 -44t-86 -115q-7 -25 -7 -48q0 -106 140 -157q100 -37 228 -37
q190 0 363 123q177 125 226 305z" />
    <glyph glyph-name="K" unicode="K" horiz-adv-x="721" 
d="M625 -430v0q2 -45 10 -96q50 341 50 603q0 349 -88 558q166 120 301 344q102 169 140 301q6 19 -13 33l-39 30q-27 -116 -142 -301q-144 -231 -292 -321q-38 61 -74 94l-56 43l151 479l-162 6q18 -47 40 -59l-441 -1702h4l371 1155q139 -157 210 -444q50 -205 50 -430
q0 -142 -20 -293z" />
    <glyph glyph-name="L" unicode="L" horiz-adv-x="586" 
d="M971 -289v0q137 0 280 62l-6 10q-69 -29 -208 -33q-64 -2 -111 6q-98 17 -300 113q-176 84 -289 90l420 1378l-162 6q20 -47 41 -59l-323 -1325q-124 0 -254 -78q-65 -39 -80 -114q-3 -16 -3 -31q0 -96 142 -117q82 -12 174 27q44 19 85 60q45 46 52 89l-16 -14
q-27 -47 -98 -80q-35 -16 -63 -20l68 219q94 -19 318 -109q200 -80 333 -80zM298 -96v0l-55 -226q-13 -4 -45 -2q-197 9 -197 94q0 70 68 101q81 37 176 37q23 0 53 -4z" />
    <glyph glyph-name="M" unicode="M" horiz-adv-x="981" 
d="M537 1341q-7 -2 -11 -4l-115 2q-7 -36 -7 -49q0 -6 2 -8l-339 -1462h4l428 1354q157 -226 157 -570q0 -272 -99 -618q-2 -6 0 -9q5 -6 11 11l116 370q49 154 50 322q217 170 365 395l-295 -1255h4l504 1526l-146 -5q-3 -11 -15 -34q-3 -3 -3 -7t4 -8q-76 -145 -131 -225
q-122 -175 -288 -315q-3 94 -16 184q-22 145 -173 403q0 4 -4 7z" />
    <glyph glyph-name="N" unicode="N" horiz-adv-x="788" 
d="M584 1341q-7 -2 -11 -4l-161 4q19 -45 41 -59l-339 -1462h4l428 1354q109 -162 151 -429q20 -127 20 -257q0 -196 -46 -400l-68 -303h4l471 1456l-112 90l-14 -40q-11 -29 -6 -34l-174 -745q7 95 7 180q0 315 -101 508l-87 139l-4 7z" />
    <glyph glyph-name="O" unicode="O" horiz-adv-x="772" 
d="M598 356v0q197 277 415 697q-139 141 -411 256l-236 -142q-95 -387 -95 -694q0 -262 69 -465q178 234 258 348zM867 1042v0l-47 -168q-64 -235 -412 -706q-52 175 -52 362q0 196 58 406q15 57 93 244q87 -17 185 -58q27 -11 175 -80z" />
    <glyph glyph-name="P" unicode="P" horiz-adv-x="680" 
d="M614 238v0q200 339 345 976l-71 132q-20 -31 -173 -97q-168 -73 -194 -94l49 164h-162q11 -74 29 -94l-470 -1903h4l381 1282l105 -65q101 -90 157 -301zM830 1098q-25 -138 -35 -176q-43 -156 -178 -469q-22 96 -88 155q-33 30 -102 64q-46 23 -39 49q34 123 115 362
q13 38 161 102l197 83z" />
    <glyph glyph-name="Q" unicode="Q" horiz-adv-x="827" 
d="M579 59v0q38 -82 203 -194l-35 51q-48 30 -86 105q-37 71 -39 131q-2 42 22 157q27 39 36 47q195 279 415 697q-141 141 -413 256l-236 -142q-53 -215 -75 -409q-16 -2 -22 -2q-40 -8 -77 -33q-44 -30 -48 -64q-1 -15 -1 -30q0 -126 129 -168q3 -256 68 -453l130 168
q5 -63 29 -117zM946 1042v0l-47 -168q-45 -167 -229 -448q5 35 5 67q0 213 -222 265q14 82 41 178q15 57 93 244q81 -17 183 -58q48 -20 176 -80zM561 328v0q-5 -33 -10 -72l-61 -88q-46 145 -55 274h19q37 0 91 13l-48 16q-31 0 -66 10q-4 119 16 244q74 -21 118 -113
q23 -47 16 -139q-3 -48 -20 -145zM368 727v0q-13 -100 -15 -197q-22 22 -31 45q-27 73 -18 105q10 37 64 47z" />
    <glyph glyph-name="R" unicode="R" horiz-adv-x="684" 
d="M550 33v0q149 -369 303 -432q-129 126 -235 422q-96 269 -109 477q104 -74 120 -217q146 249 269 696q33 117 61 242l-70 133q-26 -30 -191 -103q-146 -64 -178 -90l50 164h-162q9 -55 28 -96l-419 -1702h5l330 1083q15 -14 30 -26q53 -267 168 -551zM826 1098
q-25 -140 -35 -176q-48 -174 -163 -441q-14 48 -130 139.5t-114 100.5q71 256 115 362q19 46 164 105q178 73 194 82z" />
    <glyph glyph-name="S" unicode="S" horiz-adv-x="934" 
d="M1136 1047q70 173 132 210q-26 -2 -38 -2q-64 0 -97 43l-33 43q-162 15 -233 15q-401 0 -475 -295q-18 -71 -18 -127q0 -151 124 -203l332 -67q132 -42 132 -180q0 -45 -14 -99q-39 -155 -117 -225q-86 -76 -240 -72q-213 6 -292 26q-178 47 -178 190q0 19 3 40
q42 110 185 160q40 14 178 37q36 6 60 6q85 0 144 -37q37 -23 20 -78q-29 -91 -230 -104q-54 -3 -94 22q-44 28 -48 80l-12 19q-8 -22 -8 -44t7 -45q16 -47 50 -67q68 -40 148 -29q167 24 206 150q23 76 -18 114q-82 78 -199 78q-94 0 -203 -45q-202 -84 -205 -264
q-5 -33 -5 -62q0 -149 135 -206q90 -37 265 -37q219 0 346 119q116 107 170 329q17 70 17 127q0 154 -125 209l-330 74q-130 29 -130 166q0 47 15 106q45 178 296 178q197 0 265 -51q55 -42 56 -207q0 -106 -8 -143h4z" />
    <glyph glyph-name="T" unicode="T" horiz-adv-x="936" 
d="M1392 1096v0q225 0 432 174l-8 8q-77 -67 -238 -104q-65 -15 -131 -15q-120 0 -355 101q-194 83 -339 83q-193 0 -362 -192q-73 -83 -73 -198q0 -63 29 -110q52 -83 177 -83q118 0 206 90q76 78 110 201q6 22 4 71l-13 -45q-21 -79 -87 -142q-68 -66 -146 -79l-36 -6
q-12 -2 -65 -2q-157 0 -152 143q1 34 20 81q20 51 43 71q129 110 277 110q104 0 309 -67l-358 -1467h12l438 1436q181 -59 306 -59z" />
    <glyph glyph-name="U" unicode="U" horiz-adv-x="1006" 
d="M1338 1260v0q2 4 8 10q-11 6 -53 51q-28 31 -42 31q-11 0 -15 -13q-55 -179 -77 -258q-27 -100 -74 -302t-75 -302q-60 -218 -158 -304q-108 -95 -327 -95q-196 0 -257 75q-34 42 -34 119q0 65 24 154q32 115 108.5 341t108.5 341q3 10 35 135q2 8 7 12h2v-2l2 2
q-3 2 -6 7q-88 90 -120 90q-9 0 -11 -6l-2 -7q2 -173 -109 -587q-92 -340 -92 -495q0 -24 3 -44q27 -236 316 -236q276 0 434 216q107 145 210 497q122 416 194 570z" />
    <glyph glyph-name="V" unicode="V" horiz-adv-x="838" 
d="M426 -51v0q566 729 713 1265q7 25 15 60q-24 31 -42 43l-52 35l-27 -99q-121 -439 -354 -809l-261 -415q-41 356 -40 526q1 277 77 555q16 58 46 176q2 8 -13 24.5t-23 14.5l-1 4l-47 23l-12 -35q-23 -70 -30 -96q-76 -278 -76 -588q0 -97 7 -197q28 -377 153 -719l5 2
q-22 146 -38 230z" />
    <glyph glyph-name="W" unicode="W" horiz-adv-x="1362" 
d="M397 -82q2 -9 2 -16q0 -8 -2 -13v-2l4 2q-1 4 -2 13q234 297 429 622q18 -420 158 -798l4 2q-21 145 -37 229q566 727 714 1264q7 26 15 61q-22 29 -43 43l-53 33l-27 -98q-122 -443 -354 -809l-263 -416q-38 351 -38 550q0 38 1 70q163 293 234 553q8 29 17 66
q-27 32 -44 43l-52 35l-27 -99q-97 -352 -253 -643q-54 -100 -370 -602q-38 332 -35 537q5 290 80 565q16 57 46 176q2 10 -13.5 25.5t-24.5 13.5l1 4l-47 23q-34 -101 -46 -146q-91 -331 -84 -669q6 -339 108 -621z" />
    <glyph glyph-name="X" unicode="X" horiz-adv-x="805" 
d="M1087 -176v0q137 -27 471 -27q-4 15 -49 15h-41l-7 -2h-2l-2 -5h2l2 5l-194 14q-341 25 -477 190q-184 223 -315 627l165 182q272 291 506 410q15 10 20 14q22 17 26 19q-16 26 -31 65l3 2q-15 10 -20 13l-172 -107q-213 -132 -517 -539q-5 12 -8 37q-16 112 -16 215
q0 161 38 299q0 6 6 21l8 28q-2 3 0 9q-32 24 -55 24q-2 0 -8 4t-8 4q-14 7 -22 5l-53 -195q-18 -63 -18 -142q0 -125 44 -292q11 -41 36 -92q-232 -322 -392 -643q37 45 68 90q118 233 346 506q140 -374 297 -553q134 -154 369 -201z" />
    <glyph glyph-name="Y" unicode="Y" horiz-adv-x="580" 
d="M566 530q452 600 539 664l-14 149q-148 -194 -254 -346l-310 -446q0 516 12 676l-130 116q8 -444 69 -813l-281 -1198h4z" />
    <glyph glyph-name="Z" unicode="Z" horiz-adv-x="1026" 
d="M1085 -76v0q201 0 327 -129q-64 191 -347 191q-138 0 -409 -55.5t-409 -55.5q-193 0 -258 41l290 279q422 407 712 407q40 0 79 -31q50 -39 73 -49q-74 146 -224 146q-22 0 -148 -47l402 340q228 192 406 372q-96 -56 -151 -78l-66 -26l-59 -8l-63 -4q-99 -6 -273 63
q-181 72 -271 72q-102 0 -204 -62q-113 -68 -140 -166q-9 -34 -9 -64q0 -52 28 -89q45 -60 140 -60t167 64q68 59 94 155q2 8 2 30q0 27 -4 77q-31 -114 -72 -166q-62 -78 -202 -78q-112 0 -110 93q1 102 110 149q71 31 131 31q102 0 301 -60q189 -57 303 -51l-443 -422
q-202 -192 -258 -192q-84 0 -118 69q-28 57 -17 144h-10q-18 -65 -18 -115q0 -148 157 -164l-555 -536q-39 67 -52 100q-5 -21 -5 -43q0 -45 23 -92q-178 -140 -216 -211l233 192q30 -41 131 -71q86 -25 152 -25q144 0 425 67.5t425 67.5z" />
    <glyph glyph-name="bracketleft" unicode="[" horiz-adv-x="469" 
d="M-108 -653l-3 -11h-9l3 9zM-124 -664l318 -14l41 148q-34 -19 -95 -91l-248 -32l569 1831q27 5 102 21l7 1q100 21 169 86l-346 2l-510 -1943h-4z" />
    <glyph glyph-name="backslash" unicode="\" horiz-adv-x="899" 
d="M405 1352q-4 -35 -4 -68q0 -207 143 -379l291 -350q85 -140 85 -310q0 -104 -32 -220l-5 -19q11 65 11 125q0 194 -117 340l-287 350q-107 169 -107 376q0 75 14 155h8z" />
    <glyph glyph-name="bracketright" unicode="]" horiz-adv-x="469" 
d="M170 -653l-3 -11h10l3 9zM182 -664l-326 -14l41 148q24 -19 45 -91l228 -32l441 1831q-25 6 -97 22q-91 21 -121 86l346 2l-559 -1943h5z" />
    <glyph glyph-name="asciicircum" unicode="^" horiz-adv-x="371" 
d="M624 1075q6 37 6 70q0 115 -77 180l-7 -8l5 4q-181 -88 -224 -287l98 35q-5 11 -5 25q0 71 106 200q38 -59 38 -132q0 -42 -13 -89l-9 -35z" />
    <glyph glyph-name="underscore" unicode="_" horiz-adv-x="1104" 
d="M-241 -623l68 -57h1174l-70 57h-1172z" />
    <glyph glyph-name="grave" unicode="`" horiz-adv-x="373" 
d="M545 1163l22 -344l-198 410z" />
    <glyph glyph-name="a" unicode="a" horiz-adv-x="346" 
d="M361 315v0q51 185 117 269l-61 100l-39 -92l-65 78l-116 -80q-23 -70 -43 -144q-51 -185 -51 -318q1 -67 14 -120q119 142 162 203q-1 -26 -1 -50q0 -97 22 -163q22 178 61 317zM317 420v0q-19 -66 -25 -125q-19 -64 -118 -184q3 137 49 303q25 92 58 176q32 -12 77 -55
q-26 -60 -41 -115z" />
    <glyph glyph-name="b" unicode="b" horiz-adv-x="317" 
d="M206 10v0q128 160 205 441q19 67 31 143l-71 80q-58 -56 -106 -107l144 443h-151q19 -47 40 -62l-244 -1005h8l90 276q12 -55 54 -209zM360 592v0q-14 -86 -38 -174q-46 -166 -116 -303q-33 112 -27 188l64 195q78 71 117 94z" />
    <glyph glyph-name="c" unicode="c" horiz-adv-x="254" 
d="M275 590v0q26 -29 87 -107l-4 66q-7 24 -50 123l-118 -107q-20 -61 -37 -123q-48 -173 -48 -302q0 -72 15 -130q138 148 179 297l12 43q-106 -207 -167 -223q3 159 131 463z" />
    <glyph glyph-name="d" unicode="d" horiz-adv-x="342" 
d="M212 664l-47 -170q-70 -255 -70 -372q0 -61 14 -104l-1 -4l7 -8l10 17q60 69 145 176l-52 -187h139q-21 51 -42 68l230 926q15 63 15 115q0 225 -301 225q-104 0 -206 -29q-180 -51 -206 -148q0 -6 -3 -39q10 -77 139 -77q46 0 138 16t139 16q62 0 105 -26q-9 80 -132 80
q-28 0 -180 -29q-52 -10 -88 -10q-70 0 -87 43q-4 12 -1 22q22 80 148 117q92 27 190 27q257 0 282 -164q12 -77 -14 -170l-120 -438q-41 88 -156 133zM343 465v0l-54 -197q-34 -59 -121 -157q0 127 69 378l25 91q48 -33 81 -115z" />
    <glyph glyph-name="e" unicode="e" horiz-adv-x="266" 
d="M162 260v0q211 143 211 254q0 25 -12 45q-7 27 -58 109l-116 -107q-14 -45 -27 -92q-50 -182 -50 -318q0 -81 17 -145q139 150 180 301l11 39q-109 -211 -171 -221q-1 55 15 135zM315 549v0q5 -15 5 -31q0 -100 -148 -219q33 127 103 291q20 -10 40 -41z" />
    <glyph glyph-name="f" unicode="f" horiz-adv-x="307" 
d="M939 1075v0q54 0 99 26q51 28 64 77q6 20 6 37q0 77 -102 113q-70 24 -165 24q-198 0 -341 -89q-160 -100 -206 -292l-40 -166l-46 -4q-74 0 -69 53h-8q-4 -16 -4 -29q0 -78 112 -82l-261 -1093l21 12l323 1090l76 18l-2 8l-8 -2l1 -8q81 33 144 33q49 0 79 -19
q21 -13 69 -71q-47 151 -180 151q-37 0 -154 -35l26 97q55 200 152 293q112 106 308 106q84 0 157 -23q104 -32 104 -97q0 -12 -4 -25q-15 -56 -87 -56q-48 0 -140 27t-140 27q-116 0 -194 -125q68 67 139 67q46 0 135.5 -21.5t135.5 -21.5z" />
    <glyph glyph-name="g" unicode="g" horiz-adv-x="373" 
d="M332 143v0l148 480l-59 67l-42 -153q-48 79 -153 120q-6 0 -8 -6q-76 -278 -89 -340q-24 -113 -24 -195q0 -73 19 -120l11 18l145 164l-132 -481q-88 -318 -438 -318q-275 0 -275 102q0 12 3 25q18 66 122 66q43 0 126 -18.5t125 -18.5q124 0 173 80q-61 -29 -121 -29
q-44 0 -129.5 16.5t-129.5 16.5q-59 0 -112 -29q-60 -33 -74 -86q-5 -17 -5 -33q0 -73 104 -112q87 -33 204 -33q114 0 265 96q172 109 208 246q43 169 138 475zM358 461v0l-58 -209q-5 -21 -122 -152q0 144 47 308l47 163q48 -32 86 -110z" />
    <glyph glyph-name="h" unicode="h" horiz-adv-x="315" 
d="M174 -575v0l7 -25l9 4q-4 54 -4 110q0 274 96 623q62 228 160 457l-71 80l-110 -109l146 445h-152q19 -49 40 -64l-244 -1007h8l183 557q60 55 97 82q-193 -675 -193 -977q0 -115 28 -176z" />
    <glyph glyph-name="i" unicode="i" horiz-adv-x="176" 
d="M287 725l98 182l-88 54zM90 -16l233 669h-147q9 -32 38 -47l-132 -622h8z" />
    <glyph glyph-name="j" unicode="j" horiz-adv-x="195" 
d="M283 729l100 180l-88 58zM60 -207v0l264 864h-155q9 -32 40 -47l-204 -819q-21 -88 -77 -164q-115 -159 -371 -159q-97 0 -173 26q-88 30 -88 92q0 13 4 27q17 65 124 65q34 0 84 -10q130 -26 165 -26q125 0 172 77q-58 -26 -119 -26q-44 0 -130.5 16.5t-129.5 16.5
q-119 0 -182 -95l-14 -26q-4 -14 -4 -27q0 -75 127 -117q90 -30 186 -30q368 0 481 362z" />
    <glyph glyph-name="k" unicode="k" horiz-adv-x="340" 
d="M270 178v0q148 153 196 436l-76 60q-85 -78 -135 -133l154 475h-154q22 -47 42 -62l-244 -1009h8l116 358q40 -220 157 -360q66 -79 120 -103l6 8q-133 105 -190 330zM380 592v0q-9 -55 -25 -113q-36 -129 -99 -231q-20 112 -19 229q97 90 143 115z" />
    <glyph glyph-name="l" unicode="l" horiz-adv-x="176" 
d="M89 -117l335 1137h-147q19 -49 39 -64l-235 -1073h8z" />
    <glyph glyph-name="m" unicode="m" horiz-adv-x="498" 
d="M422 -6l196 571l-40 86q-62 -76 -143 -143q11 48 11 80q0 45 -23 57l-3 10q-61 -75 -142 -141l52 141h-154q12 -30 40 -47l-129 -620h8l144 411q31 62 111 113q5 -158 -96 -518h6l144 409q30 60 105 107q6 -156 -95 -516h8z" />
    <glyph glyph-name="n" unicode="n" horiz-adv-x="336" 
d="M256 -23q47 121 200 588l-39 86q-60 -76 -140 -141l50 145h-151q10 -30 40 -47l-132 -622h8l141 393q27 74 116 131q4 -127 -101 -533h8z" />
    <glyph glyph-name="o" unicode="o" horiz-adv-x="336" 
d="M283 197q92 136 172 340q-51 73 -155 129l-108 -80q-61 -235 -61 -404q0 -101 22 -178l14 21zM373 532v0q-48 -218 -171 -430q-4 40 -4 83q0 138 46 304q14 52 31 101q38 -12 98 -58z" />
    <glyph glyph-name="p" unicode="p" horiz-adv-x="348" 
d="M234 4v0q165 205 239 584l-68 80l-107 -105l28 88h-153q22 -47 42 -61l-243 -1006h8l203 627q11 -57 51 -207zM388 586v0q-13 -88 -37 -176q-46 -166 -117 -304q-30 109 -24 187l64 196q75 72 114 97z" />
    <glyph glyph-name="q" unicode="q" horiz-adv-x="336" 
d="M214 664v0l-49 -177q-66 -240 -66 -376q0 -61 13 -101l-7 -24l20 30l166 209l17 62h-10q-14 -43 -130 -183q0 127 69 379l25 90q47 -32 77 -114l-213 -881h8l349 1069l-81 33l-6 -21q-7 -18 -12 -38l-24 -86q-38 83 -146 129z" />
    <glyph glyph-name="r" unicode="r" horiz-adv-x="322" 
d="M338 311l4 15l-8 2q-5 -11 -6 -17h10zM413 635v0l30 -74q-58 -115 -87 -184q6 37 6 70q0 40 -9 75q-92 -55 -127 -125l-121 -348l118 561q-27 13 -36 33h127l-55 -156q93 76 154 148z" />
    <glyph glyph-name="s" unicode="s" horiz-adv-x="401" 
d="M149 6q62 98 296 189q-113 112 -206 272q50 37 140 65q13 -21 13 -67q0 -38 -9 -94h8q47 147 89 196l-54 86q-53 -71 -130 -112l-156 -70q98 -152 213 -260q-47 -45 -155 -80q-18 24 -18 61q0 35 16 80h-10q-36 -75 -91 -180z" />
    <glyph glyph-name="t" unicode="t" horiz-adv-x="199" 
d="M576 729v0v-4l10 4q-26 127 -170 127q-26 0 -53 -4l50 164h-153q18 -49 39 -64l-27 -127q-92 -28 -147 -28q-76 0 -71 53l-9 -2l-3 -25q5 -84 118 -84q43 0 95 11l-189 -873h9l268 899q60 19 112 19q90 0 121 -66z" />
    <glyph glyph-name="u" unicode="u" horiz-adv-x="352" 
d="M362 301v0q49 180 118 266l-63 101q-102 -216 -128 -392q-17 -63 -119 -186q-2 19 -2 39q0 208 121 461l-72 78q-113 -374 -113 -561q0 -67 12 -117q117 141 165 205q-2 -26 -2 -51q0 -100 20 -167q24 183 63 324z" />
    <glyph glyph-name="v" unicode="v" horiz-adv-x="371" 
d="M188 20v0v-20q190 197 309 569l-60 97q-11 -54 -21 -93q-76 -274 -220 -477q5 215 46 367q21 76 52 123l-78 86l-18 -64q-57 -209 -57 -360q0 -138 47 -228z" />
    <glyph glyph-name="w" unicode="w" horiz-adv-x="543" 
d="M411 655v0q-1 -10 -32 -116q-78 -269 -198 -449q7 217 50 371q20 74 51 125l-68 88q-81 -271 -81 -456q0 -124 37 -210v-16q87 84 173 266q-4 -158 34 -242l-1 -18q179 203 296 575l-53 101q-12 -58 -21 -94q-77 -279 -214 -486q11 217 53 371q21 76 52 127l-66 86
q-9 -12 -12 -23z" />
    <glyph glyph-name="x" unicode="x" horiz-adv-x="379" 
d="M344 16v0l16 -16l9 8q-77 80 -88 281q168 227 225 262l-12 113q-98 -125 -217 -297q1 61 13 204l-95 95q2 -228 30 -377q-118 -190 -157 -264l-42 -80l9 -2q87 131 201 284q3 -20 29 -88q39 -100 79 -123z" />
    <glyph glyph-name="y" unicode="y" horiz-adv-x="311" 
d="M174 -334l281 936l-56 68l-110 -410q-5 -18 -117 -156q5 154 79 422q24 90 49 131h-146q30 -32 57 -47l-51 -184q-47 -172 -47 -320q0 -50 5 -96l-5 -16l155 190l-135 -489q-91 -332 -412 -332q-234 0 -234 105q0 15 4 32q19 68 114 68q38 0 110.5 -18.5t110.5 -18.5
q111 0 162 82q-57 -29 -112 -29q-40 0 -116.5 15.5t-115.5 15.5q-53 0 -105 -33q-55 -35 -68 -84q-5 -17 -5 -33q0 -76 105 -116q77 -29 168 -29q139 0 265 93.5t163 226.5z" />
    <glyph glyph-name="z" unicode="z" horiz-adv-x="406" 
d="M72 20q62 13 132 13q90 0 110 -37l95 129q-35 29 -33 141l-8 -2q-7 -33 -13 -55q-32 -113 -72 -127q-39 -6 -67 -6q-56 0 -79 20q217 254 436 557l-54 -10q-65 -12 -132 -12q-92 0 -118 35l-104 -138q29 1 29 -73q0 -35 -6 -86h8q7 34 17 69q27 101 67 133q56 9 91 9
t56 -9l-176 -256q-58 -84 -237 -307z" />
    <glyph glyph-name="braceleft" unicode="{" horiz-adv-x="506" 
d="M162 311l-3 6l-15 -8l9 -6q5 4 9 8zM225 115q-4 -118 -106 -308q-105 -195 -129 -284q-9 -31 -9 -60q0 -63 43 -114q29 -35 93 -25q90 14 119 121q21 77 -2 131q-26 63 -104 72l-19 10q57 10 104 -6q107 -37 107 -131q0 -21 -5 -45q-31 -140 -177 -166q-89 -16 -133 24
q-86 77 -86 174q0 32 9 66q23 85 99 213q113 188 136 279q10 38 8 88q-3 109 -34 153l5 2l-5 4q54 44 118 154q30 50 41 88q26 91 17 279q-5 127 18 213q39 140 209 239q69 40 147 25q97 -19 97 -101q0 -28 -11 -63q-43 -130 -199 -176q-64 -19 -108 -8l25 10
q134 14 190 133q35 74 35 119q0 60 -60 71q-59 10 -104 -22q-105 -76 -133 -176q-24 -89 -27 -285q-3 -191 -65 -307q-91 -133 -167 -195q40 -59 63 -196z" />
    <glyph glyph-name="bar" unicode="|" horiz-adv-x="342" 
d="M363 537v0l97 411q-21 15 -41 62h152l-105 -318l-151 -612q21 -17 42 -68h-139l52 187q-85 -107 -145 -176l-10 -17l-7 8l1 4q-14 43 -14 104q0 117 70 372l47 170l-5 6q115 -45 156 -133zM343 465q-33 82 -81 115l-25 -91q-69 -250 -69 -378q87 98 121 157z" />
    <glyph glyph-name="braceright" unicode="}" horiz-adv-x="494" 
d="M499 322l5 -9l12 6l-10 9zM327 125q106 141 172 197q-40 61 -62 194q4 115 106.5 306.5t128.5 285.5q8 31 9 51q2 69 -43 123q-30 36 -94 25q-88 -14 -118 -121q-21 -79 1 -132q26 -63 105 -71l21 -10q-58 -10 -106 6q-108 36 -108 131q0 21 6 45q31 139 178 166
q87 16 133 -25q86 -78 86 -174q0 -32 -9 -65q-23 -84 -100 -213q-112 -190 -136 -279q-11 -45 -10 -88q4 -106 36 -153l-7 -5l3 -2q-58 -47 -120 -153q-25 -43 -38 -88q-26 -89 -18 -279q6 -129 -17 -213q-39 -140 -209 -239q-69 -40 -146 -25q-99 19 -99 101q0 28 11 63
q42 130 199 176q63 18 110 8l-26 -10q-58 -6 -113.5 -43.5t-79.5 -89.5q-33 -72 -33 -121q0 -60 59 -70q61 -10 107 23q72 52 111 125q11 19 20 51q25 92 28 285q3 190 62 307z" />
    <glyph glyph-name="asciitilde" unicode="~" horiz-adv-x="815" 
d="M1047 993q-103 -86 -189 -86q-52 0 -147.5 48.5t-147.5 48.5q-101 0 -287 -173l-11 -10q120 111 218 111q52 0 145.5 -43t145.5 -43q118 0 274 141z" />
    <glyph glyph-name="glyph98" horiz-adv-x="2048" 
 />
    <glyph glyph-name="exclamdown" unicode="&#xa1;" horiz-adv-x="176" 
d="M43 -229q25 -13 41 -56l-157 6l346 1018zM266 893l91 164l-9 -211z" />
    <glyph glyph-name="cent" unicode="&#xa2;" horiz-adv-x="1462" 
d="M1287 145v0q70 0 197 23q-7 164 -88 283q58 119 58 248q0 87 -34 163q-61 137 -216 195q-11 160 -91 289q-155 -109 -261 -289q-183 -57 -318 -192q-139 -139 -189 -320q-14 -51 -16 -96q-151 -121 -240 -283q101 -21 184 -21q66 0 130 11q116 -152 337 -152
q222 0 421 152q59 -11 126 -11zM1085 1257v0q50 -81 63 -182q-52 10 -110 10q-57 0 -113 -10q67 101 160 182zM1208 983v0q115 -59 159 -176q22 -61 23 -129q0 -63 -19 -133q-5 -19 -14 -43q-98 112 -248 155q92 166 99 326zM1151 1008v0q-2 -173 -99 -340q-60 12 -124 12
q-65 0 -132 -12q-4 169 87 340q69 18 138 18q70 0 130 -18zM1362 383v0q43 -78 55 -170q-58 -8 -114 -8q-41 0 -80 6q86 78 139 172zM1072 600v0q162 -45 255 -168q-61 -119 -168 -211q-173 43 -269 172q107 92 182 207zM912 621v0q52 0 104 -9q-65 -96 -157 -176
q-45 80 -60 176q62 9 113 9zM759 848v0q-27 -98 -26 -193q-176 -43 -337 -155q3 20 10 45q40 147 152 265q107 114 253 173q-34 -70 -52 -135zM835 348v0q96 -125 260 -174q-165 -111 -339 -111t-276 111q189 47 355 174zM736 598q13 -113 70 -205q-171 -131 -364 -172
q-57 90 -54 207q162 127 348 170zM325 377v0q6 -90 44 -166q-41 -6 -80 -6q-55 0 -105 8q61 88 141 164z" />
    <glyph glyph-name="sterling" unicode="&#xa3;" horiz-adv-x="1313" 
d="M313 -41v0l230 549l-153 -6l-9 51h181l30 72l-220 -4l-31 59l266 -2q1 22 -10 176q-8 116 17 217q72 289 499 289q90 0 250 -14q61 -84 141 -84q21 0 40 2q-59 -35 -135 -207q-20 -44 -60 -146h-4q7 42 4 142q-6 161 -66 202q-73 50 -283 50q-74 0 -178 -50
q-115 -56 -134 -125q-22 -79 -14 -198q12 -163 6 -250l342 20l31 -90l-390 19l-37 -82l427 -19l35 -84l-485 41l-266 -528q113 -6 289 -90q202 -96 300 -113q47 -8 111 -6q139 4 208 33l6 -10q-143 -62 -280 -62q-133 0 -333 80q-224 90 -318 109l-68 -219q28 4 63 20
q71 33 98 80l16 14q-7 -43 -52 -89q-41 -41 -85 -60q-92 -39 -174 -27q-142 21 -142 117q0 15 3 31q15 75 80 114q130 78 254 78zM298 -96q-30 4 -53 4q-95 0 -176 -37q-68 -31 -68 -101q0 -85 197 -94q32 -2 45 2z" />
    <glyph glyph-name="currency" unicode="&#xa4;" horiz-adv-x="840" 
d="M723 582q-13 57 19 133q27 66 212 243.5t205 223.5q13 37 13 57q0 47 -56 55q-40 6 -96 -8q-429 -105 -639 -579l14 -9q67 -41 212 -112q30 -8 81 -6q12 0 35 2zM-64 557q22 -46 129 -53q39 -3 86 22q-92 43 -139 43q-37 0 -76 -12zM213 582q9 12 15 26l15 13l2 6l25 57
q-101 49 -152 49q-66 0 -132 -39q-42 -24 -56 -82q-2 -16 -1 -30q73 43 139 43q61 0 145 -43zM526 371q-98 0 -233 75q-16 -94 -16 -178q0 -338 244 -518q51 -38 163 -65q101 -25 176 -25h37q103 0 360 49l-1 -4q-251 -55 -341 -65l-64 -7q-253 11 -424 120
q-193 125 -245 356q-18 78 -18 158q0 113 35 233l-18 10q-66 -72 -142 -72q-129 0 -133 107q-67 -33 -81 -96q-3 -12 -3 -23q0 -77 137 -86q110 -8 163 104l17 17q-23 -104 -114 -156q-68 -38 -128 -26q-99 20 -99 107q0 20 5 44q18 83 103 137q0 11 3 27q17 73 71 115
q102 79 194 79q57 0 131 -36q215 392 619 530q125 43 209 31q77 -11 104 -76q12 -49 -12 -109q-16 -41 -218.5 -232t-223.5 -239q-16 -37 -15 -69q43 8 74 24l4 -16q-31 -16 -79 -31q5 -39 21 -82q-41 31 -55 72q-52 -12 -101 -20q-105 0 -248 86l-30 18q-22 -57 -43 -119
q122 -83 190 -98q36 -8 80 -6q101 4 155 33l4 -17q-71 -39 -214 -61z" />
    <glyph glyph-name="yen" unicode="&#xa5;" horiz-adv-x="672" 
d="M167 352h270l29 127h-131l-68 58h211q-62 366 -69 806l130 -116q-14 -177 -12 -676l310 446q106 152 254 346l14 -149q-87 -64 -535 -657h143l70 -58h-233l-39 -127h102l70 -57h-188l-294 -963h-4l226 963h-188z" />
    <glyph glyph-name="brokenbar" unicode="&#xa6;" 
d="M127 0h768l374 1358h-768zM289 129l303 1100h512l-303 -1100h-512z" />
    <glyph glyph-name="section" unicode="&#xa7;" horiz-adv-x="934" 
d="M289 367q-102 -103 -102 -169q0 -43 48 -59q104 -34 346 -43q248 -9 294 211q15 68 -17 127q-33 64 -99 78l-300 63q-110 48 -110 186q0 52 16 118q12 51 38 73q-11 69 14 166q68 273 431 273q39 0 211 -15q56 -78 117 -78h33q-55 -29 -121 -192l-53 -137h-4q8 31 7 133
q-1 151 -66 198q-55 39 -223 39q-227 0 -267 -163q-13 -51 -13 -92q0 -124 115 -160q52 -16 297 -68q114 -51 114 -189q0 -53 -18 -120q-21 -83 -35 -113q3 -53 -16 -127q-35 -142 -159 -223q-115 -74 -268 -74q-175 0 -258 47q-112 63 -112 183q0 28 6 59q27 14 154 68z
M421 897q-5 -28 -5 -53q0 -124 116 -160q11 -3 296 -68q73 -34 92 -92q9 43 9 77q0 126 -118 151l-300 63q-62 27 -90 82z" />
    <glyph glyph-name="dieresis" unicode="&#xa8;" horiz-adv-x="672" 
d="M847 1180l9 235l88 -53zM486 1184l8 235l89 -53z" />
    <glyph glyph-name="copyright" unicode="&#xa9;" horiz-adv-x="883" 
d="M1136 1055v0q-174 139 -504 254l-273 -140q-80 -331 -80 -602q0 -318 109 -555l288 344q223 279 460 699zM919 877q-66 -240 -458 -715q-92 219 -92 415q0 162 55 361q16 57 99 246q96 -14 227 -58q68 -23 216 -79zM745 883v0l-4 49l-53 119l-114 -103q-87 -234 -87 -419
q0 -75 17 -134q136 144 178 295l1 4q-96 -180 -164 -192q0 162 136 481q29 -29 90 -100z" />
    <glyph glyph-name="ordfeminine" unicode="&#xaa;" horiz-adv-x="346" 
d="M513 868q11 41 77 125l-60 101l-40 -93l-64 78l-116 -80q-23 -69 -43 -143q-31 -111 -29 -156q0 -21 31 -139q58 66 162 203q-1 -26 -1 -50q0 -97 23 -163q22 178 60 317zM445 856l-1 6q2 -8 0 -14q-16 -60 -118 -184q-1 12 -4 75q-1 32 13 84q26 92 59 176
q32 -12 77 -55q-6 -12 -10 -22q-10 -35 -16 -66z" />
    <glyph glyph-name="guillemotleft" unicode="&#xab;" horiz-adv-x="854" 
d="M176 236q129 0 264 101q112 83 197 210q-54 237 -263 254l-60 -99q11 2 41 5q157 13 254 -185q-64 -77 -142 -133q-100 -72 -166 -63q-48 6 -66 24zM176 236q129 0 264 101q112 83 197 210q-54 237 -263 254l-60 -99q11 2 41 5q157 13 254 -185q-64 -77 -142 -133
q-100 -72 -166 -63q-48 6 -66 24zM503 236q130 0 265 100q110 83 197 211q-55 237 -264 254l-59 -99q20 3 40 5q158 13 255 -185q-66 -78 -142 -133q-99 -72 -166 -63q-48 6 -66 24z" />
    <glyph glyph-name="logicalnot" unicode="&#xac;" 
d="M127 0h768l374 1358h-768zM289 129l303 1100h512l-303 -1100h-512z" />
    <glyph glyph-name="registered" unicode="&#xae;" horiz-adv-x="883" 
d="M388 12v0l288 344q223 279 460 699q-174 139 -506 254l-271 -140q-80 -331 -80 -602q0 -318 109 -555zM398 354q-26 107 -26 227q0 167 52 357q16 57 99 246q96 -14 227 -58q68 -23 216 -79l-47 -170q-46 -170 -259 -459q-16 24 -25 51q-31 162 -47 225q34 -18 35 -49
q63 115 102 256l26 94l-30 64q-14 -24 -54 -43l-61 -29l14 53h-72q2 -16 8 -47zM530 743q14 -98 51 -208q27 -80 30 -84q12 -27 42 -43q-84 -117 -192 -246q-38 90 -61 176h8zM688 944q-11 -55 -14 -65q-17 -60 -53 -150q-1 6 -39 39q-21 19 -32 33q31 110 43 139
q5 14 48 33l58 26z" />
    <glyph glyph-name="degree" unicode="&#xb0;" horiz-adv-x="549" 
d="M713 1386l12 44l-59 18q-24 7 -61 14q-18 -37 -25 -61q-11 -42 -11 -81q0 -58 26 -110q102 117 118 176zM860 1466q-126 -189 -303 -350q-70 97 -70 234q0 72 19 155l120 47q158 -43 234 -86z" />
    <glyph glyph-name="plusminus" unicode="&#xb1;" horiz-adv-x="684" 
d="M785 487l-70 58h-194l63 194l-58 86l-63 -280h-280l68 -58h196l-47 -225l-9 -69l114 294h280zM121 158l69 -58h448l-71 58h-446z" />
    <glyph glyph-name="twosuperior" unicode="&#xb2;" 
d="M127 0h768l374 1358h-768zM289 129l303 1100h512l-303 -1100h-512z" />
    <glyph glyph-name="threesuperior" unicode="&#xb3;" 
d="M127 0h768l374 1358h-768zM289 129l303 1100h512l-303 -1100h-512z" />
    <glyph glyph-name="acute" unicode="&#xb4;" horiz-adv-x="373" 
d="M467 1163l-211 -344l424 410z" />
    <glyph glyph-name="mu1" unicode="&#xb5;" horiz-adv-x="352" 
d="M362 301v0q49 180 118 266l-63 101q-102 -216 -128 -392q-17 -63 -119 -186q-2 19 -2 39q0 208 121 461l-72 78q-24 -78 -43 -150q-48 -173 -65 -500q-16 -309 8 -405l20 217q17 173 33 199q6 8 111 166q-2 -26 -2 -51q0 -100 20 -167q24 183 63 324z" />
    <glyph glyph-name="paragraph" unicode="&#xb6;" 
d="M127 0h768l374 1358h-768zM289 129l303 1100h512l-303 -1100h-512z" />
    <glyph glyph-name="cedilla" unicode="&#xb8;" 
d="M127 0h768l374 1358h-768zM289 129l303 1100h512l-303 -1100h-512z" />
    <glyph glyph-name="onesuperior" unicode="&#xb9;" 
d="M127 0h768l374 1358h-768zM289 129l303 1100h512l-303 -1100h-512z" />
    <glyph glyph-name="ordmasculine" unicode="&#xba;" 
d="M127 0h768l374 1358h-768zM289 129l303 1100h512l-303 -1100h-512z" />
    <glyph glyph-name="guillemotright" unicode="&#xbb;" horiz-adv-x="854" 
d="M880 236q-126 0 -205 95q-69 83 -87 216q187 237 404 254l6 -99q-10 2 -37 5q-152 13 -356 -185q21 -78 67 -133q60 -72 133 -63q51 6 77 24zM880 236q-126 0 -205 95q-69 83 -87 216q187 237 404 254l6 -99q-10 2 -37 5q-152 13 -356 -185q21 -78 67 -133
q60 -72 133 -63q51 6 77 24zM552 236q-126 0 -205 96q-68 83 -86 215q186 237 403 254l6 -99q-10 2 -37 5q-151 13 -356 -185q21 -77 68 -133q61 -72 132 -63q51 6 78 24z" />
    <glyph glyph-name="onequarter" unicode="&#xbc;" 
d="M127 0h768l374 1358h-768zM289 129l303 1100h512l-303 -1100h-512z" />
    <glyph glyph-name="onehalf" unicode="&#xbd;" 
d="M127 0h768l374 1358h-768zM289 129l303 1100h512l-303 -1100h-512z" />
    <glyph glyph-name="threequarters" unicode="&#xbe;" 
d="M127 0h768l374 1358h-768zM289 129l303 1100h512l-303 -1100h-512z" />
    <glyph glyph-name="questiondown" unicode="&#xbf;" horiz-adv-x="709" 
d="M546 870l92 162l-14 -213zM474 479q20 43 25 90q11 113 -39 164l17 12q85 -89 85 -185q0 -140 -204.5 -345.5t-239.5 -282.5q-20 -46 -20 -74q0 -60 53 -114q38 -39 150 -35q186 7 227 158l7 24q4 13 4 25q0 52 -66 90q-51 28 -113 37l-31 14q27 2 43 2q68 -2 123 -22
q86 -31 103 -51q39 -44 39 -90q0 -18 -5 -35q-34 -110 -160 -148q-65 -20 -142 -24q-124 -7 -192 39q-123 83 -123 173q0 109 210.5 303.5t248.5 274.5z" />
    <glyph glyph-name="Agrave" unicode="&#xc0;" horiz-adv-x="1087" 
d="M975 1735l22 -344l-199 409zM1022 -289q-57 469 -71 656q-52 4 -118 69l-106 105l-145 -293q-73 -148 -165 -289q-143 -217 -269 -217q-74 0 -112 50.5t-17 121.5q90 300 290 494q158 153 302 190q23 6 58 10q202 422 261 635q16 57 22 115l105 -94l-21 -795
q44 18 130 131q-59 -135 -134 -199q-4 -220 -4 -379q0 -205 7 -309zM938 997v0l-182 -393q69 -14 117 -53l70 -57q-8 162 -8 311q0 99 3 192zM629 567v0q-10 0 -19 -4q-60 -35 -159 -123q-122 -108 -160 -149q-216 -233 -244 -373q-4 -22 -4 -39q0 -72 74 -72q145 0 260 222
l-1 -4q56 108 262 540q-3 2 -9 2z" />
    <glyph glyph-name="Aacute" unicode="&#xc1;" horiz-adv-x="1087" 
d="M1196 1757l213 66l-424 -410zM1022 -289q-57 469 -71 656q-52 4 -118 69l-106 105l-145 -293q-73 -148 -165 -289q-143 -217 -269 -217q-74 0 -112 50.5t-17 121.5q90 300 290 494q158 153 302 190q23 6 58 10q202 422 261 635q16 57 22 115l105 -94l-21 -795
q44 18 130 131q-59 -135 -134 -199q-4 -220 -4 -379q0 -205 7 -309zM938 997v0l-182 -393q69 -14 117 -53l70 -57q-8 162 -8 311q0 99 3 192zM629 567v0q-10 0 -19 -4q-60 -35 -159 -123q-122 -108 -160 -149q-216 -233 -244 -373q-4 -22 -4 -39q0 -72 74 -72q145 0 260 222
l-1 -4q56 108 262 540q-3 2 -9 2z" />
    <glyph glyph-name="Acircumflex" unicode="&#xc2;" horiz-adv-x="1087" 
d="M1254 1552l-104 -45l11 43q15 54 15 103q0 92 -53 166q-103 -121 -126 -207q-6 -21 -6 -38q0 -18 7 -30l-124 -43q42 239 282 350q-2 -1 -7 -4l9 11q103 -83 103 -225q0 -38 -7 -81zM1022 -289q-57 469 -71 656q-52 4 -118 69l-106 105l-145 -293q-73 -148 -165 -289
q-143 -217 -269 -217q-74 0 -112 50.5t-17 121.5q90 300 290 494q158 153 302 190q23 6 58 10q202 422 261 635q16 57 22 115l105 -94l-21 -795q44 18 130 131q-59 -135 -134 -199q-4 -220 -4 -379q0 -205 7 -309zM938 997v0l-182 -393q69 -14 117 -53l70 -57q-8 162 -8 311
q0 99 3 192zM629 567v0q-10 0 -19 -4q-60 -35 -159 -123q-122 -108 -160 -149q-216 -233 -244 -373q-4 -22 -4 -39q0 -72 74 -72q145 0 260 222l-1 -4q56 108 262 540q-3 2 -9 2z" />
    <glyph glyph-name="Atilde" unicode="&#xc3;" horiz-adv-x="1087" 
d="M1375 1645v-7q-140 -141 -242 -141q-44 0 -123.5 43t-122.5 43q-84 0 -193 -110l9 10q151 172 254 172q35 0 123 -48t127 -48q74 0 168 86zM1022 -289q-57 469 -71 656q-52 4 -118 69l-106 105l-145 -293q-73 -148 -165 -289q-143 -217 -269 -217q-74 0 -112 50.5
t-17 121.5q90 300 290 494q158 153 302 190q23 6 58 10q202 422 261 635q16 57 22 115l105 -94l-21 -795q44 18 130 131q-59 -135 -134 -199q-4 -220 -4 -379q0 -205 7 -309zM938 997v0l-182 -393q69 -14 117 -53l70 -57q-8 162 -8 311q0 99 3 192zM629 567v0q-10 0 -19 -4
q-60 -35 -159 -123q-122 -108 -160 -149q-216 -233 -244 -373q-4 -22 -4 -39q0 -72 74 -72q145 0 260 222l-1 -4q56 108 262 540q-3 2 -9 2z" />
    <glyph glyph-name="Adieresis" unicode="&#xc4;" horiz-adv-x="1087" 
d="M1189 1507l10 236l87 -53zM828 1511l9 236l88 -53zM1022 -289q-57 469 -71 656q-52 4 -118 69l-106 105l-145 -293q-73 -148 -165 -289q-143 -217 -269 -217q-74 0 -112 50.5t-17 121.5q90 300 290 494q158 153 302 190q23 6 58 10q202 422 261 635q16 57 22 115l105 -94
l-21 -795q44 18 130 131q-59 -135 -134 -199q-4 -220 -4 -379q0 -205 7 -309zM938 997v0l-182 -393q69 -14 117 -53l70 -57q-8 162 -8 311q0 99 3 192zM629 567v0q-10 0 -19 -4q-60 -35 -159 -123q-122 -108 -160 -149q-216 -233 -244 -373q-4 -22 -4 -39q0 -72 74 -72
q145 0 260 222l-1 -4q56 108 262 540q-3 2 -9 2z" />
    <glyph glyph-name="Aring" unicode="&#xc5;" horiz-adv-x="1087" 
d="M1407 1696q-111 -154 -244 -281q-61 -58 -156 -137q-109 123 -109 302q0 76 20 163l163 55q212 -47 326 -102zM1208 1599l14 52q-30 10 -81 24q-4 2 -83 17q-25 -45 -33 -74q-12 -44 -12 -85q-1 -77 41 -144q134 139 154 210zM1022 -289q-57 469 -71 656q-52 4 -118 69
l-106 105l-145 -293q-73 -148 -165 -289q-143 -217 -269 -217q-74 0 -112 50.5t-17 121.5q90 300 290 494q158 153 302 190q23 6 58 10q202 422 261 635q16 57 22 115l105 -94l-21 -795q44 18 130 131q-59 -135 -134 -199q-4 -220 -4 -379q0 -205 7 -309zM938 997v0
l-182 -393q69 -14 117 -53l70 -57q-8 162 -8 311q0 99 3 192zM629 567v0q-10 0 -19 -4q-60 -35 -159 -123q-122 -108 -160 -149q-216 -233 -244 -373q-4 -22 -4 -39q0 -72 74 -72q145 0 260 222l-1 -4q56 108 262 540q-3 2 -9 2z" />
    <glyph glyph-name="AE" unicode="&#xc6;" horiz-adv-x="1626" 
d="M2019 -276v0q-173 129 -341 129q-120 0 -368 -72q-219 -64 -316 -68l-44 -2q-13 320 -13 531q0 91 3 161q-70 7 -130 62l-83 76q-241 -423 -359 -582q-162 -217 -285 -217q-79 0 -110.5 49.5t-4.5 122.5q115 301 330 494q187 167 311 159q-76 -53 -164 -127
q-147 -124 -172 -149q-239 -239 -278 -373q-8 -28 -8 -49q0 -62 71 -62q145 0 276 222l-1 -4q51 78 342 583q229 395 314 635q27 75 32 115l115 -70q53 -32 211 -86q165 -57 219 -57q117 0 284 117q-129 -179 -321 -179q-83 0 -287 64l-131 41l-70 -627q139 90 201 90
q147 0 227 -192q-46 56 -92 94q-26 22 -93 22q-116 0 -260 -129q-35 -348 -35 -527q0 -68 5 -112q106 11 247 43q285 64 408 64q279 0 370 -190zM976 997v0l-214 -393q30 -6 117 -43l61 -26q9 221 36 462z" />
    <glyph glyph-name="Ccedilla" unicode="&#xc7;" horiz-adv-x="840" 
d="M477 -283l-264 -364l197 454zM1021 -287v0l-64 -14q-62 -6 -121 -6q-227 0 -397 95q-189 106 -257 308q-33 101 -33 214q0 118 36 249q100 365 401 598q91 70 200 121q126 59 211 59q80 0 117 -57q13 -28 13 -59q0 -23 -7 -47q-10 -35 -192 -250t-194 -260q-7 -24 -7 -47
q0 -59 40 -117q-94 47 -94 144q0 32 10 69q17 62 182.5 264t175.5 237q7 25 7 44q0 59 -68 59q-41 0 -97 -21q-438 -162 -579 -673q-23 -86 -40 -185q-2 -33 -2 -64q0 -439 339 -610q51 -26 174 -38q95 -10 188 0l38 4q81 8 363 98l-1 -4q-275 -96 -342 -111z" />
    <glyph glyph-name="Egrave" unicode="&#xc8;" horiz-adv-x="907" 
d="M975 1735l22 -344l-199 409zM677 623v0h4l-45 -17h-2l-116 -16l-106 -359h8q184 0 184 -149q0 -33 -11 -72q-5 -16 -66 -104l24 86q16 60 -16.5 101t-94.5 48l-52 6l-83 -274h41q89 0 315 49q294 64 420 64q281 0 348 -191l-37 39q-47 51 -177 78q-58 12 -114 12
q-121 0 -379.5 -70.5t-384.5 -64.5q-14 1 -53 8l-23 -78h-12l18 80q-111 31 -162 135q-19 38 -7 82q24 85 104 145q77 58 167 66l82 353q-197 11 -197 154q0 60 40 157h14q-31 -99 -5 -166q31 -76 128 -76l40 6l61 256q-12 -4 -26 -4q-117 0 -140 117q-20 100 50 182
q119 138 241 146q90 6 252 -63q169 -72 253 -72q38 0 89 12q110 26 169 76l45 28q-154 -178 -348 -178q-92 0 -282 64q-30 10 -119 36l-63 -208q51 47 66 102l25 90l2 -18q6 -57 -3 -91q-34 -122 -117 -180l-86 -280q204 53 228 53q152 0 205 -193q-34 48 -80 95
q-29 22 -90 22q-56 0 -126 -24zM615 1268q-91 -2 -177 -78q-38 -34 -41 -103q-4 -98 96 -98q27 0 57 6zM349 152q-70 0 -126 -30q-64 -35 -81 -97q-15 -54 4 -76q48 -57 137 -72z" />
    <glyph glyph-name="Eacute" unicode="&#xc9;" horiz-adv-x="907" 
d="M1143 1720l212 66l-423 -410zM677 623v0h4l-45 -17h-2l-116 -16l-106 -359h8q184 0 184 -149q0 -33 -11 -72q-5 -16 -66 -104l24 86q16 60 -16.5 101t-94.5 48l-52 6l-83 -274h41q89 0 315 49q294 64 420 64q281 0 348 -191l-37 39q-47 51 -177 78q-58 12 -114 12
q-121 0 -379.5 -70.5t-384.5 -64.5q-14 1 -53 8l-23 -78h-12l18 80q-111 31 -162 135q-19 38 -7 82q24 85 104 145q77 58 167 66l82 353q-197 11 -197 154q0 60 40 157h14q-31 -99 -5 -166q31 -76 128 -76l40 6l61 256q-12 -4 -26 -4q-117 0 -140 117q-20 100 50 182
q119 138 241 146q90 6 252 -63q169 -72 253 -72q38 0 89 12q110 26 169 76l45 28q-154 -178 -348 -178q-92 0 -282 64q-30 10 -119 36l-63 -208q51 47 66 102l25 90l2 -18q6 -57 -3 -91q-34 -122 -117 -180l-86 -280q204 53 228 53q152 0 205 -193q-34 48 -80 95
q-29 22 -90 22q-56 0 -126 -24zM615 1268q-91 -2 -177 -78q-38 -34 -41 -103q-4 -98 96 -98q27 0 57 6zM349 152q-70 0 -126 -30q-64 -35 -81 -97q-15 -54 4 -76q48 -57 137 -72z" />
    <glyph glyph-name="Ecircumflex" unicode="&#xca;" horiz-adv-x="907" 
d="M1231 1534l-104 -45l12 43q14 53 14 101q0 93 -54 167q-102 -121 -126 -207q-6 -21 -6 -37q0 -18 8 -30l-125 -43q55 244 283 350q-3 -1 -7 -4l9 10q103 -82 103 -225q0 -38 -7 -80zM677 623v0h4l-45 -17h-2l-116 -16l-106 -359h8q184 0 184 -149q0 -33 -11 -72
q-5 -16 -66 -104l24 86q16 60 -16.5 101t-94.5 48l-52 6l-83 -274h41q89 0 315 49q294 64 420 64q281 0 348 -191l-37 39q-47 51 -177 78q-58 12 -114 12q-121 0 -379.5 -70.5t-384.5 -64.5q-14 1 -53 8l-23 -78h-12l18 80q-111 31 -162 135q-19 38 -7 82q24 85 104 145
q77 58 167 66l82 353q-197 11 -197 154q0 60 40 157h14q-31 -99 -5 -166q31 -76 128 -76l40 6l61 256q-12 -4 -26 -4q-117 0 -140 117q-20 100 50 182q119 138 241 146q90 6 252 -63q169 -72 253 -72q38 0 89 12q110 26 169 76l45 28q-154 -178 -348 -178q-92 0 -282 64
q-30 10 -119 36l-63 -208q51 47 66 102l25 90l2 -18q6 -57 -3 -91q-34 -122 -117 -180l-86 -280q204 53 228 53q152 0 205 -193q-34 48 -80 95q-29 22 -90 22q-56 0 -126 -24zM615 1268q-91 -2 -177 -78q-38 -34 -41 -103q-4 -98 96 -98q27 0 57 6zM349 152q-70 0 -126 -30
q-64 -35 -81 -97q-15 -54 4 -76q48 -57 137 -72z" />
    <glyph glyph-name="Edieresis" unicode="&#xcb;" horiz-adv-x="907" 
d="M1101 1507l10 236l87 -53zM841 1507l10 236l87 -53zM677 623v0h4l-45 -17h-2l-116 -16l-106 -359h8q184 0 184 -149q0 -33 -11 -72q-5 -16 -66 -104l24 86q16 60 -16.5 101t-94.5 48l-52 6l-83 -274h41q89 0 315 49q294 64 420 64q281 0 348 -191l-37 39q-47 51 -177 78
q-58 12 -114 12q-121 0 -379.5 -70.5t-384.5 -64.5q-14 1 -53 8l-23 -78h-12l18 80q-111 31 -162 135q-19 38 -7 82q24 85 104 145q77 58 167 66l82 353q-197 11 -197 154q0 60 40 157h14q-31 -99 -5 -166q31 -76 128 -76l40 6l61 256q-12 -4 -26 -4q-117 0 -140 117
q-20 100 50 182q119 138 241 146q90 6 252 -63q169 -72 253 -72q38 0 89 12q110 26 169 76l45 28q-154 -178 -348 -178q-92 0 -282 64q-30 10 -119 36l-63 -208q51 47 66 102l25 90l2 -18q6 -57 -3 -91q-34 -122 -117 -180l-86 -280q204 53 228 53q152 0 205 -193
q-34 48 -80 95q-29 22 -90 22q-56 0 -126 -24zM615 1268q-91 -2 -177 -78q-38 -34 -41 -103q-4 -98 96 -98q27 0 57 6zM349 152q-70 0 -126 -30q-64 -35 -81 -97q-15 -54 4 -76q48 -57 137 -72z" />
    <glyph glyph-name="Igrave" unicode="&#xcc;" horiz-adv-x="252" 
d="M569 1792l22 -344l-199 410zM100 -180h-5l356 1464q-20 12 -38 59l158 -6z" />
    <glyph glyph-name="Iacute" unicode="&#xcd;" horiz-adv-x="252" 
d="M789 1767l213 66l-424 -410zM100 -180h-5l356 1464q-20 12 -38 59l158 -6z" />
    <glyph glyph-name="Icircumflex" unicode="&#xce;" horiz-adv-x="252" 
d="M785 1561l-104 -45l12 43q15 53 15 102q0 92 -53 166q-104 -121 -127 -207q-6 -21 -6 -38q0 -18 7 -30l-124 -43q42 239 283 351q-4 -1 -8 -5l9 11q104 -83 104 -225q0 -38 -8 -80zM100 -180h-5l356 1464q-20 12 -38 59l158 -6z" />
    <glyph glyph-name="Idieresis" unicode="&#xcf;" horiz-adv-x="252" 
d="M663 1507l10 236l87 -53zM493 1507l10 236l87 -53zM100 -180h-5l356 1464q-20 12 -38 59l158 -6z" />
    <glyph glyph-name="Eth" unicode="&#xd0;" horiz-adv-x="1030" 
d="M700 1180q6 24 16 129q-50 2 -91 2q-123 0 -123 -54q0 -24 57 -49l133 -57zM454 201q-74 -27 -151 -60q-121 -51 -122 -73q-4 -50 88 -50q74 0 144 9zM606 797l49 198q-57 -20 -125 -30l1 4q94 30 103 65q4 12 -122 108.5t-125 106.5q1 46 111 72q76 18 132 18
q270 0 412 -66q201 -94 201 -328q0 -100 -35 -226q-73 -259 -323 -576q-147 -112 -474 -145l-15 -57h-4l13 55q-72 -6 -146 -6q-58 0 -122 18q-76 22 -76 55q0 9 5 18.5t183.5 105.5t181.5 108q1 4 1 8q0 30 -69 57l1 5q81 -13 126 -35l91 375q-92 43 -146 43
q-98 0 -219 -111l11 10q185 172 287 172q37 0 92 -22zM999 809v-6q-155 -141 -274 -141q-37 0 -95 20l-116 -369q12 -15 12 -29q0 -31 -44 -65l-60 -190q284 39 443 233q122 148 213 461q29 148 29 251q0 78 -17 130q-49 147 -267 190l-165 -522h5q93 -49 146 -49
q86 0 190 86z" />
    <glyph glyph-name="Ntilde" unicode="&#xd1;" horiz-adv-x="788" 
d="M1167 1649v-7q-140 -141 -242 -141q-44 0 -123 43t-123 43q-84 0 -193 -110l9 10q151 172 254 172q36 0 123.5 -48t126.5 -48q74 0 168 86zM584 1341v0l3 5l4 -7q28 -43 93 -153q96 -177 96 -482q0 -91 -8 -192l174 745q-5 5 6 34l14 40l112 -90l-471 -1456h-4l68 303
q46 204 46 400q0 130 -20 257q-42 267 -151 429l-428 -1354h-4l339 1462q-22 14 -41 59l161 -4q4 2 11 4z" />
    <glyph glyph-name="Ograve" unicode="&#xd2;" horiz-adv-x="772" 
d="M794 1778l23 -344l-199 409zM598 356l-258 -348q-69 203 -69 465q0 307 95 694l236 142q272 -115 411 -256q-218 -419 -415 -697zM867 1042l-175 80q-85 39 -185 58q-78 -187 -93 -244q-58 -210 -58 -406q0 -187 52 -362q348 471 412 706z" />
    <glyph glyph-name="Oacute" unicode="&#xd3;" horiz-adv-x="772" 
d="M1040 1735l213 65l-424 -409zM598 356l-258 -348q-69 203 -69 465q0 307 95 694l236 142q272 -115 411 -256q-218 -419 -415 -697zM867 1042l-175 80q-85 39 -185 58q-78 -187 -93 -244q-58 -210 -58 -406q0 -187 52 -362q348 471 412 706z" />
    <glyph glyph-name="Ocircumflex" unicode="&#xd4;" horiz-adv-x="772" 
d="M1014 1528l-104 -45l12 43q14 53 14 100q0 94 -53 168q-104 -121 -127 -207q-6 -20 -6 -36q0 -19 8 -31l-125 -43q55 244 284 350q-4 -1 -7 -4l8 10q104 -82 104 -225q0 -38 -8 -80zM598 356l-258 -348q-69 203 -69 465q0 307 95 694l236 142q272 -115 411 -256
q-218 -419 -415 -697zM867 1042l-175 80q-85 39 -185 58q-78 -187 -93 -244q-58 -210 -58 -406q0 -187 52 -362q348 471 412 706z" />
    <glyph glyph-name="Otilde" unicode="&#xd5;" horiz-adv-x="772" 
d="M1167 1649v-7q-140 -141 -242 -141q-44 0 -123 43t-123 43q-84 0 -193 -110l9 10q151 172 254 172q36 0 123.5 -48t126.5 -48q74 0 168 86zM598 356l-258 -348q-69 203 -69 465q0 307 95 694l236 142q272 -115 411 -256q-218 -419 -415 -697zM867 1042l-175 80
q-85 39 -185 58q-78 -187 -93 -244q-58 -210 -58 -406q0 -187 52 -362q348 471 412 706z" />
    <glyph glyph-name="Odieresis" unicode="&#xd6;" horiz-adv-x="772" 
d="M958 1507l9 236l88 -53zM665 1507l10 236l87 -53zM598 356l-258 -348q-69 203 -69 465q0 307 95 694l236 142q272 -115 411 -256q-218 -419 -415 -697zM867 1042l-175 80q-85 39 -185 58q-78 -187 -93 -244q-58 -210 -58 -406q0 -187 52 -362q348 471 412 706z" />
    <glyph glyph-name="multiply" unicode="&#xd7;" horiz-adv-x="608" 
d="M124 96l249 277l-109 200q-13 -4 -23 -4q-25 0 -44 11l143 88l81 -240l216 240l94 -88q-25 -11 -50 -11q-10 0 -21 4l-219 -200l95 -277l-7 -4l-133 240l-267 -240z" />
    <glyph glyph-name="Oslash" unicode="&#xd8;" horiz-adv-x="772" 
d="M1204 1401v0h8q-121 -341 -383 -531l-479 -352q-260 -191 -364 -463l5 19q84 305 345 530l326 225q426 296 542 572zM598 356v0q-80 -114 -258 -348q-69 203 -69 465q0 307 95 694l236 142q272 -115 411 -256q-218 -420 -415 -697zM867 1042l-175 80q-85 39 -185 58
q-78 -187 -93 -244q-58 -210 -58 -406q0 -187 52 -362q348 471 412 706z" />
    <glyph glyph-name="Ugrave" unicode="&#xd9;" horiz-adv-x="1006" 
d="M975 1735l22 -344l-199 409zM1338 1260v0q-72 -154 -194 -570q-103 -352 -210 -497q-158 -216 -434 -216q-289 0 -316 236q-3 20 -3 44q0 155 92 495q111 414 109 587l2 7q2 6 11 6q26 0 68 -41q50 -49 58 -56l-2 -2v2h-2q-5 -4 -7 -12l-35 -135q-32 -123 -107 -341
q-81 -235 -110 -341q-24 -89 -24 -154q0 -77 34 -119q61 -75 257 -75q219 0 327 95q98 86 158 304q28 100 75 302t74 302q22 79 77 258q4 13 15 13q14 0 42 -31q42 -45 53 -51q-6 -6 -8 -10z" />
    <glyph glyph-name="Uacute" unicode="&#xda;" horiz-adv-x="1006" 
d="M1040 1735l213 65l-424 -409zM1338 1260v0q-72 -154 -194 -570q-103 -352 -210 -497q-158 -216 -434 -216q-289 0 -316 236q-3 20 -3 44q0 155 92 495q111 414 109 587l2 7q2 6 11 6q26 0 68 -41q50 -49 58 -56l-2 -2v2h-2q-5 -4 -7 -12l-35 -135q-32 -123 -107 -341
q-81 -235 -110 -341q-24 -89 -24 -154q0 -77 34 -119q61 -75 257 -75q219 0 327 95q98 86 158 304q28 100 75 302t74 302q22 79 77 258q4 13 15 13q14 0 42 -31q42 -45 53 -51q-6 -6 -8 -10z" />
    <glyph glyph-name="Ucircumflex" unicode="&#xdb;" horiz-adv-x="1006" 
d="M1078 1524l-104 -45l12 43q14 53 14 102q0 92 -53 166q-103 -121 -126 -207q-6 -20 -6 -36q0 -19 8 -31l-125 -43q3 19 9 39q58 211 274 311q-3 -1 -8 -4l9 10q104 -83 104 -225q0 -38 -8 -80zM1338 1260v0q-72 -154 -194 -570q-103 -352 -210 -497q-158 -216 -434 -216
q-289 0 -316 236q-3 20 -3 44q0 155 92 495q111 414 109 587l2 7q2 6 11 6q26 0 68 -41q50 -49 58 -56l-2 -2v2h-2q-5 -4 -7 -12l-35 -135q-32 -123 -107 -341q-81 -235 -110 -341q-24 -89 -24 -154q0 -77 34 -119q61 -75 257 -75q219 0 327 95q98 86 158 304q28 100 75 302
t74 302q22 79 77 258q4 13 15 13q14 0 42 -31q42 -45 53 -51q-6 -6 -8 -10z" />
    <glyph glyph-name="Udieresis" unicode="&#xdc;" horiz-adv-x="1006" 
d="M765 1507l10 236l87 -53zM1011 1507l10 236l87 -53zM1338 1260v0q-72 -154 -194 -570q-103 -352 -210 -497q-158 -216 -434 -216q-289 0 -316 236q-3 20 -3 44q0 155 92 495q111 414 109 587l2 7q2 6 11 6q26 0 68 -41q50 -49 58 -56l-2 -2v2h-2q-5 -4 -7 -12l-35 -135
q-32 -123 -107 -341q-81 -235 -110 -341q-24 -89 -24 -154q0 -77 34 -119q61 -75 257 -75q219 0 327 95q98 86 158 304q28 100 75 302t74 302q22 79 77 258q4 13 15 13q14 0 42 -31q42 -45 53 -51q-6 -6 -8 -10z" />
    <glyph glyph-name="Yacute" unicode="&#xdd;" horiz-adv-x="580" 
d="M1040 1735l213 65l-424 -409zM566 530l-365 -1198h-4l281 1198q-61 369 -69 813l130 -116q-14 -177 -12 -676l310 446q106 152 254 346l14 -149q-87 -64 -539 -664z" />
    <glyph glyph-name="Thorn" unicode="&#xde;" horiz-adv-x="471" 
d="M455 434q181 225 239 436q4 14 4 36q0 14 -3 43.5t-3 44.5q0 14 2 24l-68 80q-25 -21 -107 -53t-103 -52l107 375h-153q22 -47 43 -61l-323 -1293h8l203 627l73 -86t81 -121zM610 1016q-6 -29 0 -87q5 -56 -3 -87q-19 -66 -68 -154l-84 -151q-3 17 -73 98q-60 69 -54 88
l64 197q36 32 107 55q87 28 111 41z" />
    <glyph glyph-name="germandbls" unicode="&#xdf;" horiz-adv-x="606" 
d="M841 1352v0q164 -3 164 -107q0 -21 -7 -47q-14 -49 -65 -77q-45 -25 -99 -25q-131 22 -166 22q-71 0 -139 -67q78 125 194 125q54 0 142 -27q20 -6 35 -6q69 0 85 55q4 15 4 28q0 82 -156 97q-196 0 -308 -106q-97 -93 -152 -293l-26 -97q107 34 154 35q223 4 233 -129
l-209 -125q-62 -37 -85 -59q92 -221 203 -371q-261 -123 -334 -256l-52 117q66 139 110 246h12q-23 -73 -23 -126q0 -39 13 -67q122 47 175 109q-119 151 -211 354l176 94q116 80 125 121q-49 31 -101 31q-63 0 -144 -33l-1 8l8 2l2 -8l-76 -18l-323 -1090l-21 -12l261 1093
q-112 4 -112 82q0 13 4 29h8q-5 -53 69 -53l46 4l40 166q46 192 206 292q143 89 341 89z" />
    <glyph glyph-name="agrave" unicode="&#xe0;" horiz-adv-x="346" 
d="M403 1081l18 -282l-162 336zM361 315v0q-39 -139 -61 -317q-22 66 -22 163q0 24 1 50q-43 -61 -162 -203q-13 53 -14 120q0 133 51 318q20 74 43 144l116 80l65 -78l39 92l61 -100q-66 -84 -117 -269zM317 420v0q15 55 41 115q-45 43 -77 55q-33 -84 -58 -176
q-46 -166 -49 -303q99 120 118 184q6 59 25 125z" />
    <glyph glyph-name="aacute" unicode="&#xe1;" horiz-adv-x="346" 
d="M559 1079l175 54l-347 -336zM361 315v0q-39 -139 -61 -317q-22 66 -22 163q0 24 1 50q-43 -61 -162 -203q-13 53 -14 120q0 133 51 318q20 74 43 144l116 80l65 -78l39 92l61 -100q-66 -84 -117 -269zM317 420v0q15 55 41 115q-45 43 -77 55q-33 -84 -58 -176
q-46 -166 -49 -303q99 120 118 184q6 59 25 125z" />
    <glyph glyph-name="acircumflex" unicode="&#xe2;" horiz-adv-x="346" 
d="M576 893v0l-82 -37l9 35q13 46 13 88q0 73 -38 133q-106 -129 -106 -200q0 -15 5 -25l-98 -35q43 199 224 287l-5 -4l6 8q78 -65 78 -180q0 -33 -6 -70zM361 315v0q-39 -139 -61 -317q-22 66 -22 163q0 24 1 50q-43 -61 -162 -203q-13 53 -14 120q0 133 51 318
q20 74 43 144l116 80l65 -78l39 92l61 -100q-66 -84 -117 -269zM317 420v0q15 55 41 115q-45 43 -77 55q-33 -84 -58 -176q-46 -166 -49 -303q99 120 118 184q6 59 25 125z" />
    <glyph glyph-name="atilde" unicode="&#xe3;" horiz-adv-x="346" 
d="M640 963v-7q-99 -133 -160 -133q-13 0 -70.5 41t-70.5 41q-51 0 -127 -104l7 8q125 162 169 162q17 0 73.5 -45t69.5 -45q47 0 109 82zM361 315v0q-39 -139 -61 -317q-22 66 -22 163q0 24 1 50q-43 -61 -162 -203q-13 53 -14 120q0 133 51 318q20 74 43 144l116 80
l65 -78l39 92l61 -100q-66 -84 -117 -269zM317 420v0q15 55 41 115q-45 43 -77 55q-33 -84 -58 -176q-46 -166 -49 -303q99 120 118 184q6 59 25 125z" />
    <glyph glyph-name="adieresis" unicode="&#xe4;" horiz-adv-x="346" 
d="M287 725l10 236l88 -54zM457 725l10 236l88 -54zM361 315v0q-39 -139 -61 -317q-22 66 -22 163q0 24 1 50q-43 -61 -162 -203q-13 53 -14 120q0 133 51 318q20 74 43 144l116 80l65 -78l39 92l61 -100q-66 -84 -117 -269zM317 420v0q15 55 41 115q-45 43 -77 55
q-33 -84 -58 -176q-46 -166 -49 -303q99 120 118 184q6 59 25 125z" />
    <glyph glyph-name="aring" unicode="&#xe5;" horiz-adv-x="346" 
d="M479 924l10 37q-39 14 -49 20q-19 4 -52 12q-20 -39 -24 -57q-11 -38 -11 -74q0 -51 21 -98q91 108 105 160zM606 995q-89 -139 -161 -211q-2 -3 -104 -104q-59 86 -59 205q0 67 19 145l105 43q140 -41 200 -78zM361 315v0q-39 -139 -61 -317q-22 66 -22 163q0 24 1 50
q-43 -61 -162 -203q-13 53 -14 120q0 133 51 318q20 74 43 144l116 80l65 -78l39 92l61 -100q-66 -84 -117 -269zM317 420v0q15 55 41 115q-45 43 -77 55q-33 -84 -58 -176q-46 -166 -49 -303q99 120 118 184q6 59 25 125z" />
    <glyph glyph-name="ae" unicode="&#xe6;" horiz-adv-x="453" 
d="M338 119v0q60 20 167 227l-11 -39q-46 -168 -194 -309q-22 66 -22 163q0 24 1 50q-43 -61 -162 -203q-13 53 -14 120q0 133 51 318q20 74 43 144l116 80l65 -78q24 59 80 92q80 -86 89 -125q12 -20 12 -45q0 -111 -211 -254q-14 -74 -10 -141zM358 299v0q148 119 148 217
q0 17 -5 33l-23 35q-90 -112 -120 -285zM317 420v0q15 55 41 115q-45 43 -77 55q-33 -84 -58 -176q-46 -166 -49 -303q99 120 118 184q6 59 25 125z" />
    <glyph glyph-name="ccedilla" unicode="&#xe7;" horiz-adv-x="254" 
d="M143 -47l-197 -256l142 319zM275 590v0q-128 -304 -131 -463q61 16 167 223l-12 -43q-41 -149 -179 -297q-15 58 -15 130q0 129 48 302q17 62 37 123l118 107q43 -99 50 -123l4 -66q-61 78 -87 107z" />
    <glyph glyph-name="egrave" unicode="&#xe8;" horiz-adv-x="266" 
d="M403 1081l18 -282l-162 336zM162 260v0q-16 -80 -15 -135q62 10 171 221l-11 -39q-41 -151 -180 -301q-17 64 -17 145q0 135 50 318q13 47 27 92l116 107q51 -82 58 -109q12 -20 12 -45q0 -111 -211 -254zM315 549v0q-20 31 -40 41q-70 -164 -103 -291q148 119 148 219
q0 16 -5 31z" />
    <glyph glyph-name="eacute" unicode="&#xe9;" horiz-adv-x="266" 
d="M512 1079l175 54l-347 -336zM162 260v0q-16 -80 -15 -135q62 10 171 221l-11 -39q-41 -151 -180 -301q-17 64 -17 145q0 135 50 318q13 47 27 92l116 107q51 -82 58 -109q12 -20 12 -45q0 -111 -211 -254zM315 549v0q-20 31 -40 41q-70 -164 -103 -291q148 119 148 219
q0 16 -5 31z" />
    <glyph glyph-name="ecircumflex" unicode="&#xea;" horiz-adv-x="266" 
d="M543 893v0l-82 -37l9 35q13 46 13 88q0 73 -38 133q-106 -129 -106 -200q0 -15 5 -25l-98 -35q43 199 225 287l-5 -4l6 8q77 -65 77 -178q0 -34 -6 -72zM162 260v0q-16 -80 -15 -135q62 10 171 221l-11 -39q-41 -151 -180 -301q-17 64 -17 145q0 135 50 318q13 47 27 92
l116 107q51 -82 58 -109q12 -20 12 -45q0 -111 -211 -254zM315 549v0q-20 31 -40 41q-70 -164 -103 -291q148 119 148 219q0 16 -5 31z" />
    <glyph glyph-name="edieresis" unicode="&#xeb;" horiz-adv-x="266" 
d="M287 725l10 236l88 -54zM457 725l10 236l88 -54zM162 260v0q-16 -80 -15 -135q62 10 171 221l-11 -39q-41 -151 -180 -301q-17 64 -17 145q0 135 50 318q13 47 27 92l116 107q51 -82 58 -109q12 -20 12 -45q0 -111 -211 -254zM315 549v0q-20 31 -40 41
q-70 -164 -103 -291q148 119 148 219q0 16 -5 31z" />
    <glyph glyph-name="igrave" unicode="&#xec;" horiz-adv-x="176" 
d="M326 1081l17 -282l-162 336zM90 -16h-8l132 622q-29 15 -38 47h147z" />
    <glyph glyph-name="iacute" unicode="&#xed;" horiz-adv-x="176" 
d="M471 1079l175 54l-347 -336zM90 -16h-8l132 622q-29 15 -38 47h147z" />
    <glyph glyph-name="icircumflex" unicode="&#xee;" horiz-adv-x="176" 
d="M488 893v0l-82 -37l9 35q13 46 13 88q0 73 -38 133q-106 -129 -106 -200q0 -15 5 -25l-98 -35q43 199 224 287l-5 -4l6 8q78 -65 78 -180q0 -33 -6 -70zM90 -16h-8l132 622q-29 15 -38 47h147z" />
    <glyph glyph-name="idieresis" unicode="&#xef;" horiz-adv-x="176" 
d="M371 725l10 236l88 -54zM201 725l10 236l88 -54zM90 -16h-8l132 622q-29 15 -38 47h147z" />
    <glyph glyph-name="eth" unicode="&#xf0;" 
d="M127 0h768l374 1358h-768zM289 129l303 1100h512l-303 -1100h-512z" />
    <glyph glyph-name="ntilde" unicode="&#xf1;" horiz-adv-x="336" 
d="M640 963v-7q-99 -133 -160 -133q-13 0 -70.5 41t-70.5 41q-51 0 -127 -104l7 8q125 162 169 162q17 0 73.5 -45t69.5 -45q47 0 109 82zM256 -23v0h-8q105 406 101 533q-89 -57 -116 -131l-141 -393h-8l132 622q-30 17 -40 47h151l-50 -145q80 65 140 141l39 -86
q-153 -467 -200 -588z" />
    <glyph glyph-name="ograve" unicode="&#xf2;" horiz-adv-x="336" 
d="M403 1081l18 -282l-162 336zM283 197v0q-27 -38 -116 -172l-14 -21q-22 77 -22 178q0 169 61 404l108 80q104 -56 155 -129q-68 -175 -172 -340zM373 532v0q-60 46 -98 58q-17 -49 -31 -101q-46 -165 -46 -304q0 -43 4 -83q123 212 171 430z" />
    <glyph glyph-name="oacute" unicode="&#xf3;" horiz-adv-x="336" 
d="M559 1079l175 54l-347 -336zM283 197v0q-27 -38 -116 -172l-14 -21q-22 77 -22 178q0 169 61 404l108 80q104 -56 155 -129q-68 -175 -172 -340zM373 532v0q-60 46 -98 58q-17 -49 -31 -101q-46 -165 -46 -304q0 -43 4 -83q123 212 171 430z" />
    <glyph glyph-name="ocircumflex" unicode="&#xf4;" horiz-adv-x="336" 
d="M576 893v0l-82 -37l9 35q13 46 13 88q0 73 -38 133q-106 -129 -106 -200q0 -15 5 -25l-98 -35q43 199 224 287l-5 -4l6 8q78 -65 78 -180q0 -33 -6 -70zM283 197v0q-27 -38 -116 -172l-14 -21q-22 77 -22 178q0 169 61 404l108 80q104 -56 155 -129q-68 -175 -172 -340z
M373 532q-60 46 -98 58q-17 -49 -31 -101q-46 -165 -46 -304q0 -43 4 -83q123 212 171 430z" />
    <glyph glyph-name="otilde" unicode="&#xf5;" horiz-adv-x="336" 
d="M640 963v-7q-99 -133 -160 -133q-13 0 -70.5 41t-70.5 41q-51 0 -127 -104l7 8q125 162 169 162q17 0 73.5 -45t69.5 -45q47 0 109 82zM283 197v0q-27 -38 -116 -172l-14 -21q-22 77 -22 178q0 169 61 404l108 80q104 -56 155 -129q-68 -175 -172 -340zM373 532v0
q-60 46 -98 58q-17 -49 -31 -101q-46 -165 -46 -304q0 -43 4 -83q123 212 171 430z" />
    <glyph glyph-name="odieresis" unicode="&#xf6;" horiz-adv-x="336" 
d="M287 725l10 236l88 -54zM432 725l10 236l89 -54zM283 197v0q-27 -38 -116 -172l-14 -21q-22 77 -22 178q0 169 61 404l108 80q104 -56 155 -129q-68 -175 -172 -340zM373 532v0q-60 46 -98 58q-17 -49 -31 -101q-46 -165 -46 -304q0 -43 4 -83q123 212 171 430z" />
    <glyph glyph-name="divide" unicode="&#xf7;" horiz-adv-x="602" 
d="M181 545l68 -58h448l-70 58h-446zM446 334l-88 -162l7 211zM575 805l-87 -162l7 211z" />
    <glyph glyph-name="oslash" unicode="&#xf8;" horiz-adv-x="336" 
d="M283 197l-116 -172l-14 -21q-15 59 -20 131q-4 -5 -14 -14q-13 -12 -72 -78q-18 12 -31 53q37 47 117 140q6 149 59 350l108 80q42 -27 123 -68l113 113q27 -27 60 -29l-141 -145q-73 -192 -172 -340zM373 532v0q-60 46 -98 58q-49 -139 -67 -275q22 31 37 31q8 0 8 -13
q0 -42 -53 -134q-1 -15 -1 -32q0 -30 3 -65q70 119 166 342q-48 -47 -71 -47q-14 0 -17 19q29 39 93 116z" />
    <glyph glyph-name="ugrave" unicode="&#xf9;" horiz-adv-x="352" 
d="M403 1081l18 -282l-162 336zM299 -23q-20 67 -20 167q0 25 2 51q-48 -64 -165 -205q-12 50 -12 117q0 187 113 561l72 -78q-121 -253 -121 -461q0 -20 2 -39q102 123 119 186q26 176 128 392l63 -101q-123 -155 -181 -590z" />
    <glyph glyph-name="uacute" unicode="&#xfa;" horiz-adv-x="352" 
d="M559 1079l175 54l-347 -336zM299 -23q-20 67 -20 167q0 25 2 51q-48 -64 -165 -205q-12 50 -12 117q0 187 113 561l72 -78q-121 -253 -121 -461q0 -20 2 -39q102 123 119 186q26 176 128 392l63 -101q-123 -155 -181 -590z" />
    <glyph glyph-name="ucircumflex" unicode="&#xfb;" horiz-adv-x="352" 
d="M576 893v0l-82 -37l9 35q13 46 13 88q0 73 -38 133q-106 -129 -106 -200q0 -15 5 -25l-98 -35q43 199 224 287l-5 -4l6 8q78 -65 78 -180q0 -33 -6 -70zM362 301v0q-39 -141 -63 -324q-20 67 -20 167q0 25 2 51q-48 -64 -165 -205q-12 50 -12 117q0 187 113 561l72 -78
q-121 -253 -121 -461q0 -20 2 -39q102 123 119 186q26 176 128 392l63 -101q-69 -86 -118 -266z" />
    <glyph glyph-name="udieresis" unicode="&#xfc;" horiz-adv-x="352" 
d="M457 725l10 236l88 -54zM287 725l10 236l88 -54zM299 -23q-20 67 -20 167q0 25 2 51q-48 -64 -165 -205q-12 50 -12 117q0 187 113 561l72 -78q-121 -253 -121 -461q0 -20 2 -39q102 123 119 186q26 176 128 392l63 -101q-123 -155 -181 -590z" />
    <glyph glyph-name="yacute" unicode="&#xfd;" horiz-adv-x="311" 
d="M559 1079l175 54l-347 -336zM167 -360q-40 -132 -165 -226t-263 -94q-91 0 -168 29q-105 40 -105 116q0 72 75 118q52 32 103 32q39 0 115.5 -15.5t116.5 -15.5q55 0 112 29q-51 -82 -162 -82q-38 0 -110.5 18.5t-110.5 18.5q-95 0 -114 -68q-4 -17 -4 -32
q0 -105 234 -105q321 0 412 332l135 489l-155 -190l5 16q-5 46 -5 96q0 147 47 320l51 184q-27 15 -57 47h146q-25 -41 -49 -131q-74 -268 -79 -422q112 138 117 156l110 410l56 -68z" />
    <glyph glyph-name="thorn" unicode="&#xfe;" horiz-adv-x="422" 
d="M296 4v0q165 205 239 584l-68 80q-23 -27 -83 -55q-64 -29 -86 -50l107 375h-153q22 -47 42 -61l-322 -1293h8l203 627q4 -27 55 -100t58 -107zM450 586q-14 -88 -38 -176q-46 -166 -117 -304q-8 32 -52 101q-36 56 -33 86l64 196q31 30 96 60z" />
    <glyph glyph-name="ydieresis" unicode="&#xff;" horiz-adv-x="311" 
d="M287 725l10 236l88 -54zM457 725l10 236l88 -54zM167 -360q-40 -132 -165 -226t-263 -94q-91 0 -168 29q-105 40 -105 116q0 72 75 118q52 32 103 32q39 0 115.5 -15.5t116.5 -15.5q55 0 112 29q-51 -82 -162 -82q-38 0 -110.5 18.5t-110.5 18.5q-95 0 -114 -68
q-4 -17 -4 -32q0 -105 234 -105q321 0 412 332l135 489l-155 -190l5 16q-5 46 -5 96q0 147 47 320l51 184q-27 15 -57 47h146q-25 -41 -49 -131q-74 -268 -79 -422q112 138 117 156l110 410l56 -68z" />
    <glyph glyph-name="OE" unicode="&#x152;" horiz-adv-x="1190" 
d="M805 825q-114 0 -141 105q-24 94 59 180q-6 2 -31 12q-101 39 -185 58q-78 -187 -93 -244q-58 -210 -58 -406q0 -187 52 -362q158 213 256 377q-104 33 -104 128q0 53 36 138h14q-26 -81 -8 -137q21 -63 92 -78q75 131 111 229zM753 1096q-58 -42 -59 -109q-3 -88 98 -88
q22 0 36 2l39 141q-68 31 -114 54zM907 1151h-10q66 -47 116 -98l-34 -64q30 35 35 55l22 80l2 -16q6 -61 0 -82q-30 -111 -112 -162q-9 -4 -22 -8l-157 -262l101 16q5 1 116 29q78 20 110 20q151 0 210 -174q-44 51 -83 84q-26 21 -91 21q-55 0 -125 -23h5l-45 -14
l-186 -25q-25 2 -49 7l-112 -179q-29 -47 -258 -348q-69 203 -69 465q0 307 95 694l236 142q130 -56 229 -115q57 29 115 33q91 6 254 -57q170 -66 255 -66q148 0 255 80l44 26q-148 -161 -343 -161q-94 0 -284 57q-149 45 -220 45zM541 162q73 48 149 51l49 2q78 3 128 -29
q59 -38 59 -112q0 -27 -9 -60q-4 -14 -62 -94l21 78q6 21 6 39q0 82 -120 96l-52 6l-40 2q-65 3 -122 -25q-66 -32 -82 -89q-13 -48 6 -68q55 -58 140 -65l62 -5q63 -5 314 45q291 58 419 58q281 0 351 -172l-37 35q-51 48 -178 71q-62 11 -114 11q-119 0 -381 -66
q-253 -64 -380 -57q-167 9 -237 133q-18 33 -7 73q21 80 117 142z" />
    <glyph glyph-name="oe" unicode="&#x153;" horiz-adv-x="477" 
d="M257 532q-16 -53 -22 -75q-48 -174 -43 -355q112 172 172 387q14 52 23 101q-44 -12 -130 -58zM367 260q-16 -80 -16 -135q63 10 172 221l-11 -39q-41 -151 -180 -301q-17 64 -17 142q0 25 2 51q-60 -111 -130 -195l-2 21l-22 172q-17 136 16 340q91 73 225 129l43 -54
l61 56q50 -82 58 -109q11 -20 11 -44q0 -16 -5 -34q-16 -61 -205 -221zM520 549q-20 31 -41 41q-69 -164 -102 -291q119 96 142 182q4 12 4 31q0 16 -3 37z" />
    <glyph glyph-name="Scaron" unicode="&#x160;" horiz-adv-x="934" 
d="M1136 1047q70 173 132 210q-26 -2 -38 -2q-64 0 -97 43l-33 43q-162 15 -233 15q-401 0 -475 -295q-18 -71 -18 -127q0 -151 124 -203l332 -67q132 -42 132 -180q0 -45 -14 -99q-39 -155 -117 -225q-86 -76 -240 -72q-213 6 -292 26q-178 47 -178 190q0 19 3 40
q42 110 185 160q40 14 178 37q36 6 60 6q85 0 144 -37q37 -23 20 -78q-29 -91 -230 -104q-54 -3 -94 22q-44 28 -48 80l-12 19q-8 -22 -8 -44t7 -45q16 -47 50 -67q68 -40 148 -29q167 24 206 150q23 76 -18 114q-82 78 -199 78q-94 0 -203 -45q-202 -84 -205 -264
q-5 -33 -5 -62q0 -149 135 -206q90 -37 265 -37q219 0 346 119q116 107 170 329q17 70 17 127q0 154 -125 209l-330 74q-130 29 -130 166q0 47 15 106q45 178 296 178q197 0 265 -51q55 -42 56 -207q0 -106 -8 -143h4zM1181 1806l-80 45l-12 -43q-42 -155 -186 -268
q-22 73 -22 133q0 100 48 142l-101 43q-27 -84 -27 -144q0 -134 118 -207q-3 1 -5 4l3 -10q189 105 264 305z" />
    <glyph glyph-name="scaron" unicode="&#x161;" horiz-adv-x="401" 
d="M149 6q62 98 296 189q-113 112 -206 272q50 37 140 65q13 -21 13 -67q0 -38 -9 -94h8q47 147 89 196l-54 86q-53 -71 -130 -112l-156 -70q98 -152 213 -260q-47 -45 -155 -80q-18 24 -18 61q0 35 16 80h-10q-36 -75 -91 -180zM633 1102v0l-62 37l-9 -35
q-35 -127 -147 -221q-16 59 -16 107q0 80 39 118l-79 35q-22 -67 -22 -121q0 -107 89 -166l-3 4l1 -8q147 84 209 250z" />
    <glyph glyph-name="Ydieresis" unicode="&#x178;" horiz-adv-x="580" 
d="M700 1516l9 235l88 -53zM960 1516l9 235l88 -53zM566 530l-365 -1198h-4l281 1198q-61 369 -69 813l130 -116q-14 -177 -12 -676l310 446q106 152 254 346l14 -149q-87 -64 -539 -664z" />
    <glyph glyph-name="florin" unicode="&#x192;" horiz-adv-x="6" 
d="M743 -291v0q138 0 283 60l-6 16q-71 -29 -207 -33q-63 -2 -110 6q-98 17 -299 111q-188 88 -312 88q-119 0 -254 -78q-68 -39 -82 -112q-3 -16 -3 -29q0 -97 144 -119q27 -4 50 -4q124 0 213 94q40 42 48 88l-20 -16q-29 -49 -93 -78q-60 -28 -121 -25q-193 9 -193 91
q0 66 67 96q86 39 175 39q104 0 373 -111q204 -84 347 -84z" />
    <glyph glyph-name="circumflex" unicode="&#x2c6;" horiz-adv-x="545" 
d="M788 1204l-104 -45l12 43q14 53 14 102q0 92 -54 166q-103 -120 -126 -206q-6 -21 -6 -37q0 -19 8 -31l-125 -43q55 245 283 350q-3 -1 -8 -4l9 10q104 -82 104 -226q0 -37 -7 -79z" />
    <glyph glyph-name="macron" unicode="&#xaf;" 
d="M127 0h768l374 1358h-768zM289 129l303 1100h512l-303 -1100h-512z" />
    <glyph glyph-name="macron" unicode="&#x2c9;" 
d="M127 0h768l374 1358h-768zM289 129l303 1100h512l-303 -1100h-512z" />
    <glyph glyph-name="tilde" unicode="&#x2dc;" horiz-adv-x="756" 
d="M883 657l1 -6q-139 -137 -243 -137q-43 0 -124.5 42t-122.5 42q-86 0 -193 -109l11 11q168 168 253 168q41 0 125.5 -47.5t126.5 -47.5q76 0 166 84z" />
    <glyph glyph-name="mu" unicode="&#x3bc;" horiz-adv-x="195" 
d="M283 729l12 238l88 -58zM-478 -553v0q-126 42 -126 116q0 13 4 27l14 27q62 94 180 94q82 -18 132 -18q61 0 119 26q-33 -55 -101 -69q-37 -8 -96 2q-72 12 -94 12q-107 0 -125 -65q-4 -14 -4 -27q0 -61 88 -92q47 -6 90 -6q214 0 325 153q56 76 77 164l204 819
q-31 15 -40 47h155l-264 -864q-49 -160 -158 -254q-118 -102 -278 -102q-49 0 -102 10z" />
    <glyph glyph-name="endash" unicode="&#x2013;" horiz-adv-x="592" 
d="M181 545h446l70 -58h-448z" />
    <glyph glyph-name="emdash" unicode="&#x2014;" horiz-adv-x="915" 
d="M181 545l766 -8l70 -58l-768 8z" />
    <glyph glyph-name="quoteleft" unicode="&#x2018;" horiz-adv-x="197" 
d="M402 881q-23 59 -23 123q0 108 71 247q-109 -139 -140 -252q-22 -79 -15 -168z" />
    <glyph glyph-name="quoteright" unicode="&#x2019;" horiz-adv-x="197" 
d="M359 1192q23 -59 23 -123q0 -108 -72 -248q110 140 141 252q17 61 17 127q0 20 -2 41z" />
    <glyph glyph-name="quotesinglbase" unicode="&#x201a;" horiz-adv-x="219" 
d="M85 195v0l107 49q2 -21 2 -41q0 -66 -17 -127q-31 -113 -141 -252q71 140 71 249q0 63 -22 122z" />
    <glyph glyph-name="quotedblleft" unicode="&#x201c;" horiz-adv-x="377" 
d="M402 881q-23 59 -23 123q0 108 71 247q-109 -139 -140 -252q-22 -79 -15 -168zM582 881q-23 59 -23 123q0 110 72 247q-110 -139 -141 -252q-22 -79 -15 -168z" />
    <glyph glyph-name="quotedblright" unicode="&#x201d;" horiz-adv-x="383" 
d="M359 1192q23 -59 23 -123q0 -108 -72 -248q110 140 141 252q17 61 17 127q0 20 -2 41zM529 1192q24 -60 24 -125q0 -106 -71 -246q110 140 141 252q17 61 17 127q0 20 -2 41z" />
    <glyph glyph-name="quotedblbase" unicode="&#x201e;" horiz-adv-x="383" 
d="M85 195v0l107 49q2 -21 2 -41q0 -66 -17 -127q-31 -113 -141 -252q71 140 71 249q0 63 -22 122zM255 195v0l109 49q2 -21 2 -41q0 -66 -17 -127q-31 -113 -141 -252q71 139 71 246q0 65 -24 125z" />
    <glyph glyph-name="dagger" unicode="&#x2020;" horiz-adv-x="434" 
d="M720 756l-2 -8l-301 -21l-248 -844h-8l183 840l-180 -14q-7 -11 -19 -11q-18 2 -28 -2l26 109l214 -19l39 170q-20 15 -39 64h147l-72 -240z" />
    <glyph glyph-name="daggerdbl" unicode="&#x2021;" horiz-adv-x="434" 
d="M-100 135l2 8l321 27l121 553l-180 -14q-7 -11 -19 -11q-18 2 -28 -2l26 109l214 -19l39 170q-20 15 -39 64h147l-72 -240l288 -24l-2 -8l-301 -21l-163 -555l252 21l-34 -109q-20 -4 -40 12l-196 17l-67 -230h-8l50 230z" />
    <glyph glyph-name="bullet" unicode="&#x2022;" 
d="M127 0h768l374 1358h-768zM289 129l303 1100h512l-303 -1100h-512z" />
    <glyph glyph-name="ellipsis" unicode="&#x2026;" horiz-adv-x="586" 
d="M179 166l-88 -162l7 211zM384 166l-88 -162l7 211zM589 166l-88 -162l7 211z" />
    <glyph glyph-name="perthousand" unicode="&#x2030;" horiz-adv-x="1307" 
d="M1244 1352q-115 -274 -542 -572l-326 -225q-260 -225 -344 -530l-5 -19q103 273 362 463l480 352q262 192 384 531h-9zM1005 541v0l3 -2q-92 -212 -198 -344l-138 -172l-10 -13q-43 97 -43 235q0 148 49 343l131 78q139 -56 206 -125zM715 84v0q131 192 181 375
q12 41 18 78q-90 51 -141 61q-23 -53 -38 -109q-37 -132 -37 -249q0 -82 17 -156zM717 1214v0l1 -2q-86 -208 -196 -344l-138 -172l-10 -12q-43 97 -43 236q0 147 49 342l129 77q139 -55 208 -125zM428 758v0q130 192 181 375q11 41 15 77q-91 52 -141 62q-21 -53 -36 -109
q-36 -132 -36 -250q0 -81 17 -155zM1415 541v0l3 -2q-92 -210 -199 -344q-37 -42 -138 -172l-9 -13q-43 98 -43 237q0 147 48 341l132 78q139 -56 206 -125zM1125 84v0q131 192 181 375q12 41 18 78q-91 51 -141 61q-23 -53 -38 -109q-37 -132 -37 -249q0 -82 17 -156z" />
    <glyph glyph-name="guilsinglleft" unicode="&#x2039;" horiz-adv-x="598" 
d="M552 236q-126 0 -205 96q-68 83 -86 215q186 237 403 254l6 -99q-10 2 -37 5q-151 13 -356 -185q21 -77 68 -133q61 -72 132 -63q51 6 78 24z" />
    <glyph glyph-name="guilsinglright" unicode="&#x203a;" horiz-adv-x="598" 
d="M176 236q129 0 264 101q112 83 197 210q-54 237 -263 254l-60 -99q11 2 41 5q157 13 254 -185q-64 -77 -142 -133q-100 -72 -166 -63q-48 6 -66 24z" />
    <glyph glyph-name="trademark" unicode="&#x2122;" horiz-adv-x="1114" 
d="M1029 911l89 4q134 6 242 60l-6 2q-85 -43 -372 -43q-182 0 -271 20q-128 29 -212 29q-118 0 -205 -63q-30 -22 -30 -53q0 -74 142 -74q144 0 170 94q2 8 -3 24l-4 -14q-17 -62 -125 -72l-23 -2q-7 -2 -39 -2q-96 0 -104 47q-2 9 6 26.5t22 23.5q73 34 159 34
q63 0 192 -20l-122 -549h8l174 539q101 -20 312 -11zM850 874q-2 0 -6 -2l-69 2q0 -17 1 -20l-91 -473h2l154 438q35 -20 64 -193t66 -194q3 -2 5 4l43 119q17 47 4 104q120 56 191 129l-81 -407h2l187 496l-89 -3q-1 -6 -7 -12q1 -2 3 -4q-41 -54 -61 -74
q-56 -53 -151 -100q-19 50 -67 110q-55 70 -97 83z" />
    <glyph glyph-name="minus" unicode="&#xad;" horiz-adv-x="592" 
d="M181 545h446l70 -58h-448z" />
    <glyph glyph-name="minus" unicode="&#x2212;" horiz-adv-x="592" 
d="M181 545h446l70 -58h-448z" />
    <glyph glyph-name="periodcentered" 
d="M127 0h768l374 1358h-768zM289 129l303 1100h512l-303 -1100h-512z" />
    <glyph glyph-name="musicalnotedbl" unicode="&#x266b;" horiz-adv-x="1040" 
d="M854 553q-144 -323 -209 -560q-37 -134 -38 -200l-105 86l-33 821q-7 160 -44 414q-16 111 -61 158l-32 33q-19 19 -81.5 35t-90.5 10q-45 -10 -133 -115q59 121 137 180q33 30 80 31q97 3 171 -88q59 -73 70 -156l7 -59l73 -488q29 -200 36 -516l196 473
q182 431 285 602q132 218 260 226q70 4 114.5 -45t28.5 -117q-72 -299 -272 -506q-158 -164 -328 -213l92 82q-3 -4 -5 -6v0q24 19 103 94q132 126 152 158q180 187 227 357q11 37 11 65q0 78 -86 73q-147 -8 -247 -217l2 2q-45 -87 -280 -614z" />
    <glyph glyph-name="fi" unicode="&#xf001;" horiz-adv-x="1552" 
d="M1073 1200h9q3 -50 14 -115q94 -587 99 -948l196 473q183 436 283 602q133 218 262 226q70 4 114 -44.5t27 -117.5q-73 -301 -270 -506q-158 -164 -329 -213l93 82q-3 -4 -6 -6v0q25 19 103 94q132 126 152 158q181 187 228 357q10 37 10 65q0 78 -85 73
q-148 -8 -248 -217l3 2q-46 -87 -280 -614q-144 -323 -209 -560q-37 -134 -40 -200l-105 86l-32 821q-4 111 -25 258l-183 -403q-146 -333 -212 -576q-34 -124 -35 -184l-105 86l-33 821q-7 160 -44 414q-16 111 -61 158l-32 33q-19 19 -81.5 35t-90.5 10q-45 -10 -133 -115
q59 121 137 180q33 30 80 31q97 3 171 -88q59 -73 70 -156l7 -59l73 -488q29 -200 36 -516l199 482q115 272 220 479q7 15 53 100z" />
    <glyph glyph-name="fl" unicode="&#xf002;" horiz-adv-x="805" 
d="M1087 -176v0q-235 47 -369 201q-157 179 -297 553q-228 -273 -346 -506q-31 -45 -68 -90q160 321 392 643q-25 51 -36 92q-44 167 -44 292q0 79 18 142l53 195q8 2 22 -5q2 0 8 -4t8 -4q23 0 55 -24q-2 -6 0 -9l-8 -28q-6 -15 -6 -21q-44 -159 -44 -309q0 -104 22 -205
l8 -37q304 407 517 539l172 107q5 -3 20 -13l-3 -2q15 -39 31 -65q-4 -2 -26 -19q-5 -4 -20 -14q-234 -119 -506 -410l-165 -182q132 -405 315 -627q132 -161 477 -190q72 -6 194 -14l-2 -5h-2l2 5h2l7 2h41q45 0 49 -15q-334 0 -471 27z" />
    <glyph glyph-name="fi2" unicode="&#xfb01;" 
d="M1180 1325v0l89 -137q-29 -125 -61 -244q-118 -428 -256 -694l-17 -53q-3 -19 -7 -35q-41 -148 -220 -252q-161 -94 -315 -94q-114 0 -213 30q-142 44 -142 133q0 16 4 33q15 54 84 88q59 37 127 37q51 0 151.5 -18.5t151.5 -18.5q74 0 132 27q-50 -74 -194 -74
q-49 0 -145 20.5t-145 20.5q-129 0 -151 -80q-5 -18 -5 -33q1 -124 312 -124q420 0 531 374l30 103q-35 80 -131 155q-115 68 -187 140l141 569q-20 43 -30 96h160l-51 -172l-66 -211q-44 -138 -69 -227q-9 -35 109 -104q128 -75 139 -148q119 277 168 455q33 119 76 438z
" />
    <glyph glyph-name="fl2" unicode="&#xfb02;" horiz-adv-x="1356" 
d="M171 -86q65 -45 178 -45q84 0 317 51q292 64 428 64q284 0 344 -183l-30 31q-52 53 -179 80q-57 12 -115 12q-117 0 -389 -74q-254 -69 -387 -63q-135 6 -202 98l-124 -112l47 69l61 60q-24 45 -24 90q0 19 5 39q17 -62 42 -86l10 -13l568 551q-82 4 -125.5 59.5
t-35.5 137.5q4 35 16 80h8q-13 -82 16 -143q34 -72 115 -72q22 0 40 4l46 10l635 612q-14 -2 -43 -2q-115 0 -325 64q-170 52 -248 49q-116 -4 -204 -78q-45 -28 -45 -104q0 -99 116 -99q89 0 157 39q77 43 99 123l21 76q2 -37 2 -61q0 -26 -3 -35q-34 -125 -125 -180
q-61 -37 -135 -39q-94 -2 -139 59q-29 39 -29 91q0 86 57 147q125 133 268 141q111 6 293 -62q190 -71 287 -71q20 0 62 4l93 90l38 -55q65 22 101 49l37 22q-57 -59 -111 -92l-9 -4l-694 -622l139 51q15 2 37 2q131 0 203 -142q-25 21 -92 68q-21 10 -54 10q-54 0 -152 -32
q-26 -8 -55 -19l-159 -57z" />
    <glyph glyph-name="glyph224" horiz-adv-x="377" 
 />
    <glyph glyph-name="glyph225" horiz-adv-x="377" 
 />
    <glyph glyph-name="glyph705" horiz-adv-x="377" 
 />
    <glyph glyph-name="glyph706" horiz-adv-x="377" 
 />
    <glyph glyph-name="glyph707" unicode="&#xa0;" horiz-adv-x="377" 
 />
    <glyph glyph-name="ch225" unicode="&#xb7;" horiz-adv-x="377" 
 />
    <glyph glyph-name="ch225" unicode="&#x2219;" horiz-adv-x="377" 
 />
    </font>
</defs>
</svg>
